<?xml version="1.0" encoding="UTF-8" standalone="no"?>
<!-- Created with Inkscape (http://www.inkscape.org/) -->

<svg
   xmlns:dc="http://purl.org/dc/elements/1.1/"
   xmlns:cc="http://creativecommons.org/ns#"
   xmlns:rdf="http://www.w3.org/1999/02/22-rdf-syntax-ns#"
   xmlns:svg="http://www.w3.org/2000/svg"
   xmlns="http://www.w3.org/2000/svg"
   xmlns:sodipodi="http://sodipodi.sourceforge.net/DTD/sodipodi-0.dtd"
   xmlns:inkscape="http://www.inkscape.org/namespaces/inkscape"
   width="200px"
   height="200px"
   viewBox="0 0 200 200"
   version="1.1"
   id="SVGRoot"
   inkscape:version="0.92.3 (2405546, 2018-03-11)"
   sodipodi:docname="equili.svg">
  <sodipodi:namedview
     id="base"
     pagecolor="#ffffff"
     bordercolor="#666666"
     borderopacity="1.0"
     inkscape:pageopacity="0.0"
     inkscape:pageshadow="2"
     inkscape:zoom="2.565"
     inkscape:cx="100"
     inkscape:cy="100"
     inkscape:document-units="px"
     inkscape:current-layer="g12"
     showgrid="false"
     inkscape:window-width="1366"
     inkscape:window-height="707"
     inkscape:window-x="0"
     inkscape:window-y="27"
     inkscape:window-maximized="1" />
  <defs
     id="defs291" />
  <metadata
     id="metadata294">
    <rdf:RDF>
      <cc:Work
         rdf:about="">
        <dc:format>image/svg+xml</dc:format>
        <dc:type
           rdf:resource="http://purl.org/dc/dcmitype/StillImage" />
        <dc:title />
      </cc:Work>
    </rdf:RDF>
  </metadata>
  <g
     id="layer1"
     inkscape:groupmode="layer"
     inkscape:label="Camada 1">
    <g
       id="g12"
       transform="matrix(-0.71755935,0,0,0.60484805,231.51584,-39.426987)">
      <path
         style="fill:#604867;fill-opacity:1"
         d="m 190.81488,365.60879 c -15.23139,5.77562 -46.30349,-11.68593 -91.617608,-11.88847 2.317028,-1.05553 -9.920084,-7.8311 -2.072195,-9.20769 7.847893,-1.37659 14.967743,-2.71185 15.821903,-2.96723 0.85416,-0.25539 9.19379,-1.64301 18.53251,-3.08361 9.33873,-1.4406 17.65737,-2.99863 18.48587,-3.46228 1.72668,-0.9663 2.65142,-0.73863 -15.96536,-3.93064 C 117.07387,328.16674 101.79691,321.00481 97.68523,314.04428 93.749933,307.38236 96.165248,299 102.02013,299 c 3.70256,0 8.14878,-3.63595 7.77449,-6.35768 -0.36997,-2.69025 6.41564,-6.26044 20.20538,-10.63087 9.21997,-2.92212 34.38778,-7.99578 39.81657,-8.02676 2.8635,-0.0163 5.98922,-1.51223 5.07344,-2.42801 -0.54339,-0.54339 -12.31071,-3.81383 -20.65211,-5.73975 -5.70474,-1.31715 -13.13061,-6.50901 -15.47136,-10.81693 -1.43886,-2.64809 -1.78073,-4.78226 -1.40453,-8.76808 0.64583,-6.84269 3.55032,-11.39112 9.68406,-15.16525 2.72466,-1.6765 4.95393,-3.41992 4.95393,-3.87426 0,-0.45435 -11.20222,-0.62585 -24.89382,-0.38112 -35.502736,0.6346 -51.348009,-2.2406 -56.200157,-10.1978 -5.141577,-8.43184 0.378957,-16.93102 19.492543,-30.00988 16.445924,-11.25346 21.031114,-12.37089 54.392154,-13.25564 13.9099,-0.3689 25.50027,-1.00979 25.75639,-1.4242 0.25612,-0.41441 -1.6747,-1.52926 -4.29072,-2.47743 -19.35137,-7.01394 -30.21124,-17.77859 -30.0162,-29.75301 0.0683,-4.19498 0.42837,-4.98769 2.82919,-6.22921 4.11241,-2.12661 18.97421,-4.55756 31.71692,-5.18795 7.1666,-0.35454 11.15935,-0.93923 10.93848,-1.60183 -0.19131,-0.57392 -7.07014,-3.35313 -15.2863,-6.17602 -17.20007,-5.90958 -23.05913,-8.4047 -29.61584,-12.61213 C 131.84629,104.69287 126,96.755885 126,93.193246 c 0,-5.839694 7.39408,-14.212359 15.59701,-17.661227 9.41095,-3.956774 17.49142,-4.926391 39.38419,-4.72591 23.15804,0.212069 28.94772,1.080111 39.0188,5.85006 11.70307,5.542907 14.4047,7.810973 16.4414,13.802825 1.67499,4.92775 1.74688,6.279787 0.65788,12.373446 -0.67242,3.76266 -2.06664,8.22913 -3.09827,9.9255 -2.14305,3.52397 -7.8832,7.13509 -16.34427,10.28216 -3.21379,1.19536 -5.46379,2.52618 -5,2.95738 0.46379,0.4312 6.91826,1.01223 14.34326,1.29119 23.20287,0.87173 44.82249,6.00668 52.84965,12.5525 2.55769,2.08569 5.87086,4.30728 7.36259,4.93686 3.44631,1.45449 9.37175,9.55805 10.64232,14.55431 1.58062,6.21547 -1.3302,11.41568 -8.35456,14.92546 -8.86885,4.4314 -39.29719,6.58065 -67.81865,4.79025 -10.90025,-0.68425 -20.05636,-1.00637 -20.3469,-0.71583 -0.29055,0.29054 1.42785,1.50916 3.81864,2.70804 17.01315,8.53133 13.49784,21.08376 -9.08008,32.42307 -4.99016,2.50621 -9.07301,5.02283 -9.07301,5.59249 0,0.69608 3.36144,0.78811 10.25,0.28062 16.18794,-1.19259 61.70031,-1.02047 62.53636,0.2365 0.3925,0.59012 1.50789,1.36609 2.47865,1.72438 0.97075,0.35828 2.19711,1.78796 2.72525,3.17705 1.05514,2.77524 2.01137,3.124 3.76294,1.37243 0.79341,-0.79341 0.84483,-1.72936 0.16481,-3 -0.83132,-1.55333 -0.61322,-1.8468 1.37249,-1.8468 2.86384,0 6.03258,3.30612 7.57098,7.89922 1.62675,4.8569 1.40561,15.52464 -0.41216,19.8829 -4.59477,11.01631 -18.94204,18.35443 -42.44932,21.71132 -19.07712,2.72425 -19.16977,2.79959 -8,6.50555 12.37063,4.10439 23.77104,13.82549 28.57895,24.36921 2.28204,5.00449 2.60104,6.80077 2.16731,12.20415 -0.68679,8.55592 -3.01126,12.25029 -10.02155,15.92765 -3.14545,1.65 -5.72029,3.23963 -5.72186,3.53251 -0.002,0.29287 5.28465,2.26434 11.74715,4.38102 17.37581,5.69117 21.87822,8.28624 25.22446,14.53874 0.62122,1.16077 2.79809,3.33387 4.83749,4.82911 2.5077,1.83859 -22.07233,8.46048 -22.15581,9.98215 -9.5096,3.90926 -27.53208,2.33948 -31.44323,3.03855 -51.96473,-10.85817 -5.80039,-1.84652 -39.39803,-4.19329 z m -68.32196,-68.59734 c 0.35034,-0.56686 -0.0511,-0.7345 -0.94098,-0.39301 -1.73242,0.66479 -2.04939,1.38156 -0.61096,1.38156 0.51754,0 1.21592,-0.44485 1.55194,-0.98855 z M 247,222 c 0,-0.55 -0.47656,-1 -1.05902,-1 -0.58246,0 -0.7809,0.45 -0.44098,1 0.33992,0.55 0.81648,1 1.05902,1 0.24254,0 0.44098,-0.45 0.44098,-1 z m 6.5,-1 c 0.33992,-0.55 0.14148,-1 -0.44098,-1 -0.58246,0 -1.05902,0.45 -1.05902,1 0,0.55 0.19844,1 0.44098,1 0.24254,0 0.7191,-0.45 1.05902,-1 z M 106,190.88468 c 1.78544,-1.47895 1.97643,-1.90134 0.66821,-1.47777 -1.00748,0.3262 -2.42184,0.59309 -3.14301,0.59309 -0.72117,0 -1.57024,0.675 -1.88683,1.5 -0.81932,2.13512 1.42311,1.81877 4.36163,-0.61532 z M 141.8185,82.461259 c 8.17918,-2.428954 6.32215,-4.739098 -1.96026,-2.438564 C 135.93468,81.112509 132.54997,84 135.19605,84 c 0.79252,0 3.77262,-0.692433 6.62245,-1.538741 z"
         id="path16"
         inkscape:connector-curvature="0"
         sodipodi:nodetypes="ccscscscscscssccssssssscccsssssssscccsssscsssccssscccscsccssssscccscccccscssssssssssscscsssss" />
      <path
         style="fill:#7c5d86;fill-opacity:1"
         d="M 195.5,357.98249 C 182.57213,357.35324 165.47642,355.18594 144.26968,351.4878 139.57727,350.66951 133.96902,350 131.80691,350 c -2.16211,0 -6.04067,-0.63263 -8.61901,-1.40585 -2.57835,-0.77322 -7.2754,-1.93049 -10.4379,-2.57172 -10.73846,-2.17732 -7.45487,-3.50145 18.72949,-7.55278 9.33873,-1.44492 17.65737,-3.00649 18.48587,-3.47014 1.72668,-0.9663 2.65142,-0.73863 -15.96536,-3.93064 -8.2269,-1.41058 -14.72201,-3.17679 -19,-5.16667 C 101.01428,319.39683 96.078766,314.7152 95.815198,307.70428 95.645448,303.1889 96.537288,302 100.0942,302 c 2.64906,0 2.86053,0.21606 1.92407,1.96586 -0.86935,1.62439 -0.61631,2.25141 1.45672,3.60971 1.92122,1.25883 4.25251,1.55579 9.95364,1.2679 6.22098,-0.31414 7.87314,-0.77834 10.05044,-2.82381 2.08043,-1.95446 2.95758,-2.22806 4.35173,-1.3574 3.41334,2.13167 9.80362,2.57815 13.02885,0.91032 1.67257,-0.86492 5.2568,-1.57258 7.96496,-1.57258 2.70817,0 6.83709,-0.675 9.17539,-1.5 4.87181,-1.71887 10.59296,-1.96762 11.5,-0.5 0.33992,0.55 2.67158,1 5.18146,1 3.94839,0 4.3952,0.2027 3.31522,1.504 -0.68651,0.82719 -2.65411,1.86562 -4.37244,2.30761 -2.54773,0.65532 -3.18082,1.37597 -3.43084,3.90538 l -0.3066,3.10176 7.32364,0.68628 c 5.36326,0.50258 8.79132,0.26927 12.8066,-0.87162 9.60253,-2.72844 32.34888,-2.55836 47.27465,0.35348 3.18542,0.62144 7.01042,1.02328 8.5,0.89298 1.48957,-0.1303 4.62081,0.12594 6.95831,0.56942 3.41353,0.64763 4.24926,1.22401 4.24626,2.92852 -0.007,4.01521 -3.79904,8.54719 -9.48473,11.33572 -3.03134,1.48671 -5.51153,2.97079 -5.51153,3.29795 0,0.32717 3.2625,1.63616 7.25,2.90887 8.72775,2.78567 9.75,3.52588 9.75,7.05996 0,2.25607 -1.02098,3.3656 -5.82624,6.33158 -12.3949,7.65056 -28.59455,10.086 -57.67376,8.6706 z M 249,312.06123 c -2.12213,-1.16174 -10.44826,-3.61469 -17.5,-5.15566 -3.3,-0.72112 -7.44409,-2.15347 -9.20908,-3.18299 -2.62424,-1.53071 -4.72006,-1.80016 -11.5,-1.47847 -4.56001,0.21636 -10.76592,0.96072 -13.79092,1.65413 -6.60566,1.51419 -12.14483,0.18612 -10.00045,-2.3977 1.64399,-1.98088 6.82303,-3.39536 17.00045,-4.64307 10.61646,-1.30154 12.56644,-1.33253 22.66636,-0.36015 8.07151,0.77708 8.19606,0.75418 10.72258,-1.97199 2.23336,-2.40983 3.02895,-2.66952 6.29908,-2.05603 5.76791,1.08206 8.63115,2.9746 11.07274,7.31882 2.32077,4.12926 2.95417,8.21188 1.27404,8.21188 -0.53087,0 -2.50277,-1.35 -4.38202,-3 C 248.34124,302.09243 246,301.17478 246,302.78439 c 0,0.43142 1.35,1.58186 3,2.55654 2.25249,1.33058 3,2.50557 3,4.71561 0,3.06106 -0.48199,3.38314 -3,2.00469 z m -39.85676,-20.95154 c -2.40723,-1.5253 0.66267,-2.36963 5.67776,-1.5616 4.108,0.66189 4.37391,0.84533 2.179,1.50322 -3.49085,1.04632 -6.26506,1.06693 -7.85676,0.0584 z M 238.5,286.01333 c -1.65,-0.43007 -5.68204,-1.50901 -8.9601,-2.39764 C 226.26185,282.72706 221.85379,282 219.74421,282 c -2.10958,0 -7.30253,-1.09145 -11.5399,-2.42544 -10.87301,-3.423 -29.16137,-4.85568 -39.70431,-3.11037 -12.73721,2.10855 -17.64449,2.57862 -17.06083,1.63423 0.29826,-0.48259 2.00896,-1.11089 3.80156,-1.39621 1.7926,-0.28532 6.63427,-1.04347 10.75927,-1.68476 7.01615,-1.09078 10.05789,-2.29289 8.8523,-3.49848 -0.51236,-0.51236 -12.50726,-3.83021 -20.6144,-5.70204 -5.70474,-1.31715 -13.13061,-6.50901 -15.47136,-10.81693 -1.43886,-2.64809 -1.78073,-4.78226 -1.40453,-8.76808 0.64583,-6.84269 3.55032,-11.39112 9.68406,-15.16525 2.72466,-1.6765 4.95393,-3.41992 4.95393,-3.87426 0,-0.45435 -11.20222,-0.62585 -24.89382,-0.38112 -36.512621,0.65266 -51.83873,-2.30532 -56.505492,-10.9057 -2.713718,-5.00112 -1.590131,-9.58878 3.822985,-15.60947 7.841656,-8.72181 30.912177,-22.7316 39.076327,-23.72947 2.2,-0.26889 3.2125,-0.2484 2.25,0.0455 -2.42691,0.74118 -2.19705,2.3878 0.33333,2.3878 3.91865,0 1.30755,2.49834 -2.72749,2.6097 -4.64017,0.12807 -10.53581,3.68419 -14.596451,8.80426 l -2.740612,3.45565 2.674997,2.10415 c 1.978566,1.55634 3.473126,1.94247 5.740616,1.48312 5.62676,-1.13987 9.56561,-2.84543 9.56561,-4.14199 0,-3.3034 5.5859,-7.37101 12.86135,-9.36554 5.45891,-1.49654 8.65301,-3.10755 12.35937,-6.23371 l 4.99803,-4.21564 13.44085,-0.34933 c 8.65589,-0.22496 13.31828,-0.71702 13.09657,-1.38217 -0.18936,-0.56806 -3.47446,-2.14854 -7.30023,-3.51218 -12.60803,-4.49392 -23.534,-13.98676 -26.55173,-23.06902 -0.91525,-2.75456 -0.81491,-3.62849 0.59551,-5.18699 0.93291,-1.03085 1.40004,-2.35348 1.03807,-2.93917 -1.17436,-1.90015 4.62277,-3.28759 10.46221,-2.50395 8.77838,1.17805 37.06199,0.5128 39.10736,-0.91983 1.25826,-0.88132 6.61099,-1.16888 18.81972,-1.01104 16.23656,0.20992 17.01417,0.13243 16.08545,-1.60291 -2.16782,-4.05061 4.75373,-4.03112 29.48747,0.083 3.3,0.54891 8.83182,1.91764 12.29293,3.04161 5.18357,1.68334 6.08748,2.29113 5.12755,3.44778 -0.64095,0.7723 -2.71183,1.40418 -4.60194,1.40418 -2.03641,0 -3.18477,0.40743 -2.81854,1 0.33992,0.55 2.32433,1 4.40979,1 4.8934,0 9.86936,1.72293 13.38829,4.6357 1.53895,1.27386 4.35593,3.05534 6.25996,3.95887 3.4447,1.63461 7.78551,6.48906 10.34575,11.56991 1.16967,2.32124 1.10132,3.15746 -0.53058,6.4912 -2.24469,4.58559 -7.38116,7.69487 -15.25557,9.23473 -15.6058,3.05174 -49.0908,3.6293 -71.3775,1.23114 -8.6989,-0.93605 -10.29254,0.0566 -4.64141,2.89097 17.14949,8.60155 13.58702,21.10899 -9.27572,32.56606 -9.03542,4.52787 -11.78977,6.56633 -9.79895,7.25209 0.59413,0.20465 0.55483,1.08767 -0.10312,2.31706 -0.80032,1.49541 -0.69275,2.55159 0.43523,4.27309 1.16638,1.78013 2.78824,2.43206 7.32107,2.9428 3.20252,0.36084 8.5909,1.61921 11.97417,2.79636 l 6.15142,2.14028 2.84296,-2.23628 c 2.62057,-2.06134 2.92162,-2.10292 3.84858,-0.53156 2.88488,4.89036 4.06393,5.7613 6.06706,4.48164 2.0639,-1.31848 6.09395,-6.27178 9.77474,-12.01406 3.01785,-4.70804 5.02057,-4.53293 5.7186,0.5 0.88581,6.3868 2.32725,8.15915 7.1586,8.80203 2.35765,0.31372 5.26504,0.86767 6.46088,1.23101 1.74332,0.52967 2.49165,0.0468 3.77568,-2.43622 1.70299,-3.29321 4.87423,-4.06407 8.57382,-2.08411 1.50098,0.8033 2.11502,0.59651 2.96945,-1 1.32502,-2.47583 2.86439,-2.56322 4.62755,-0.26271 1.1545,1.50635 1.47513,1.54587 2.30283,0.28388 1.37862,-2.10195 3.07801,2.75755 3.07084,8.78122 -0.0212,17.78655 -13.67303,27.32754 -45.8002,32.00877 -7.30815,1.06486 -13.54969,2.19827 -13.8701,2.51868 -0.63213,0.63212 0.91171,1.32729 10.38082,4.67434 3.41272,1.20629 7.91272,3.70225 10,5.54656 3.9426,3.48366 3.80836,3.75659 -1.20494,2.44988 z m -62.0651,-52.98858 c 1.77726,-0.67571 2.5651,-1.71783 2.5651,-3.39301 0,-1.33441 0.74705,-2.70443 1.66722,-3.05753 2.85055,-1.09386 -0.0462,-2.74553 -4.94518,-2.81959 -5.83719,-0.0882 -11.10772,2.87175 -11.53192,6.47645 -0.27203,2.31165 0.0944,2.68309 3,3.04107 6.07712,0.74872 6.66629,0.73295 9.24478,-0.24739 z M 153.04966,206.47432 C 154.67235,205.6352 156,204.46015 156,203.8631 c 0,-1.7808 7.93609,-10.70804 10.1414,-11.40798 1.38052,-0.43816 1.88339,-1.25232 1.55326,-2.51476 -0.71128,-2.71992 1.94374,-4.64728 4.34018,-3.15067 1.33962,0.8366 2.06437,0.8588 2.54691,0.078 1.01466,-1.64175 -1.58501,-2.83525 -6.21306,-2.85241 -3.50988,-0.013 -4.51917,-0.52382 -6.70982,-3.39591 -2.73327,-3.5835 -7.18973,-5.02108 -10.25225,-3.3072 -0.93407,0.52273 -2.95868,2.3859 -4.49914,4.14039 -1.54046,1.75449 -4.84983,4.48514 -7.35416,6.06811 -2.50433,1.58297 -4.55332,3.19025 -4.55332,3.57172 0,2.6125 6.11763,0.28375 14.32417,-5.45266 2.83336,-1.98053 8.15219,-1.56884 7.43735,0.57568 -0.43703,1.31108 -0.66464,1.43855 -10.8556,6.07953 -4.81468,2.19261 -8.37875,4.56032 -9.738,6.46921 -2.48299,3.48703 -2.12027,4.01619 4.88111,7.12084 5.47532,2.42794 8.18755,2.56112 12.00063,0.5893 z M 128.5,202 c 0.33992,-0.55 -0.28197,-1 -1.38197,-1 -1.1,0 -2.27811,0.45 -2.61803,1 -0.33992,0.55 0.28197,1 1.38197,1 1.1,0 2.27811,-0.45 2.61803,-1 z m 104.22917,-66.60417 c -0.3323,-0.33229 -1.1948,-0.36781 -1.91667,-0.0789 -0.79773,0.31922 -0.56078,0.55618 0.60417,0.60416 1.05416,0.0434 1.64479,-0.19293 1.3125,-0.52522 z M 123.664,285.00949 c 1.60392,-1.46291 11.87403,-4.75343 16.836,-5.39422 l 5,-0.6457 -5.5,2.04124 c -6.42317,2.38387 -17.55225,5.10801 -16.336,3.99868 z m 79.1485,-65.6926 c 0.72187,-0.28887 1.58437,-0.25335 1.91667,0.0789 0.33229,0.33229 -0.25834,0.56864 -1.3125,0.52522 -1.16495,-0.048 -1.4019,-0.28494 -0.60417,-0.60416 z M 215,129.09362 c 0,-0.49851 0.9,-0.67103 2,-0.38337 1.1,0.28766 2,0.69553 2,0.90638 0,0.21085 -0.9,0.38337 -2,0.38337 -1.1,0 -2,-0.40787 -2,-0.90638 z m -21.5,-1.01907 c -4.95,-0.316 -9.9,-1.07987 -11,-1.69748 -1.1,-0.61762 -8.3,-3.2357 -16,-5.81797 -24.73333,-8.29456 -34.01096,-13.75986 -38.58796,-22.731518 -3.6186,-7.09303 0.0793,-11.435964 11.02938,-12.953415 3.94465,-0.546643 9.20885,-1.866957 11.69824,-2.934031 C 153.12904,80.873061 156.00614,80 157.03322,80 c 1.02707,0 2.30409,-0.780327 2.83783,-1.73406 0.96821,-1.730103 2.04037,-1.920296 21.87895,-3.881172 4.30362,-0.425376 6.25,-0.270059 6.25,0.498736 C 188,75.497577 187.298,76 186.44001,76 185.0823,76 182.5571,77.642216 173.5,84.415287 c -1.83745,1.374082 -1.39045,1.502137 5.5,1.575611 4.36354,0.04653 8.54426,0.657905 9.99706,1.461942 1.46816,0.812539 2.92996,1.022692 3.54768,0.510026 1.34627,-1.117301 10.10343,-1.395594 13.77741,-0.43783 1.77096,0.46167 3.74429,0.242182 5.29787,-0.589268 2.06617,-1.105782 3.25359,-1.093612 7.17785,0.07357 2.58617,0.769194 6.60805,1.328166 8.93751,1.24216 3.74228,-0.138168 4.54365,0.247771 6.88303,3.314859 2.41091,3.160865 2.60452,4.073792 2.16545,10.210413 -0.81847,11.43921 -4.44279,15.62532 -18.02029,20.81358 -5.09297,1.94613 -6.76357,3.05691 -6.76357,4.49707 0,2.11 -0.49612,2.13647 -18.5,0.98713 z M 157,85 c 0,-0.55 -1.09844,-1 -2.44098,-1 -1.34254,0 -2.7191,0.45 -3.05902,1 -0.36058,0.583423 0.65628,1 2.44098,1 C 155.62344,86 157,85.55 157,85 Z m -12,-8.917807 c 0.825,-0.471344 3.525,-1.128357 6,-1.460029 l 4.5,-0.603039 -3.5,1.41436 c -3.9263,1.586627 -9.5546,2.108216 -7,0.648708 z"
         id="path14"
         inkscape:connector-curvature="0" />
    </g>
  </g>
</svg>
