<?xml version="1.0" encoding="UTF-8" standalone="no"?>
<!-- Created with Inkscape (http://www.inkscape.org/) -->

<svg
   xmlns:dc="http://purl.org/dc/elements/1.1/"
   xmlns:cc="http://creativecommons.org/ns#"
   xmlns:rdf="http://www.w3.org/1999/02/22-rdf-syntax-ns#"
   xmlns:svg="http://www.w3.org/2000/svg"
   xmlns="http://www.w3.org/2000/svg"
   xmlns:xlink="http://www.w3.org/1999/xlink"
   xmlns:sodipodi="http://sodipodi.sourceforge.net/DTD/sodipodi-0.dtd"
   xmlns:inkscape="http://www.inkscape.org/namespaces/inkscape"
   width="200px"
   height="200px"
   viewBox="0 0 200 200"
   version="1.1"
   id="SVGRoot"
   inkscape:version="0.92.3 (2405546, 2018-03-11)"
   sodipodi:docname="f.svg">
  <sodipodi:namedview
     id="base"
     pagecolor="#ffffff"
     bordercolor="#666666"
     borderopacity="1.0"
     inkscape:pageopacity="0.0"
     inkscape:pageshadow="2"
     inkscape:zoom="2.565"
     inkscape:cx="100"
     inkscape:cy="100"
     inkscape:document-units="px"
     inkscape:current-layer="layer1"
     showgrid="false"
     inkscape:window-width="1366"
     inkscape:window-height="707"
     inkscape:window-x="0"
     inkscape:window-y="27"
     inkscape:window-maximized="1" />
  <defs
     id="defs2544">
    <radialGradient
       inkscape:collect="always"
       xlink:href="#linearGradient1162"
       id="radialGradient1170"
       cx="178.78931"
       cy="502.32233"
       fx="178.78931"
       fy="502.32233"
       r="104.79966"
       gradientTransform="matrix(0.85621995,0,0,0.92977232,-53.532188,-366.29576)"
       gradientUnits="userSpaceOnUse" />
    <linearGradient
       inkscape:collect="always"
       id="linearGradient1162">
      <stop
         style="stop-color:#000000;stop-opacity:1;"
         offset="0"
         id="stop1158" />
      <stop
         style="stop-color:#000000;stop-opacity:0;"
         offset="1"
         id="stop1160" />
    </linearGradient>
  </defs>
  <metadata
     id="metadata2547">
    <rdf:RDF>
      <cc:Work
         rdf:about="">
        <dc:format>image/svg+xml</dc:format>
        <dc:type
           rdf:resource="http://purl.org/dc/dcmitype/StillImage" />
        <dc:title />
      </cc:Work>
    </rdf:RDF>
  </metadata>
  <g
     id="layer1"
     inkscape:groupmode="layer"
     inkscape:label="Camada 1">
    <path
       style="fill:#ff00ff;fill-opacity:1;stroke:url(#meshgradient1015);stroke-width:0.90173912;stroke-miterlimit:3.79999995;stroke-dasharray:none;stroke-opacity:1"
       d="m 91.121572,197.06534 c -1.833253,-0.42749 -4.727362,-1.35768 -6.431496,-2.06712 -5.177223,-2.15523 -53.860436,-29.80573 -58.487021,-33.21859 -5.718521,-4.21848 -10.707202,-10.62453 -13.094342,-16.81457 -2.723894,-7.0633 -2.609931,-5.24456 -2.769701,-44.18824 -0.142903,-34.829096 -0.13143,-35.452886 0.711947,-38.706394 2.2534,-8.69333 7.903852,-16.708995 15.568305,-22.08515 C 30.111015,37.536042 76.217262,10.506093 80.723718,8.2664365 91.887889,2.7177971 103.515,2.2828965 114.62616,6.9983404 c 4.12399,1.7501899 50.92017,28.2491796 56.42592,31.9519966 3.53867,2.379873 8.06894,6.849786 10.48613,10.346323 2.68827,3.88878 4.34523,7.543537 5.65876,12.481598 l 1.03697,3.898584 0.39497,31.15098 c 0.48008,37.865238 0.34043,40.057558 -3.08513,48.431658 -2.2808,5.57576 -7.61762,12.2156 -12.80177,15.92754 -4.22057,3.02196 -48.73537,29.17129 -55.17593,32.41202 -5.99037,3.01418 -9.80886,3.93758 -16.96317,4.10213 -4.960085,0.11404 -6.792387,-0.008 -9.481338,-0.63583 z m 15.081098,-0.59912 c 3.66933,-0.70469 7.52103,-2.00007 10.79548,-3.63067 6.06905,-3.0223 51.88094,-29.99878 55.53887,-32.70425 8.91891,-6.59655 14.02771,-16.01789 15.11742,-27.87854 0.29129,-3.17087 0.32254,-14.54752 0.0967,-35.219999 l -0.33376,-30.536157 -1.07781,-4.098811 C 184.11016,53.919126 179.63863,46.946337 173.06553,41.698778 169.91883,39.186612 156.53337,31.338173 127.21332,14.813779 111.1228,5.7453996 108.97977,5.003673 98.963367,5.0362005 c -5.439985,0.017642 -7.106866,0.1738468 -9.77733,0.9161299 -6.03207,1.6766581 -6.440315,1.9014755 -50.338204,27.7157376 -5.785821,3.402439 -12.018588,7.367199 -13.850557,8.810581 -5.516283,4.346464 -9.960749,10.537936 -12.129726,16.897947 -2.283196,6.694629 -2.34707,7.986545 -2.043112,41.345104 0.153093,16.79489 0.449088,31.90631 0.65792,33.58094 1.508659,12.09961 7.197642,21.35849 17.18639,27.97109 1.91622,1.26853 12.0608,7.18426 22.543415,13.14606 28.239419,16.06047 30.85997,17.49951 34.329117,18.85108 6.632023,2.58389 14.361703,3.40518 20.66143,2.19535 z M 85.642278,126.97305 v -25.4071 l -5.226028,-0.11475 -5.226024,-0.11474 v -9.22233 -9.222328 l 5.186038,-0.114393 5.186043,-0.114392 0.177923,-8.902963 c 0.156688,-7.838736 0.28418,-9.193036 1.066593,-11.32951 1.894558,-5.173547 4.60946,-8.433656 8.773241,-10.535565 4.516906,-2.280096 6.471736,-2.565757 17.729146,-2.590699 l 10.24707,-0.02269 v 9.222328 9.222338 l -6.65188,0.204936 c -6.60232,0.203411 -6.66029,0.213404 -7.78776,1.340284 -1.12592,1.125424 -1.13706,1.188964 -1.26789,7.275387 l -0.13202,6.14007 h 7.79314 c 4.28615,0 7.89108,0.158569 8.01078,0.352387 0.32837,0.531288 -1.481,17.39976 -1.92957,17.98981 -0.28375,0.37314 -2.21256,0.51235 -7.09926,0.51235 h -6.70977 l -0.10557,25.31017 -0.10557,25.31017 -10.964409,0.10921 -10.964222,0.1092 z m 21.413102,-0.94117 0.10565,-25.51512 6.86013,-0.11239 c 6.7221,-0.11014 6.86389,-0.13073 7.04454,-1.024704 0.29866,-1.477453 1.47116,-13.089282 1.46842,-14.540908 l -0.008,-1.332116 h -7.78766 -7.78784 v -6.373524 c 0,-9.657633 0.35687,-10.021732 9.82401,-10.021732 h 5.75149 V 58.441328 49.77127 l -9.52973,0.244125 c -7.47412,0.191468 -10.15451,0.41162 -12.42581,1.020563 -3.860095,1.034879 -6.767724,2.674729 -9.028992,5.092241 -3.879961,4.147958 -5.085006,8.896287 -5.085006,20.036641 v 7.341802 H 81.1279 75.799387 v 8.402572 8.402576 h 4.680098 c 2.574058,0 4.971903,0.11191 5.328518,0.24878 0.581544,0.22317 0.648329,2.86269 0.648329,25.61759 v 25.36879 H 96.700303 106.9442 Z"
       id="path66-3-7"
       inkscape:connector-curvature="0"
       sodipodi:nodetypes="ccssccccscccscscscccscccccssssscscssccccccccccccsscccscccsccsccccccccscccccsscccsccscccccscsccccc" />
    <path
       style="fill:#ff00ff;fill-opacity:1;stroke:url(#radialGradient1170);stroke-width:0.90173912;stroke-miterlimit:3.79999995;stroke-dasharray:none;stroke-opacity:0.20952382"
       d="m 91.121572,197.06533 c -1.833253,-0.42749 -4.727362,-1.35767 -6.431496,-2.06712 -5.177223,-2.15523 -53.860436,-29.80573 -58.487021,-33.21859 -5.718521,-4.21848 -10.707202,-10.62453 -13.094342,-16.81457 -2.723894,-7.0633 -2.609931,-5.24457 -2.769701,-44.18823 -0.142903,-34.829096 -0.13143,-35.452886 0.711947,-38.706394 2.2534,-8.69333 7.903852,-16.708995 15.568305,-22.08515 C 30.111015,37.536042 76.217262,10.506093 80.723718,8.2664365 91.887889,2.7177971 103.515,2.2828965 114.62616,6.9983404 c 4.12399,1.7501899 50.92017,28.2491796 56.42592,31.9519966 3.53867,2.379873 8.06894,6.849786 10.48613,10.346323 2.68827,3.88878 4.34523,7.543537 5.65876,12.481598 l 1.03697,3.898584 0.39497,31.15098 c 0.48008,37.865228 0.34043,40.057548 -3.08513,48.431658 -2.2808,5.57576 -7.61762,12.21559 -12.80177,15.92753 -4.22057,3.02196 -48.73537,29.1713 -55.17593,32.41202 -5.99037,3.01418 -9.80886,3.93758 -16.96317,4.10213 -4.960085,0.11416 -6.792387,-0.008 -9.481338,-0.63583 z m 15.081098,-0.59912 c 3.66933,-0.70468 7.52103,-2.00007 10.79548,-3.63066 6.06905,-3.02231 51.88094,-29.99879 55.53887,-32.70427 8.91891,-6.59653 14.02771,-16.01789 15.11742,-27.87854 0.29129,-3.17087 0.32254,-14.54751 0.0967,-35.21999 l -0.33376,-30.536146 -1.07781,-4.098811 C 184.11016,53.919126 179.63863,46.946337 173.06553,41.698778 169.91883,39.186612 156.53337,31.338173 127.21332,14.813779 111.1228,5.7453996 108.97977,5.003673 98.963367,5.0362005 c -5.439985,0.017642 -7.106866,0.1738468 -9.77733,0.9161299 -6.03207,1.6766581 -6.440315,1.9014755 -50.338204,27.7157376 -5.785821,3.402439 -12.018588,7.367199 -13.850557,8.810581 -5.516283,4.346464 -9.960749,10.537936 -12.129726,16.897947 -2.283196,6.694629 -2.34707,7.986545 -2.043112,41.345094 0.153093,16.79489 0.449088,31.90631 0.65792,33.58095 1.508659,12.0996 7.197642,21.35848 17.18639,27.97108 1.91622,1.26854 12.0608,7.18426 22.543415,13.14607 28.239419,16.06046 30.85997,17.4995 34.329117,18.85108 6.632023,2.58388 14.361703,3.40518 20.66143,2.19534 z M 85.642278,126.97305 v -25.40711 l -5.226028,-0.11475 -5.226024,-0.11474 V 92.114118 82.89179 l 5.186038,-0.114393 5.186043,-0.114392 0.177923,-8.902962 c 0.156688,-7.838737 0.28418,-9.193037 1.066593,-11.329511 1.894558,-5.173547 4.60946,-8.433656 8.773241,-10.535564 4.516906,-2.280097 6.471736,-2.565758 17.729146,-2.5907 l 10.24707,-0.02269 v 9.222329 9.222337 l -6.65188,0.204936 c -6.60232,0.203412 -6.66029,0.213404 -7.78776,1.340284 -1.12592,1.125425 -1.13706,1.188964 -1.26789,7.275376 l -0.13202,6.14007 h 7.79314 c 4.28615,0 7.89108,0.15858 8.01078,0.352387 0.32837,0.531287 -1.481,17.399763 -1.92957,17.989813 -0.28375,0.37314 -2.21256,0.51235 -7.09926,0.51235 h -6.70977 l -0.10557,25.31017 -0.10557,25.31017 -10.964409,0.1092 -10.964222,0.10921 z m 21.413102,-0.94118 0.10565,-25.51512 6.86013,-0.11239 c 6.7221,-0.11015 6.86389,-0.13072 7.04454,-1.024706 0.29866,-1.477452 1.47116,-13.089282 1.46842,-14.540896 l -0.008,-1.332116 h -7.78766 -7.78784 v -6.373524 c 0,-9.657633 0.35687,-10.021732 9.82401,-10.021732 h 5.75149 V 58.441328 49.77127 l -9.52973,0.244125 c -7.47412,0.191468 -10.15451,0.41162 -12.42581,1.020563 -3.860095,1.034879 -6.767724,2.674729 -9.028992,5.092241 -3.879961,4.147958 -5.085006,8.896287 -5.085006,20.036641 v 7.341802 H 81.1279 75.799387 v 8.402561 8.402567 h 4.680098 c 2.574058,0 4.971903,0.11192 5.328518,0.2488 0.581544,0.22316 0.648329,2.86267 0.648329,25.61758 v 25.3688 H 96.700303 106.9442 Z"
       id="path66-3-7-2"
       inkscape:connector-curvature="0"
       sodipodi:nodetypes="ccssccccscccscscscccscccccssssscscssccccccccccccsscccscccsccsccccccccscccccsscccsccscccccscsccccc" />
  </g>
</svg>
