<?xml version="1.0" encoding="UTF-8" standalone="no"?>
<!-- Created with Inkscape (http://www.inkscape.org/) -->

<svg
   xmlns:dc="http://purl.org/dc/elements/1.1/"
   xmlns:cc="http://creativecommons.org/ns#"
   xmlns:rdf="http://www.w3.org/1999/02/22-rdf-syntax-ns#"
   xmlns:svg="http://www.w3.org/2000/svg"
   xmlns="http://www.w3.org/2000/svg"
   xmlns:xlink="http://www.w3.org/1999/xlink"
   xmlns:sodipodi="http://sodipodi.sourceforge.net/DTD/sodipodi-0.dtd"
   xmlns:inkscape="http://www.inkscape.org/namespaces/inkscape"
   width="200px"
   height="200px"
   viewBox="0 0 200 200"
   version="1.1"
   id="SVGRoot"
   inkscape:version="0.92.3 (2405546, 2018-03-11)"
   sodipodi:docname="f.svg">
  <sodipodi:namedview
     id="base"
     pagecolor="#ffffff"
     bordercolor="#666666"
     borderopacity="1.0"
     inkscape:pageopacity="0.0"
     inkscape:pageshadow="2"
     inkscape:zoom="2.56"
     inkscape:cx="100"
     inkscape:cy="100"
     inkscape:document-units="px"
     inkscape:current-layer="layer1"
     showgrid="false"
     inkscape:window-width="1366"
     inkscape:window-height="707"
     inkscape:window-x="0"
     inkscape:window-y="27"
     inkscape:window-maximized="1" />
  <defs
     id="defs2544">
    <radialGradient
       inkscape:collect="always"
       xlink:href="#linearGradient2469"
       id="radialGradient2477"
       cx="624.99432"
       cy="592.65833"
       fx="624.99432"
       fy="592.65833"
       r="104.79966"
       gradientTransform="matrix(0.85992953,0,0,0.93380065,-436.31794,-454.28127)"
       gradientUnits="userSpaceOnUse" />
    <linearGradient
       inkscape:collect="always"
       id="linearGradient2469">
      <stop
         style="stop-color:#000000;stop-opacity:1;"
         offset="0"
         id="stop2465" />
      <stop
         style="stop-color:#000000;stop-opacity:0;"
         offset="1"
         id="stop2467" />
    </linearGradient>
  </defs>
  <metadata
     id="metadata2547">
    <rdf:RDF>
      <cc:Work
         rdf:about="">
        <dc:format>image/svg+xml</dc:format>
        <dc:type
           rdf:resource="http://purl.org/dc/dcmitype/StillImage" />
        <dc:title></dc:title>
      </cc:Work>
    </rdf:RDF>
  </metadata>
  <g
     id="layer1"
     inkscape:groupmode="layer"
     inkscape:label="Camada 1">
    <path
       style="fill:#ff00ff;fill-opacity:1;stroke:url(#radialGradient2477);stroke-width:0.90564591;stroke-miterlimit:3.79999995;stroke-dasharray:none;stroke-opacity:1"
       d="m 92.66743,195.87641 c -1.841196,-0.42933 -4.747843,-1.36356 -6.45936,-2.07607 -5.19965,-2.16457 -54.093781,-29.93486 -58.74041,-33.36251 -5.743297,-4.23675 -10.753591,-10.67057 -13.151074,-16.88742 -2.735694,-7.0939 -2.621237,-5.26729 -2.7817,-44.379676 C 11.391364,64.190738 11.402887,63.564245 12.249917,60.296641 14.51308,51.565649 20.188013,43.515255 27.885671,38.11581 31.39255,35.655964 77.698551,8.5089089 82.224532,6.2595484 93.437067,0.68686954 105.11455,0.25008608 116.27387,4.9859577 c 4.14184,1.7577744 51.14076,28.3715683 56.67037,32.0904293 3.554,2.390182 8.10389,6.879462 10.53155,10.391147 2.69994,3.905628 4.36408,7.57622 5.68329,12.535674 l 1.04145,3.915474 0.3967,31.285951 c 0.48216,38.029267 0.3419,40.231097 -3.0985,48.641467 -2.29068,5.59992 -7.65062,12.26853 -12.85724,15.99655 -4.23885,3.03506 -48.9465,29.29768 -55.41498,32.55245 -6.01632,3.02723 -9.85135,3.95463 -17.03666,4.1199 -4.981575,0.11458 -6.821821,-0.009 -9.52242,-0.63859 z m 15.14645,-0.60172 c 3.68523,-0.70773 7.55362,-2.00873 10.84225,-3.64638 6.09535,-3.03541 52.10569,-30.12876 55.77949,-32.84596 8.95754,-6.62512 14.08848,-16.08728 15.18291,-27.99932 0.29256,-3.1846 0.32393,-14.61054 0.0971,-35.372576 l -0.3352,-30.668459 -1.08248,-4.116567 c -2.2391,-8.515401 -6.72998,-15.5184 -13.33158,-20.788693 C 171.80604,37.313684 158.36259,29.431243 128.91552,12.835257 112.75529,3.7275888 110.60296,2.9826494 100.54317,3.0153178 95.079609,3.0330284 93.405507,3.1899177 90.723473,3.9354164 84.665269,5.6193389 84.255255,5.8451312 40.167185,31.771232 34.356298,35.188412 28.096526,39.170349 26.256621,40.619984 20.71644,44.985279 16.252717,51.203576 14.074344,57.59114 c -2.293088,6.723634 -2.357239,8.021147 -2.051964,41.524233 0.153755,16.867647 0.451033,32.044537 0.66077,33.726437 1.515196,12.15202 7.228826,21.45101 17.260849,28.09227 1.924522,1.27402 12.113053,7.21538 22.641084,13.20301 28.361765,16.13004 30.993665,17.57532 34.477842,18.93275 6.660756,2.59508 14.423925,3.41994 20.750955,2.20485 z M 87.164397,125.48045 V 99.963277 l -5.248666,-0.115209 -5.248666,-0.11521 v -9.262292 -9.262291 l 5.208507,-0.114899 5.208507,-0.114918 0.178694,-8.941542 c 0.157367,-7.872698 0.285411,-9.232866 1.071214,-11.378596 1.902766,-5.195961 4.62943,-8.470194 8.811263,-10.58121 4.53647,-2.289974 6.49977,-2.576873 17.80596,-2.601923 l 10.29146,-0.02279 v 9.262284 9.262292 l -6.68071,0.205825 c -6.63092,0.204293 -6.68912,0.214328 -7.82148,1.34609 -1.13081,1.1303 -1.14199,1.194115 -1.27338,7.306907 l -0.13261,6.16668 h 7.82691 c 4.30471,0 7.92528,0.159255 8.0455,0.353912 0.32978,0.53358 -1.48742,17.475144 -1.93794,18.067749 -0.28498,0.374766 -2.22214,0.514574 -7.13002,0.514574 h -6.73884 l -0.10603,25.41981 -0.10603,25.41983 -11.011915,0.10964 -11.011728,0.10965 z m 21.505893,-0.94525 0.10611,-25.625659 6.88984,-0.11284 c 6.75122,-0.110571 6.89363,-0.131294 7.07506,-1.029148 0.29996,-1.483853 1.47754,-13.145993 1.47479,-14.603893 l -0.009,-1.33789 h -7.8214 -7.82159 v -6.401137 c 0,-9.69948 0.35842,-10.065156 9.86658,-10.065156 h 5.77641 v -8.707621 -8.70762 l -9.57102,0.245183 c -7.5065,0.192298 -10.19851,0.413402 -12.47965,1.024985 -3.876818,1.039361 -6.797057,2.686316 -9.068122,5.114301 -3.896771,4.165929 -5.107036,8.934831 -5.107036,20.123451 V 81.82577 H 82.63016 77.278561 v 8.438965 8.438985 h 4.700375 c 2.585206,0 4.993438,0.112429 5.351599,0.249867 0.584064,0.224135 0.651139,2.875073 0.651139,25.728573 v 25.4787 h 10.288364 10.288282 z"
       id="path66-3-7"
       inkscape:connector-curvature="0"
       sodipodi:nodetypes="ccssccccscccscscscccscccccssssscscssccccccccccccsscccscccsccsccccccccscccccsscccsccscccccscsccccc" />
  </g>
</svg>
