<?xml version="1.0" encoding="UTF-8" standalone="no"?>
<!-- Created with Inkscape (http://www.inkscape.org/) -->

<svg
   xmlns:dc="http://purl.org/dc/elements/1.1/"
   xmlns:cc="http://creativecommons.org/ns#"
   xmlns:rdf="http://www.w3.org/1999/02/22-rdf-syntax-ns#"
   xmlns:svg="http://www.w3.org/2000/svg"
   xmlns="http://www.w3.org/2000/svg"
   xmlns:xlink="http://www.w3.org/1999/xlink"
   xmlns:sodipodi="http://sodipodi.sourceforge.net/DTD/sodipodi-0.dtd"
   xmlns:inkscape="http://www.inkscape.org/namespaces/inkscape"
   width="200px"
   height="200px"
   viewBox="0 0 200 200"
   version="1.1"
   id="SVGRoot"
   inkscape:version="0.92.3 (2405546, 2018-03-11)"
   sodipodi:docname="in.svg">
  <sodipodi:namedview
     id="base"
     pagecolor="#ffffff"
     bordercolor="#666666"
     borderopacity="1.0"
     inkscape:pageopacity="0.0"
     inkscape:pageshadow="2"
     inkscape:zoom="2.565"
     inkscape:cx="100"
     inkscape:cy="100"
     inkscape:document-units="px"
     inkscape:current-layer="layer1"
     showgrid="false"
     inkscape:window-width="1366"
     inkscape:window-height="707"
     inkscape:window-x="0"
     inkscape:window-y="27"
     inkscape:window-maximized="1" />
  <defs
     id="defs2544">
    <radialGradient
       inkscape:collect="always"
       xlink:href="#linearGradient1162"
       id="radialGradient1172"
       cx="407.8844"
       cy="494.71582"
       fx="407.8844"
       fy="494.71582"
       r="105.02316"
       gradientTransform="matrix(0.85685681,0,0,0.92848387,-249.51812,-359.12978)"
       gradientUnits="userSpaceOnUse" />
    <linearGradient
       inkscape:collect="always"
       id="linearGradient1162">
      <stop
         style="stop-color:#000000;stop-opacity:1;"
         offset="0"
         id="stop1158" />
      <stop
         style="stop-color:#000000;stop-opacity:0;"
         offset="1"
         id="stop1160" />
    </linearGradient>
  </defs>
  <metadata
     id="metadata2547">
    <rdf:RDF>
      <cc:Work
         rdf:about="">
        <dc:format>image/svg+xml</dc:format>
        <dc:type
           rdf:resource="http://purl.org/dc/dcmitype/StillImage" />
        <dc:title />
      </cc:Work>
    </rdf:RDF>
  </metadata>
  <g
     id="layer1"
     inkscape:groupmode="layer"
     inkscape:label="Camada 1">
    <path
       style="fill:#ff00ff;fill-opacity:1;stroke:url(#radialGradient1172);stroke-width:0.90240985;stroke-miterlimit:3.79999995;stroke-dasharray:none;stroke-opacity:0.20952382"
       d="m 91.736439,196.59318 c -1.834616,-0.4278 -4.730963,-1.35869 -6.436365,-2.06865 C 80.119089,192.36768 31.399582,164.69664 26.769642,161.28122 19.237357,155.72475 13.87112,147.54785 11.76728,138.42091 10.929102,134.78461 10.280376,106.5793 10.477282,82.334772 10.614207,65.479567 10.661763,64.551685 11.549295,61.427543 14.093732,52.470878 19.593466,44.72204 27.186161,39.396289 30.680508,36.945225 76.821048,9.895181 81.330684,7.6538577 92.503155,2.1010744 104.13902,1.6658508 115.25844,6.3848187 c 4.12706,1.7514919 50.95796,28.2701903 56.46789,31.9757533 3.54131,2.38165 8.07503,6.854889 10.49394,10.354027 2.69035,3.891671 4.34846,7.549147 5.66297,12.490881 l 1.03773,3.901483 0.39527,31.174157 c 0.48052,37.89338 0.34076,40.08734 -3.08735,48.46768 -2.28257,5.5799 -7.62337,12.22468 -12.81138,15.93938 -4.2237,3.02421 -48.77151,29.19298 -55.21696,32.43613 -5.99483,3.01641 -9.81615,3.94051 -16.97579,4.10518 -4.963857,0.11417 -6.797362,-0.009 -9.488321,-0.63631 z m 15.092251,-0.59956 c 3.67214,-0.70521 7.52672,-2.00156 10.80351,-3.63337 6.07357,-3.02456 51.91952,-30.02109 55.58026,-32.72858 8.92554,-6.60144 14.03807,-16.02982 15.12858,-27.89929 0.29151,-3.17322 0.3227,-14.55833 0.0967,-35.246174 l -0.33401,-30.558871 -1.07852,-4.101859 C 184.79409,53.340494 180.31915,46.362526 173.74132,41.111065 170.5922,38.597022 157.19679,30.742755 127.85493,14.20607 111.75244,5.1309449 109.60782,4.3886585 99.58405,4.4212108 c -5.444213,0.017656 -7.112256,0.1739761 -9.784707,0.9168107 -6.03647,1.6779147 -6.445106,1.9028907 -50.375554,27.7363525 -5.790295,3.404969 -12.027698,7.372678 -13.860859,8.817142 -5.520471,4.349688 -9.968157,10.545765 -12.138832,16.910506 -2.284894,6.699609 -2.34873,7.992494 -2.044546,41.375868 0.15312,16.80737 0.449421,31.93004 0.658409,33.60593 1.509781,12.1086 7.202994,21.37436 17.199172,27.99187 1.91756,1.26948 12.069685,7.18962 22.560182,13.15585 28.260337,16.0724 30.882919,17.51253 34.35456,18.86509 6.637042,2.58581 14.372315,3.40772 20.676815,2.19699 z M 52.396258,146.42638 c -0.107707,-0.282 -0.148065,-14.44881 -0.08972,-31.48179 l 0.105994,-30.969075 10.767434,-0.109352 10.767348,-0.109361 v 31.591158 31.59116 H 63.269686 c -8.164389,0 -10.723821,-0.12069 -10.873428,-0.51274 z m 20.730708,-31.0716 V 84.590798 H 63.282538 53.43811 v 30.763982 30.76397 h 9.844428 9.844428 z m 11.765415,31.31764 C 84.738318,146.5183 84.612189,132.29924 84.612189,115.0745 V 83.756802 l 10.767349,0.109361 10.767442,0.109352 0.11995,3.434531 0.12005,3.434539 2.75128,-2.656117 c 2.88427,-2.784444 4.55316,-3.805003 8.2888,-5.068799 3.10251,-1.049564 10.68123,-1.057961 14.15142,-0.01568 7.88574,2.368532 13.20717,7.966564 15.8468,16.670401 0.90912,2.99789 0.93422,3.58563 1.07621,25.12406 l 0.14541,22.05436 -10.79022,-0.10939 -10.79024,-0.10941 -0.22559,-19.48384 c -0.15733,-13.59059 -0.37565,-19.93204 -0.72149,-20.96561 -0.83953,-2.50845 -2.84168,-4.8745 -4.89248,-5.78166 -1.50576,-0.666088 -2.47177,-0.796288 -4.79128,-0.645807 -1.59795,0.103671 -3.48552,0.489747 -4.19483,0.857947 -1.76041,0.91386 -3.68732,2.90882 -4.77655,4.9452 -0.8907,1.6654 -0.91075,2.04982 -1.11212,21.38483 l -0.20512,19.68894 -10.487079,0.10932 c -5.768017,0.0601 -10.613286,-0.0168 -10.76752,-0.17091 z m 20.639369,-19.76691 v -19.21325 l 1.25435,-2.51019 c 2.11575,-4.23404 5.51268,-6.348704 10.22042,-6.362583 6.32874,-0.01869 9.68728,3.517243 10.65253,11.215293 0.23864,1.90327 0.43288,10.77423 0.43288,19.76831 v 16.31566 h 9.87099 9.87099 l -0.15569,-21.22715 c -0.173,-23.59694 -0.15886,-23.46103 -3.08006,-29.635951 -1.03945,-2.197401 -2.22842,-3.84858 -4.16107,-5.778977 -4.31864,-4.31357 -9.35088,-6.268652 -16.03684,-6.230487 -6.81973,0.03891 -10.64199,1.624214 -15.26045,6.32917 -1.73796,1.770541 -3.26085,3.219182 -3.38398,3.219182 -0.12331,0 -0.22407,-1.845845 -0.22407,-4.101871 V 84.590798 H 95.482103 85.432543 v 30.763982 30.76397 h 10.04956 10.049647 z M 59.505685,75.837167 c -5.141398,-1.451079 -8.227197,-5.551653 -8.229167,-10.935301 0,-3.372674 1.167896,-5.97967 3.669061,-8.181278 2.352928,-2.071168 4.837471,-2.894753 8.717661,-2.88974 7.018771,0.0091 11.700122,4.522498 11.695667,11.276115 -0.0085,4.638988 -2.333564,8.219082 -6.578261,10.1057 -2.263559,1.006078 -6.832919,1.313733 -9.274961,0.624504 z m 8.243905,-1.280033 c 2.604331,-0.918893 4.427379,-2.540503 5.638203,-5.015217 1.29968,-2.65647 1.446888,-5.982977 0.378303,-8.547627 -2.117551,-5.081984 -8.555287,-7.601802 -14.508899,-5.678981 -5.452009,1.760789 -8.198492,7.202806 -6.597712,13.073142 0.548132,2.010443 4.040508,5.567838 6.114101,6.228166 2.09373,0.666703 7.010031,0.634116 8.976004,-0.05947 z"
       id="path66-5-7"
       inkscape:connector-curvature="0"
       sodipodi:nodetypes="cssssssscscccccscscscccccccsssssssssscscscccccscccccccccccscccccccccscccccccccscsccscscsccccccscssccccccccssssccsscssccscc" />
  </g>
</svg>
