<?xml version="1.0" encoding="UTF-8" standalone="no"?>
<!-- Created with Inkscape (http://www.inkscape.org/) -->

<svg
   xmlns:dc="http://purl.org/dc/elements/1.1/"
   xmlns:cc="http://creativecommons.org/ns#"
   xmlns:rdf="http://www.w3.org/1999/02/22-rdf-syntax-ns#"
   xmlns:svg="http://www.w3.org/2000/svg"
   xmlns="http://www.w3.org/2000/svg"
   xmlns:xlink="http://www.w3.org/1999/xlink"
   xmlns:sodipodi="http://sodipodi.sourceforge.net/DTD/sodipodi-0.dtd"
   xmlns:inkscape="http://www.inkscape.org/namespaces/inkscape"
   width="200px"
   height="200px"
   viewBox="0 0 200 200"
   version="1.1"
   id="SVGRoot"
   inkscape:version="0.92.3 (2405546, 2018-03-11)"
   sodipodi:docname="in.svg">
  <sodipodi:namedview
     id="base"
     pagecolor="#ffffff"
     bordercolor="#666666"
     borderopacity="1.0"
     inkscape:pageopacity="0.0"
     inkscape:pageshadow="2"
     inkscape:zoom="2.56"
     inkscape:cx="100"
     inkscape:cy="100"
     inkscape:document-units="px"
     inkscape:current-layer="layer1"
     showgrid="false"
     inkscape:window-width="1366"
     inkscape:window-height="707"
     inkscape:window-x="0"
     inkscape:window-y="27"
     inkscape:window-maximized="1" />
  <defs
     id="defs2544">
    <radialGradient
       inkscape:collect="always"
       xlink:href="#linearGradient2469"
       id="radialGradient2475"
       cx="854.08948"
       cy="585.05182"
       fx="854.08948"
       fy="585.05182"
       r="105.02316"
       gradientTransform="matrix(0.86967154,0,0,0.94236982,-641.27727,-451.87849)"
       gradientUnits="userSpaceOnUse" />
    <linearGradient
       inkscape:collect="always"
       id="linearGradient2469">
      <stop
         style="stop-color:#000000;stop-opacity:1;"
         offset="0"
         id="stop2465" />
      <stop
         style="stop-color:#000000;stop-opacity:0;"
         offset="1"
         id="stop2467" />
    </linearGradient>
  </defs>
  <metadata
     id="metadata2547">
    <rdf:RDF>
      <cc:Work
         rdf:about="">
        <dc:format>image/svg+xml</dc:format>
        <dc:type
           rdf:resource="http://purl.org/dc/dcmitype/StillImage" />
        <dc:title></dc:title>
      </cc:Work>
    </rdf:RDF>
  </metadata>
  <g
     id="layer1"
     inkscape:groupmode="layer"
     inkscape:label="Camada 1">
    <path
       style="fill:#ff00ff;fill-opacity:1;stroke:url(#radialGradient2475);stroke-width:0.91590589;stroke-miterlimit:3.79999995;stroke-dasharray:none;stroke-opacity:1"
       d="m 93.132756,197.28552 c -1.862054,-0.4342 -4.801717,-1.37903 -6.532625,-2.0996 C 81.341662,192.99682 31.893529,164.91193 27.194346,161.44544 19.549411,155.80587 14.10292,147.50668 11.967615,138.24324 11.116902,134.55256 10.458474,105.92542 10.658324,81.318301 10.797298,64.211008 10.845564,63.26925 11.746371,60.098384 14.32886,51.007767 19.910846,43.14304 27.617093,37.73764 31.1637,35.249919 77.994296,7.7953257 82.571378,5.520482 c 11.33956,-5.63581926 23.149452,-6.0775515 34.435182,-1.2880186 4.18878,1.7776872 51.72006,28.6929876 57.3124,32.4539696 3.59425,2.41727 8.19577,6.957408 10.65086,10.508877 2.73059,3.949875 4.4135,7.66205 5.74767,12.67769 l 1.05325,3.959832 0.40117,31.640393 c 0.48772,38.460095 0.34587,40.686865 -3.13351,49.192535 -2.31672,5.66336 -7.73738,12.40752 -13.00298,16.17777 -4.28688,3.06943 -49.50093,29.62958 -56.04277,32.92122 -6.08447,3.06153 -9.96295,3.99945 -17.22967,4.16659 -5.038089,0.11587 -6.89902,-0.009 -9.630224,-0.64582 z m 15.317964,-0.60855 c 3.72706,-0.71573 7.63928,-2.03148 10.96509,-3.68769 6.1644,-3.06981 52.69601,-30.47008 56.41149,-33.21807 9.05902,-6.70016 14.24801,-16.26954 15.35484,-28.31653 0.29586,-3.22068 0.32751,-14.77604 0.0981,-35.773304 l -0.339,-31.015903 -1.09465,-4.163205 c -2.26444,-8.61188 -6.80632,-15.694206 -13.48252,-21.024206 -3.19622,-2.551642 -16.79196,-10.523374 -46.57265,-27.307375 -16.3433,-9.2108489 -18.52,-9.9642273 -28.69368,-9.9311885 -5.525642,0.017915 -7.218631,0.1765775 -9.93105,0.9305133 -6.126749,1.703009 -6.541496,1.9313496 -51.128947,28.1511652 -5.876893,3.455892 -12.20758,7.482942 -14.068155,8.949008 -5.603034,4.41474 -10.117238,10.703483 -12.320376,17.163412 -2.319067,6.799806 -2.383857,8.112027 -2.075124,41.994674 0.15541,17.058739 0.456143,32.407569 0.668256,34.108519 1.532362,12.28969 7.310719,21.69403 17.456395,28.41052 1.946238,1.28845 12.250194,7.29713 22.897581,13.35259 28.682987,16.31278 31.34479,17.77444 34.868352,19.14724 6.736302,2.62447 14.587268,3.45867 20.986048,2.22983 z M 53.204221,146.36843 c -0.109318,-0.28622 -0.15028,-14.66489 -0.09106,-31.9526 l 0.107579,-31.432251 10.928467,-0.110986 10.92838,-0.110997 v 32.063634 32.06362 H 64.240265 c -8.286492,0 -10.884201,-0.1225 -11.036045,-0.52041 z M 74.244968,114.83214 V 83.608063 h -9.991657 -9.991657 v 31.224077 31.22405 h 9.991657 9.991657 z m 11.941374,31.78602 c -0.156367,-0.15642 -0.284383,-14.58814 -0.284383,-32.07048 V 82.761596 l 10.92838,0.110997 10.928481,0.110986 0.12175,3.485899 0.12183,3.48591 2.79243,-2.695852 c 2.9274,-2.826079 4.62126,-3.861907 8.41277,-5.144595 3.14891,-1.065272 10.84098,-1.073797 14.36307,-0.01594 8.00366,2.403957 13.40467,8.085703 16.08378,16.919715 0.92273,3.042724 0.9482,3.639254 1.09231,25.499814 l 0.14758,22.38419 -10.95159,-0.11103 -10.95161,-0.11104 -0.22898,-19.77524 c -0.15967,-13.79385 -0.38127,-20.23014 -0.73226,-21.27916 -0.85212,-2.54596 -2.88419,-4.9474 -4.96566,-5.868125 -1.52827,-0.676048 -2.50874,-0.808209 -4.86294,-0.655459 -1.62185,0.105217 -3.53765,0.497063 -4.25756,0.870757 -1.78674,0.927547 -3.74245,2.952327 -4.84799,5.019167 -0.90402,1.69031 -0.92437,2.08048 -1.12874,21.70465 l -0.2082,19.98341 -10.643915,0.11095 c -5.85428,0.0611 -10.772012,-0.0171 -10.928553,-0.17347 z m 20.948038,-20.06255 v -19.50058 l 1.27312,-2.54774 c 2.14739,-4.29736 5.59513,-6.443641 10.37327,-6.457731 6.4234,-0.01892 9.83216,3.569861 10.81183,11.383011 0.24221,1.93174 0.43937,10.93539 0.43937,20.06396 v 16.55966 h 10.01863 10.01861 l -0.15802,-21.5446 c -0.17559,-23.94984 -0.16124,-23.8119 -3.12612,-30.07917 -1.055,-2.230279 -2.26175,-3.90614 -4.22332,-5.865411 -4.38323,-4.378078 -9.49071,-6.362401 -16.27667,-6.323661 -6.92171,0.03949 -10.80116,1.648505 -15.48867,6.423818 -1.76396,1.797029 -3.30962,3.267331 -3.43459,3.267331 -0.12515,0 -0.22744,-1.87345 -0.22744,-4.163212 V 83.608063 H 96.934439 86.734583 v 31.224067 31.22406 H 96.934439 107.13438 Z M 60.419973,74.723512 c -5.218291,-1.47278 -8.350239,-5.634681 -8.352239,-11.098844 0,-3.423115 1.185362,-6.069099 3.723933,-8.303633 2.388119,-2.102145 4.909819,-2.938047 8.848039,-2.93296 7.123741,0.0093 11.875105,4.590135 11.870582,11.444757 -0.0087,4.708367 -2.368463,8.342003 -6.676642,10.256837 -2.297411,1.021125 -6.935109,1.33338 -9.413673,0.633843 z m 8.367197,-1.299177 c 2.64328,-0.932636 4.493594,-2.578498 5.722526,-5.090222 1.319118,-2.696199 1.468527,-6.072456 0.38396,-8.675461 -2.149219,-5.157988 -8.683236,-7.715492 -14.725888,-5.763914 -5.533547,1.787123 -8.321105,7.310529 -6.696384,13.268658 0.556329,2.04051 4.100937,5.651108 6.205542,6.321312 2.125042,0.676673 7.114869,0.643601 9.110244,-0.06036 z"
       id="path66-5"
       inkscape:connector-curvature="0"
       sodipodi:nodetypes="cssssssscscccccscscscccccccsssssssssscscscccccscccccccccccscccccccccscccccccccscsccscscsccccccscssccccccccssssccsscssccscc" />
  </g>
</svg>
