<?xml version="1.0" encoding="UTF-8" standalone="no"?>
<!-- Created with Inkscape (http://www.inkscape.org/) -->

<svg
   xmlns:osb="http://www.openswatchbook.org/uri/2009/osb"
   xmlns:dc="http://purl.org/dc/elements/1.1/"
   xmlns:cc="http://creativecommons.org/ns#"
   xmlns:rdf="http://www.w3.org/1999/02/22-rdf-syntax-ns#"
   xmlns:svg="http://www.w3.org/2000/svg"
   xmlns="http://www.w3.org/2000/svg"
   xmlns:sodipodi="http://sodipodi.sourceforge.net/DTD/sodipodi-0.dtd"
   xmlns:inkscape="http://www.inkscape.org/namespaces/inkscape"
   width="200px"
   height="200px"
   viewBox="0 0 200 200"
   version="1.1"
   id="SVGRoot"
   inkscape:version="0.92.3 (2405546, 2018-03-11)"
   sodipodi:docname="insta.svg">
  <sodipodi:namedview
     id="base"
     pagecolor="#ffffff"
     bordercolor="#666666"
     borderopacity="1.0"
     inkscape:pageopacity="0.0"
     inkscape:pageshadow="2"
     inkscape:zoom="2.565"
     inkscape:cx="150.40173"
     inkscape:cy="63.656925"
     inkscape:document-units="px"
     inkscape:current-layer="layer1"
     showgrid="false"
     inkscape:window-width="1366"
     inkscape:window-height="715"
     inkscape:window-x="-8"
     inkscape:window-y="-8"
     inkscape:window-maximized="1" />
  <defs
     id="defs2544">
    <linearGradient
       id="linearGradient1063"
       osb:paint="solid">
      <stop
         style="stop-color:#801fb4;stop-opacity:1;"
         offset="0"
         id="stop1061" />
    </linearGradient>
    <linearGradient
       id="linearGradient971"
       osb:paint="solid">
      <stop
         style="stop-color:#801fb4;stop-opacity:1;"
         offset="0"
         id="stop969" />
    </linearGradient>
  </defs>
  <metadata
     id="metadata2547">
    <rdf:RDF>
      <cc:Work
         rdf:about="">
        <dc:format>image/svg+xml</dc:format>
        <dc:type
           rdf:resource="http://purl.org/dc/dcmitype/StillImage" />
        <dc:title />
      </cc:Work>
    </rdf:RDF>
  </metadata>
  <g
     id="layer1"
     inkscape:groupmode="layer"
     inkscape:label="Camada 1">
    <path
       style="fill:#ff00ff;stroke:#ff00ff;stroke-width:0.89441442;stroke-miterlimit:3.79999995;stroke-dasharray:none;stroke-opacity:1"
       d="m 90.618274,194.9485 c -1.818281,-0.42401 -4.689052,-1.34666 -6.379347,-2.05032 C 79.103851,190.76043 30.815993,163.33455 26.22716,159.94941 18.761526,154.44217 13.442834,146.33773 11.357635,137.29164 10.526969,133.68755 9.8839051,105.73215 10.079066,81.702436 10.214864,64.996556 10.261998,64.076896 11.141581,60.980433 13.663473,52.103126 19.114566,44.422942 26.639903,39.144392 30.10329,36.715043 75.835031,9.9046565 80.304797,7.6831909 91.378274,2.1796222 102.91104,1.748256 113.93195,6.4254039 c 4.09048,1.7359662 50.50646,28.0197071 55.96757,31.6924461 3.50985,2.36055 8.00339,6.794142 10.40095,10.262277 2.66644,3.857191 4.30994,7.482262 5.61279,12.38022 l 1.02854,3.866905 0.39178,30.89795 c 0.47626,37.557648 0.33774,39.732168 -3.06008,48.038258 -2.26227,5.53048 -7.55574,12.11637 -12.69778,15.79815 -4.18628,2.99742 -48.33948,28.93434 -54.72782,32.14874 -5.94163,2.9897 -9.72918,3.9056 -16.82538,4.06882 -4.919803,0.11316 -6.737131,-0.009 -9.404246,-0.63067 z m 14.958606,-0.59426 c 3.63952,-0.69896 7.46003,-1.98382 10.70771,-3.60116 6.01984,-2.99776 51.45958,-29.75512 55.08781,-32.43861 8.84646,-6.54295 13.91377,-15.88779 14.99463,-27.6521 0.28892,-3.1451 0.31983,-14.42934 0.0958,-34.933898 l -0.33104,-30.288111 -1.06897,-4.06552 C 182.8515,52.965045 178.41621,46.048894 171.89657,40.843966 168.77543,38.352205 155.49863,30.567511 126.41674,14.177351 110.45701,5.1826319 108.3313,4.446931 98.396338,4.4791945 93.000456,4.4966915 91.347114,4.651629 88.698337,5.3878828 82.715351,7.0509304 82.310336,7.2739136 38.769105,32.878489 c -5.738907,3.374792 -11.921048,7.307355 -13.73805,8.739013 -5.47156,4.311145 -9.87984,10.452333 -12.031282,16.760673 -2.264565,6.640259 -2.327919,7.921671 -2.026431,41.009276 0.151849,16.658459 0.445524,31.647149 0.652576,33.308169 1.496404,12.00132 7.139175,21.18499 17.0467,27.74388 1.900656,1.25822 11.962832,7.1259 22.360477,13.03927 28.009865,15.93001 30.609209,17.35737 34.050092,18.69796 6.578234,2.5629 14.245048,3.37752 20.493693,2.17751 z M 55.155257,151.36617 c -3.289798,-0.94671 -6.746221,-4.17577 -8.02862,-7.50048 -0.736737,-1.90992 -0.768925,-3.78457 -0.768925,-44.681519 V 56.496212 l 1.130126,-2.301304 c 1.301414,-2.650131 3.643941,-4.933227 6.341292,-6.180449 l 1.879253,-0.868943 h 42.891275 42.891192 l 2.14261,0.968332 c 2.87918,1.301253 5.97186,4.699017 6.7926,7.46278 0.53657,1.80665 0.61877,7.663725 0.61877,44.072629 0,41.572833 -0.008,42.011563 -0.84816,44.256113 -1.1319,3.02523 -4.05396,5.9472 -7.07914,7.07908 -2.24723,0.84079 -2.63561,0.84788 -44.431593,0.81153 -25.821806,-0.0224 -42.694069,-0.18904 -43.53068,-0.42981 z m 86.940273,-0.99258 c 1.66473,-0.49437 2.72479,-1.19547 4.51656,-2.98729 3.90764,-3.9077 3.65489,-0.40789 3.52717,-48.846131 l -0.11083,-42.043957 -1.08171,-2.032757 c -1.3494,-2.535889 -3.25582,-4.384696 -5.62638,-5.45652 -1.80205,-0.814776 -2.46635,-0.827278 -44.314142,-0.833842 -27.883145,-0.0043 -43.002185,0.137055 -43.99039,0.411502 -2.335309,0.64861 -5.354022,3.277153 -6.573142,5.723579 l -1.06863,2.144412 0.0093,42.913047 c 0.0085,40.845327 0.04501,42.992687 0.759668,44.565827 1.48978,3.27991 4.57584,5.87608 7.972306,6.70662 0.670834,0.16403 19.801462,0.31695 42.512494,0.33986 36.627956,0.0369 41.538666,-0.0313 43.468106,-0.60435 z M 59.73322,138.25381 58.350956,136.87154 V 114.06397 91.256403 h 4.926077 4.925906 l -0.27652,1.118015 c -0.152103,0.614922 -0.377328,3.327469 -0.500642,6.027894 -0.255544,5.597648 0.504888,9.602248 2.723593,14.343568 7.876254,16.83118 28.547947,23.25366 44.57631,13.84936 3.05353,-1.79159 9.29019,-8.02819 11.08179,-11.08171 3.34195,-5.69601 4.99725,-13.47214 4.15333,-19.511547 -0.73011,-5.225008 -1.15559,-4.74558 4.21211,-4.74558 h 4.67537 v 23.001467 23.00146 l -1.18846,1.18838 -1.18838,1.18839 H 98.793454 61.115569 Z m 76.40854,0.11779 c 0.54489,-0.24826 1.19381,-0.89718 1.44197,-1.44205 0.31304,-0.68695 0.45138,-7.71577 0.45138,-22.92536 V 92.069513 h -3.86696 -3.86712 l 0.30972,1.727845 c 0.55499,3.09595 0.31432,10.890682 -0.42098,13.638432 -2.45837,9.18596 -9.18599,17.32129 -17.5966,21.2784 -4.32531,2.03499 -7.27293,2.79137 -11.9608,3.06919 -9.826153,0.58232 -17.826743,-2.54882 -25.017978,-9.79116 -4.192398,-4.22229 -6.822317,-8.71958 -8.345389,-14.2712 -0.944637,-3.44315 -1.251986,-9.631311 -0.671344,-13.517113 l 0.318899,-2.134394 h -3.886321 -3.886322 l 0.111763,22.395757 0.111679,22.39574 1.140647,0.981 1.140733,0.98098 h 36.751171 c 26.068192,0 37.039082,-0.13121 37.741852,-0.45139 z m -43.256206,-19.423 c -5.460686,-1.74749 -10.194152,-5.79647 -12.513156,-10.7037 -5.229773,-11.066751 0.188197,-24.065493 11.679263,-28.020856 10.960009,-3.772603 22.903139,2.534533 26.226999,13.850375 0.73682,2.508659 0.84951,7.569731 0.22234,9.988381 -1.96385,7.57367 -7.65239,13.26219 -15.22605,15.22604 -2.51681,0.65259 -7.830742,0.47857 -10.389396,-0.34024 z m 10.148286,-0.67266 c 8.59185,-2.02526 15.09943,-10.08466 15.0742,-18.669 -0.0348,-11.88231 -10.68426,-21.128623 -22.252616,-19.320729 -16.19403,2.530791 -22.273663,22.660259 -10.139108,33.570209 4.795201,4.31132 11.028201,5.90202 17.317524,4.41952 z m 17.26777,-39.179334 c -1.84817,-1.126971 -2.18754,-2.626198 -2.18754,-9.664447 0,-10.128379 0.16977,-10.293357 10.58915,-10.293357 7.5587,0 8.77876,0.291969 9.70378,2.322358 0.26336,0.577746 0.44128,3.82258 0.44128,8.04472 0,4.22214 -0.17792,7.466972 -0.44128,8.044719 -0.92731,2.035325 -2.13803,2.32248 -9.78531,2.320836 -6.21373,-8.52e-4 -7.20262,-0.09342 -8.32008,-0.774829 z m 16.75328,-1.380713 c 0.95466,-1.110925 0.98022,-1.325251 0.98022,-8.210013 0,-6.884616 -0.0255,-7.099123 -0.98014,-8.210012 l -0.98022,-1.140691 -6.43938,-0.133555 c -7.01103,-0.145412 -9.15601,0.213692 -9.99008,1.672466 -0.57758,1.01009 -0.74234,13.097326 -0.20467,15.01781 0.57937,2.069934 1.79229,2.353903 9.58481,2.244042 l 7.04915,-0.0994 z"
       id="path66-3"
       inkscape:connector-curvature="0"
       sodipodi:nodetypes="ccccscsccscccccscscscccccccsscsscscssssccsccccccccsccscccscccscccsccscccccccccccscscccccccccsscccsccsccccccccccscsssccssscscsccscscccccccscssccc" />
  </g>
</svg>
