<?xml version="1.0" encoding="UTF-8" standalone="no"?>
<!-- Created with Inkscape (http://www.inkscape.org/) -->

<svg
   xmlns:dc="http://purl.org/dc/elements/1.1/"
   xmlns:cc="http://creativecommons.org/ns#"
   xmlns:rdf="http://www.w3.org/1999/02/22-rdf-syntax-ns#"
   xmlns:svg="http://www.w3.org/2000/svg"
   xmlns="http://www.w3.org/2000/svg"
   xmlns:sodipodi="http://sodipodi.sourceforge.net/DTD/sodipodi-0.dtd"
   xmlns:inkscape="http://www.inkscape.org/namespaces/inkscape"
   version="1.1"
   id="svg3713"
   width="794"
   height="317"
   viewBox="0 0 794 317"
   sodipodi:docname="logoanimacao.svg"
   inkscape:version="0.92.3 (2405546, 2018-03-11)">
  <metadata
     id="metadata3719">
    <rdf:RDF>
      <cc:Work
         rdf:about="">
        <dc:format>image/svg+xml</dc:format>
        <dc:type
           rdf:resource="http://purl.org/dc/dcmitype/StillImage" />
        <dc:title />
      </cc:Work>
    </rdf:RDF>
  </metadata>
  <defs
     id="defs3717" />
  <sodipodi:namedview
     pagecolor="#ffffff"
     bordercolor="#666666"
     borderopacity="1"
     objecttolerance="10"
     gridtolerance="10"
     guidetolerance="10"
     inkscape:pageopacity="0"
     inkscape:pageshadow="2"
     inkscape:window-width="1366"
     inkscape:window-height="715"
     id="namedview3715"
     showgrid="false"
     inkscape:zoom="0.53923571"
     inkscape:cx="658.44889"
     inkscape:cy="197.95932"
     inkscape:window-x="-8"
     inkscape:window-y="-8"
     inkscape:window-maximized="1"
     inkscape:current-layer="svg3713" />
  <path
     style="fill:#ffffff"
     d="M -8.3855e-4,158.50003 V 3.45e-5 H 396.99917 793.99916 v 158.4999955 158.5 h -397 H -8.3855e-4 Z M 441.19994,294.93231 c 17.79411,-3.58524 30.83205,-14.60681 36.89218,-31.1866 2.52822,-6.91691 2.45548,-9.36899 -0.29929,-10.08939 -1.21348,-0.31733 -2.24516,-0.48231 -2.29262,-0.36662 -1.45137,3.53748 -5.64666,10.87689 -7.6796,13.435 -4.0443,5.0891 -7.35244,7.33263 -13.01449,8.82626 -5.8793,1.55092 -6.78778,1.38735 -30.80696,-5.54701 -10.68445,-3.08462 -23.48785,-2.59716 -30.74304,1.17045 -5.84416,3.03485 -5.80949,3.19366 -1.35492,-6.20592 5.39097,-11.37546 21.09279,-26.47366 42.09102,-40.47291 9.33623,-6.22434 10.73255,-7.34954 19.84981,-15.99553 13.99995,-13.2763 19.39373,-24.08104 19.47295,-39.00796 0.0435,-8.18708 -0.2474,-9.60763 -3.19175,-15.58844 -5.29098,-10.74751 -16.52396,-20.3793 -27.62407,-23.68643 -11.38785,-3.39285 -21.29534,-3.42834 -32.5,-0.11643 -14.91909,4.40984 -28.51622,17.19236 -33.32384,31.3274 -2.2492,6.61296 -2.25396,21.51984 -0.009,28.10854 2.28225,6.69803 9.32555,13.6414 15.62761,15.40587 5.69594,1.59477 17.1843,0.90225 21.38018,-1.2888 3.96291,-2.0694 7.94624,-6.50098 9.77196,-10.87163 1.93161,-4.62415 2.05174,-15.71786 0.19766,-18.25347 -2.04928,-2.80256 -4.28527,-1.24439 -4.91122,3.42243 -1.80973,13.49251 -18.88144,18.78356 -28.06624,8.69861 -4.3037,-4.72554 -5.66711,-9.01599 -5.66711,-17.83375 0,-9.99617 2.91252,-16.76419 9.9056,-23.01831 6.30277,-5.63675 12.68779,-7.79764 23.04054,-7.79764 6.63788,0 9.16863,0.46878 13.44025,2.48958 5.43296,2.5702 12.60688,9.38729 16.32229,15.51042 2.63132,4.33651 5.29132,14.3907 5.29132,20 0,6.09113 -2.68279,15.66332 -6.16592,22 -3.57981,6.51257 -14.95241,17.91996 -23.34922,23.42064 -8.46603,5.54603 -29.36771,26.8062 -35.3231,35.92895 -5.48876,8.40793 -9.78473,18.72292 -10.68284,25.65041 -0.32087,2.47501 -0.80528,5.9625 -1.07647,7.75 -0.43747,2.88351 -0.22843,3.25 1.85377,3.25 1.86469,0 2.77645,-1.01684 4.43789,-4.94937 2.62406,-6.21096 6.88112,-9.04165 13.60555,-9.04689 5.46967,-0.004 8.54571,1.35421 14.68984,6.48749 5.94705,4.96862 13.53592,7.91837 24.21128,9.4108 0.38543,0.0539 3.08543,-0.3825 6,-0.96975 z m 148.29922,-0.87762 c 16.67873,-1.63932 28.54158,-5.089 41.6417,-12.10932 2.00292,-1.07336 4.81447,-2.56001 6.24785,-3.30366 3.79608,-1.96942 18.59708,-13.01263 18.6043,-13.8809 0.003,-0.40656 -3.03135,1.12899 -6.74385,3.41235 -25.1358,15.45973 -50.091,21.49609 -78.43229,18.97186 -11.36027,-1.01182 -20.716,-3.19485 -28.3177,-6.6076 -1.65,-0.74074 -4.75007,-2.06788 -6.88905,-2.94918 -16.26261,-6.70047 -35.57454,-28.28185 -39.84175,-44.52377 -3.11632,-11.86138 -3.93226,-20.59701 -2.76141,-29.56444 1.49998,-11.48828 7.00827,-28.5 9.22811,-28.5 0.42026,0 0.7641,-0.488 0.7641,-1.08445 0,-2.52572 10.02719,-13.54045 17.3489,-19.05752 14.20167,-10.70128 27.89575,-16.10852 49.08235,-19.38064 11.42199,-1.76405 22.22433,-0.82537 31.34633,2.72386 8.17368,3.18026 9.22695,5.14782 9.19856,17.18361 -0.0131,5.56333 -0.41573,11.80264 -0.89469,13.86514 -0.47895,2.0625 -0.48861,3.75 -0.0215,3.75 0.46715,0 1.12948,-1.6875 1.47182,-3.75 0.34235,-2.0625 1.03774,-5.05465 1.54532,-6.64922 1.48901,-4.67782 1.14905,-20.83283 -0.48757,-23.16943 -1.85997,-2.65549 -10.64599,-7.03779 -17.88836,-8.9224 -3.40063,-0.8849 -10.01762,-1.49442 -16,-1.47382 -9.308,0.032 -13.17133,0.6038 -26.70121,3.95158 -4.60318,1.139 -21.19484,9.11888 -23.49803,11.30156 -0.70325,0.66645 -3.60938,3.01173 -6.45806,5.21173 -4.31347,3.33123 -8.61704,7.92498 -17.10797,18.26148 -2.07698,2.52843 -7.69418,13.88935 -9.75936,19.73852 -1.16514,3.3 -2.87241,11.28758 -3.79395,17.75018 -1.57294,11.03091 -1.571,12.4082 0.0317,22.5 6.80595,42.85404 49.18051,71.20956 99.08561,66.30448 z M 202.87025,227.9928 c 11.41749,-0.88772 20.52486,-2.39002 30.62891,-5.05237 2.2,-0.57968 5.575,-1.45562 7.5,-1.94653 12.33736,-3.14622 38.15728,-15.91414 57.15957,-28.26534 11.59141,-7.53426 31.73574,-21.66315 34.47877,-24.18286 0.62608,-0.57511 3.32609,-2.72268 6,-4.77238 14.04597,-10.76697 24.91779,-19.25647 25.36167,-19.80424 0.27499,-0.33936 4.27784,-3.50872 8.8952,-7.04303 4.61734,-3.53431 12.04235,-9.2571 16.5,-12.71731 4.45764,-3.46022 9.2298,-7.04982 10.6048,-7.9769 1.375,-0.92708 2.725,-1.95815 3,-2.29127 0.27499,-0.33312 5.89999,-4.3835 12.5,-9.00086 6.6,-4.61736 12.225,-8.654519 12.5,-8.971459 0.27499,-0.31694 3.99602,-2.80195 8.26891,-5.52224 4.27292,-2.72029 8.99791,-5.73872 10.5,-6.70763 1.5021,-0.96891 3.51858,-2.03389 4.48109,-2.36663 0.96249,-0.33274 1.75,-0.95001 1.75,-1.37172 0,-0.4217 0.7875,-1.01885 1.75,-1.32699 0.96249,-0.30815 4.45,-2.17045 7.75,-4.13846 6.84291,-4.08087 30.30471,-15.90411 38.46175,-19.38226 10.53087,-4.49034 29.84066,-11.466779 36.53824,-13.200912 1.65,-0.427217 7.275,-1.917398 12.5,-3.311514 23.64836,-6.309768 60.61348,-10.204167 81.3382,-8.569248 30.90283,2.437844 49.89859,7.96786 71.1618,20.716524 24.42757,14.6459 41.90876,38.12057 48.93522,65.712869 2.03481,7.99048 2.54528,12.41142 2.5403,22 -0.013,24.95826 -6.25696,38.64288 -28.38403,62.2076 -11.66441,12.42228 -1.47304,5.48345 11.80703,-8.03886 12.76598,-12.99884 18.02502,-21.93511 22.75672,-38.66874 1.89883,-6.71519 1.61589,-34.97139 -0.42056,-42 C 754.25146,93.078151 751.40227,86.672441 742.78801,73.901541 727.8872,51.810641 705.51466,35.509328 676.93907,25.921998 644.88008,15.165959 602.4198,15.332318 558.99916,26.384084 c -12.28867,3.127809 -31.96654,9.625881 -39.5,13.043778 -1.65,0.748598 -5.25,2.355972 -8,3.571941 -13.75355,6.081419 -29.40323,14.165088 -44.5,22.985988 -9.32509,5.44856 -37.92844,23.79449 -39,25.01424 -0.275,0.31304 -2.975,2.23296 -6,4.2665 -3.025,2.03355 -7.525,5.114939 -10,6.847539 -2.475,1.7326 -6.51899,4.55323 -8.98665,6.26807 -2.46766,1.71485 -5.00447,3.5679 -5.63736,4.1179 -0.6329,0.55 -6.4117,4.825 -12.84178,9.5 -6.43007,4.675 -14.3188,10.525 -17.53048,13 -3.21169,2.475 -9.02391,6.75 -12.91602,9.5 -3.89212,2.75 -9.89158,7.07755 -13.33214,9.61677 -8.81097,6.50273 -34.80982,23.7614 -44.28987,29.40072 -28.49229,16.94896 -53.74492,26.94123 -77.4657,30.6526 -11.19255,1.75119 -47.76125,1.75594 -59,0.008 -34.82024,-5.41688 -68.304173,-21.66987 -91.013708,-44.17809 -15.77529,-15.63546 -22.45944,-27.05102 -27.51987,-47 -6.30507,-24.855536 7.74581,-59.468389 31.33386,-77.187666 17.756869,-13.338908 51.527598,-23.663136 77.786848,-23.78063 11.51525,-0.05152 30.52749,3.185059 41.91287,7.135111 10.01961,3.476211 27.47775,12.576378 33.38117,17.400146 9.6179,7.85892 11.58724,9.29426 12.06491,8.79339 0.92299,-0.96782 -13.84589,-14.063501 -21.8968,-19.416062 -14.56973,-9.686537 -29.14449,-15.560344 -49.54928,-19.968964 -3.78412,-0.817589 -12.463,-1.251679 -23.5,-1.175394 -14.59095,0.100847 -19.32855,0.527394 -28.5,2.565975 -15.526444,3.451132 -19.856436,4.797234 -30.561106,9.500773 -21.114823,9.277668 -32.634163,19.47343 -44.810073,39.661362 -5.97661,9.90935 -9.84518,20.77774 -11.75072,33.012559 -1.56436,10.04423 -1.56366,11.45507 0.0109,21.92973 2.57141,17.10587 7.3075,28.43963 18.21409,43.58757 4.93641,6.85606 16.96526,19.4026 24.46198,25.51473 2.88974,2.35604 14.539733,10.36986 17.482658,12.026 11.037037,6.21118 16.851151,9.01413 26.569581,12.80905 28.99984,11.32407 55.90467,15.13911 88.75375,12.58507 z"
     id="path3723"
     inkscape:connector-curvature="0" />
  <rect
     style="fill:#ffffff"
     id="rect15"
     width="47.207268"
     height="394.7052"
     x="-34.094135"
     y="-35.743187" />
  <rect
     style="fill:#ffffff"
     id="rect17"
     width="877.26837"
     height="62.943024"
     x="-44.584641"
     y="311.75476" />
  <rect
     style="fill:#ffffff"
     id="rect15-1"
     width="47.207268"
     height="394.7052"
     x="785.47644"
     y="-20.007416" />
  <rect
     style="fill:#ffffff"
     id="rect17-9"
     width="877.26837"
     height="62.943024"
     x="-38.683735"
     y="-55.412876" />
</svg>
