<?xml version="1.0" encoding="UTF-8" standalone="no"?>
<!-- Created with Inkscape (http://www.inkscape.org/) -->

<svg
   xmlns:dc="http://purl.org/dc/elements/1.1/"
   xmlns:cc="http://creativecommons.org/ns#"
   xmlns:rdf="http://www.w3.org/1999/02/22-rdf-syntax-ns#"
   xmlns:svg="http://www.w3.org/2000/svg"
   xmlns="http://www.w3.org/2000/svg"
   xmlns:sodipodi="http://sodipodi.sourceforge.net/DTD/sodipodi-0.dtd"
   xmlns:inkscape="http://www.inkscape.org/namespaces/inkscape"
   version="1.1"
   id="svg2"
   width="225"
   height="225"
   viewBox="0 0 225 225"
   sodipodi:docname="med.svg"
   inkscape:version="0.92.3 (2405546, 2018-03-11)">
  <metadata
     id="metadata8">
    <rdf:RDF>
      <cc:Work
         rdf:about="">
        <dc:format>image/svg+xml</dc:format>
        <dc:type
           rdf:resource="http://purl.org/dc/dcmitype/StillImage" />
        <dc:title></dc:title>
      </cc:Work>
    </rdf:RDF>
  </metadata>
  <defs
     id="defs6" />
  <sodipodi:namedview
     pagecolor="#ffffff"
     bordercolor="#666666"
     borderopacity="1"
     objecttolerance="10"
     gridtolerance="10"
     guidetolerance="10"
     inkscape:pageopacity="0"
     inkscape:pageshadow="2"
     inkscape:window-width="1366"
     inkscape:window-height="707"
     id="namedview4"
     showgrid="false"
     inkscape:zoom="1.14"
     inkscape:cx="320.80092"
     inkscape:cy="11.840992"
     inkscape:window-x="0"
     inkscape:window-y="27"
     inkscape:window-maximized="1"
     inkscape:current-layer="svg2" />
  <path
     style="fill:#800000;stroke-width:0.49597472"
     d="m 111.37761,29.3587 c 14.75452,74.41361 7.37723,37.206813 0,0 z m 1.23369,163.13435 c -0.005,-0.65923 -0.14891,-4.49064 -0.32344,-8.51424 -0.29585,-6.82194 -0.2572,-7.31561 0.57227,-7.31561 0.83403,0 0.86732,0.51741 0.53406,8.3036 -0.19547,4.56699 -0.4502,8.39841 -0.56605,8.51424 -0.11582,0.11581 -0.21342,-0.32875 -0.21684,-0.98799 z m -3.61447,-6.69049 c -1.31249,-1.31247 -2.1506,-3.76374 -1.59451,-4.66349 0.1727,-0.27945 0.0625,-0.50809 -0.24467,-0.50809 -0.63693,0 -0.1319,-2.12934 0.5688,-2.39823 0.23842,-0.0915 0.32769,-0.33759 0.19828,-0.54689 -0.47083,-0.76187 1.05503,-2.18441 1.96754,-1.83427 0.82842,0.3179 0.8134,0.42303 -0.21696,1.51976 -2.25459,2.3999 -1.53329,8.13558 1.16006,9.22464 0.74252,0.30024 0.81027,0.42876 0.23787,0.45124 -0.44019,0.0172 -1.37456,-0.54283 -2.07641,-1.24467 z m 7.17394,0.0603 c 1.31745,-1.22162 2.31053,-4.66633 1.65233,-5.73135 -0.18217,-0.29477 -0.0332,-0.90376 0.33147,-1.35336 0.4472,-0.55169 0.46512,-0.69885 0.0551,-0.4526 -0.36513,0.21923 -1.1569,-0.21985 -1.9839,-1.10018 -0.87608,-0.93257 -2.61794,-1.8647 -4.7927,-2.56478 -3.67016,-1.18144 -7.49894,-4.06526 -7.02771,-5.29324 0.1598,-0.41634 0.0492,-0.55769 -0.27815,-0.35542 -0.35944,0.22216 -0.43466,-0.008 -0.22214,-0.67645 0.1767,-0.55677 0.0891,-1.15587 -0.19482,-1.33133 -0.28391,-0.17545 -0.51617,-0.65378 -0.51617,-1.06294 0,-0.40918 0.19096,-0.62596 0.42432,-0.48172 0.23341,0.1442 0.32773,-0.24296 0.20969,-0.86047 -0.30314,-1.58601 1.29753,-3.388 2.67609,-3.01265 1.15198,0.31363 1.1926,1.24724 0.13979,3.2144 -0.45728,0.85441 -0.44499,1.54762 0.0555,3.13202 0.35353,1.1191 0.60222,2.20214 0.55262,2.40674 -0.0496,0.20457 0.0773,0.31757 0.28176,0.25105 0.20459,-0.0665 1.17874,0.37943 2.16479,0.99093 0.98604,0.61151 2.48894,1.25107 3.33979,1.42125 0.8508,0.17017 1.42742,0.50285 1.28125,0.73929 -0.14617,0.23645 0.0442,0.3111 0.42238,0.16588 0.57964,-0.22242 3.67913,2.7278 3.89052,3.70312 0.72055,3.3247 0.15688,6.63233 -1.39468,8.18387 -0.70608,0.70606 -1.53003,1.28374 -1.83105,1.28374 -0.30094,0 0.0427,-0.54711 0.76396,-1.2158 z m 0.19178,-13.33568 c -0.83825,-0.61293 -0.84355,-0.68906 -0.0691,-0.98627 0.57613,-0.22109 0.73519,-0.12948 0.50729,0.29222 -0.18257,0.33785 0.27591,-0.0553 1.01887,-0.87365 0.74297,-0.81835 1.49701,-1.44991 1.67562,-1.40344 0.54354,0.14146 0.27229,-4.47647 -0.32894,-5.59955 -0.75185,-1.40442 -3.52802,-2.66713 -5.87979,-2.67439 -4.24445,-0.0137 -11.64994,-3.14174 -10.77758,-4.55328 0.20376,-0.32966 0.11826,-0.41536 -0.21127,-0.21171 -0.92777,0.57339 -2.575502,-3.34254 -2.575502,-6.12082 0,-1.3748 0.223188,-2.49962 0.495982,-2.49962 0.27277,0 0.46953,-0.16741 0.43723,-0.37199 -0.0322,-0.20458 -0.005,-0.53937 0.0621,-0.74395 0.1897,-0.58456 0.36316,-1.32202 0.43069,-1.83141 0.0691,-0.52078 1.10575,-0.38434 3.18179,0.41875 1.19035,0.46045 1.30933,0.67473 0.85049,1.53196 -0.29332,0.54814 -0.77471,0.99664 -1.06971,0.99664 -0.295,0 -0.4197,0.44615 -0.2771,0.99146 0.14253,0.54529 0.0656,1.11116 -0.17121,1.25749 -0.23926,0.14783 -0.21698,0.82753 0.0501,1.53003 0.26435,0.69519 0.3329,1.50296 0.15243,1.79499 -0.18882,0.30551 -0.0956,0.38726 0.21956,0.19248 0.30124,-0.18618 0.77357,0.0834 1.04963,0.59931 0.27607,0.5158 1.17715,1.21751 2.0025,1.55938 0.82531,0.34186 1.39418,0.79364 1.2642,1.00396 -0.12994,0.21034 0.0401,0.35745 0.37826,0.3269 1.47365,-0.13311 9.30589,1.5587 9.7902,2.11469 0.13647,0.1566 0.69438,0.53222 1.23994,0.83475 0.54556,0.3025 0.93615,0.69308 0.86794,0.86794 -0.0681,0.17486 0.32241,0.76431 0.86797,1.30988 0.75147,0.75148 0.99195,1.65325 0.99195,3.71982 0,1.58927 -0.21922,2.72785 -0.52522,2.72785 -0.28892,0 -0.39561,0.20984 -0.23709,0.46628 0.40943,0.66252 -2.64235,3.9975 -3.65807,3.9975 -0.46517,0 -1.2545,-0.29891 -1.75411,-0.6642 z m -4.42435,-2.93162 c -0.1645,-0.61378 -0.30214,-2.39927 -0.30586,-3.96779 -0.006,-2.71314 0.0535,-2.85186 1.2332,-2.85186 1.07661,0 1.23993,0.21953 1.23993,1.66669 0,4.94993 -1.35704,8.1764 -2.16727,5.15296 z m 8.29885,-11.51083 c -0.57285,-0.40124 -1.18244,-0.58861 -1.3547,-0.41639 -0.1722,0.17224 -0.31311,0.0737 -0.31311,-0.21906 0,-0.29271 -0.50217,-0.42867 -1.11592,-0.30214 -0.87527,0.18044 -0.79506,0.0504 0.37195,-0.60272 0.81837,-0.45803 2.02606,-1.30781 2.68383,-1.88842 0.65776,-0.58059 1.04472,-0.79206 0.85987,-0.46994 -0.18479,0.32215 -0.15385,0.6983 0.0687,0.83593 1.06704,0.65949 0.94692,-7.50151 -0.12476,-8.47648 -0.23262,-0.21161 -0.259,-0.0499 -0.0588,0.3592 0.22706,0.46375 0.0991,0.42083 -0.33972,-0.11384 -1.5044,-1.83307 -4.8556,-2.83906 -9.53701,-2.86287 -4.81796,-0.0245 -8.12366,-0.58758 -8.67356,-1.4773 -0.18971,-0.30692 -0.54765,-0.50036 -0.79545,-0.42987 -0.6524,0.18559 -3.378624,-1.35053 -4.206414,-2.37019 -0.618383,-0.76165 -0.613812,-0.82305 0.03627,-0.48565 0.409172,0.21243 0.271494,-0.0237 -0.305975,-0.52476 -1.412921,-1.22596 -2.153959,-3.64697 -1.905578,-6.22545 0.228241,-2.36928 1.651008,-5.94338 2.224752,-5.5888 0.203938,0.12599 0.340183,-0.0902 0.302787,-0.48044 -0.09942,-1.03695 0.12674,-1.03934 3.473618,-0.0367 l 3.04563,0.9123 -1.42435,1.19852 c -1.59073,1.3385 -2.62901,4.39652 -2.14603,6.32075 0.64496,2.56968 4.97319,4.3495 10.50481,4.31975 1.70838,-0.009 2.99141,0.16895 2.85115,0.3959 -0.14025,0.22697 0.15881,0.30444 0.66465,0.17216 1.13479,-0.29675 4.75257,0.63909 5.65196,1.46206 0.3648,0.33378 1.1002,0.86507 1.63426,1.18067 0.53406,0.3156 0.91522,0.81779 0.84702,1.11595 -0.0681,0.29816 0.12295,0.48632 0.42485,0.41814 0.81672,-0.18449 2.52099,3.3489 2.7972,5.79916 0.28484,2.52721 -0.47276,5.12008 -2.02318,6.92445 -0.82074,0.95511 -1.26086,1.15129 -1.6685,0.74363 -0.4077,-0.40765 -0.53323,-0.32487 -0.47604,0.31376 0.10519,1.17481 -0.71376,1.38176 -1.97427,0.49886 z m -8.61145,-7.7082 v -5.45572 h 1.23994 1.23993 v 5.45572 5.45573 h -1.23993 -1.23994 z m 12.27537,-9.99889 c -2.08844,-0.92106 -3.22439,-2.40047 -1.84318,-2.40047 0.28196,0 1.19033,-0.69324 2.01862,-1.54053 1.35296,-1.38411 1.47131,-1.74921 1.16518,-3.59581 -0.27398,-1.65252 -3.20052,-6.81899 -3.20052,-5.65013 0,0.17621 -0.76946,-7.8e-4 -1.70992,-0.39405 -1.00297,-0.41906 -4.33528,-0.83965 -8.0596,-1.01723 -3.4923,-0.16652 -6.57285,-0.44051 -6.84563,-0.60887 -0.2728,-0.16835 -0.99816,-0.24122 -1.61192,-0.16192 -0.61378,0.0793 -1.11595,-0.10821 -1.11595,-0.41656 0,-0.3084 -0.23043,-0.41831 -0.5121,-0.24425 -0.77138,0.47676 -6.448801,-2.41793 -8.350225,-4.25745 -2.270171,-2.19629 -3.196108,-4.59521 -3.179847,-8.23808 0.01511,-3.33204 1.319043,-6.74375 3.212377,-8.40382 0.585609,-0.51341 0.901585,-0.65451 0.70222,-0.31352 -0.209612,0.35843 -0.08861,0.65095 0.286702,0.6934 0.357066,0.0404 0.984028,0.10823 1.3932,0.15073 1.951074,0.20279 4.463773,0.91908 4.463773,1.27248 0,0.21689 0.50217,0.28312 1.11593,0.14723 0.70161,-0.1554 0.35688,0.22654 -0.92855,1.0287 -2.586802,1.61426 -3.777195,3.42463 -3.840531,5.84079 -0.105644,4.02818 4.899991,6.62983 14.316611,7.44103 8.17128,0.70391 9.71595,0.9316 9.43245,1.39031 -0.14209,0.22984 0.18838,0.30106 0.73433,0.15829 0.57719,-0.15087 0.99266,-0.0154 0.99266,0.32353 0,0.32069 0.19531,0.46238 0.43403,0.31485 0.56094,-0.3467 4.32147,2.37312 4.97844,3.60074 0.2774,0.51826 0.34479,1.11901 0.14982,1.33501 -0.19498,0.21599 -0.0756,0.23217 0.26544,0.036 0.54869,-0.31578 0.71593,-0.0233 0.57761,1.01025 -0.0234,0.17408 0.22487,0.4817 0.55152,0.68357 0.82074,0.50724 1.49298,4.33969 1.12953,6.43951 -0.34033,1.96657 -1.32029,3.7013 -3.01189,5.33172 -0.6368,0.61379 -1.2021,1.10868 -1.25621,1.09978 -0.0542,-0.009 -1.15861,-0.48373 -2.45433,-1.05518 z m -12.77135,-7.62374 v -5.22327 l 1.72043,0.1158 1.72049,0.11583 -0.0106,5.10741 -0.0106,5.1074 h -1.70988 -1.70991 v -5.22326 z m 17.65448,-10.72456 c 0.21903,-0.35442 0.13599,-0.43798 -0.21779,-0.21929 -0.68286,0.42203 -4.70238,-1.85757 -4.18593,-2.37402 0.19705,-0.19708 -0.0253,-0.21106 -0.49452,-0.0311 -0.57292,0.21982 -0.85285,0.083 -0.85285,-0.41672 0,-0.8582 1.32794,-1.50349 2.10527,-1.02304 0.31106,0.19224 0.38255,0.091 0.174,-0.24638 -0.19467,-0.31494 -0.13464,-0.57262 0.13326,-0.57262 0.26797,0 1.17393,-0.57781 2.01321,-1.28403 1.18216,-0.99473 1.52597,-1.68518 1.52597,-3.06462 0,-2.29004 -0.90144,-4.77106 -1.94691,-5.35837 -3.73706,-2.09944 -5.75345,-2.72082 -10.26524,-3.16338 -2.69443,-0.26431 -7.35405,-0.72336 -10.35472,-1.02013 -3.00063,-0.29676 -6.460059,-0.82301 -7.687585,-1.16942 -3.216413,-0.90769 -6.447683,-2.335489 -6.447683,-2.848999 0,-0.24317 -0.295895,-0.44213 -0.657514,-0.44213 -0.915019,0 -2.906509,-2.21392 -2.44688,-2.72017 0.207106,-0.22809 0.117937,-0.26673 -0.198254,-0.0859 -0.798223,0.45669 -3.000241,-2.29642 -3.61917,-4.52499 -1.017895,-3.66506 -0.349678,-11.02003 1.001165,-11.02003 0.236537,0 0.683308,-0.47331 0.992938,-1.05181 0.455555,-0.85123 0.43522,-0.97683 -0.10655,-0.6587 -1.282604,0.75311 1.328363,-1.91672 3.248076,-3.32138 1.501963,-1.09895 2.085827,-1.28853 2.615236,-0.84917 0.534956,0.44398 0.619475,0.40392 0.392999,-0.18626 -0.225072,-0.58653 0.570772,-0.983761 3.618235,-1.806069 4.324667,-1.16691 8.842097,-1.430412 8.255647,-0.481545 -0.21906,0.354453 -0.13616,0.437982 0.21785,0.219257 0.62809,-0.388196 2.69983,0.833995 2.30622,1.360499 -0.13464,0.180128 -0.094,0.213868 0.0903,0.07499 0.3943,-0.297061 2.64065,1.70908 2.64065,2.3583 0,1.32952 -3.43546,2.85843 -6.39767,2.8472 -2.37364,-0.009 -4.07354,-0.49371 -3.72268,-1.06145 0.16475,-0.26655 -0.26074,-0.32275 -1.013432,-0.13388 -0.713557,0.17911 -1.680808,0.35544 -2.149455,0.39187 -0.468598,0.0364 -1.259636,0.51262 -1.757783,1.05819 -0.504257,0.55223 -0.762766,0.66217 -0.583171,0.24799 0.189559,-0.43726 0.01726,-0.36962 -0.41816,0.16403 -0.407397,0.4994 -1.149313,1.24131 -1.648706,1.6487 -0.499413,0.40738 -0.591068,0.57594 -0.203763,0.37456 0.539626,-0.28053 0.615801,-0.14419 0.326008,0.5832 -0.208061,0.52211 -0.4995,2.22551 -0.647696,3.78529 -0.214018,2.2524 -0.07984,3.1199 0.652268,4.21578 0.506929,0.75889 0.853467,1.60299 0.77005,1.87578 -0.08335,0.27279 0.0088,0.33589 0.204133,0.14025 0.195621,-0.19565 0.913488,0.0831 1.595158,0.61922 2.493721,1.96157 8.545439,3.40618 15.792579,3.76988 5.84334,0.29324 6.65723,0.43256 5.87383,1.00538 -0.50019,0.36572 -0.65672,0.66497 -0.34793,0.66497 0.30885,0 0.69948,-0.22318 0.86806,-0.49597 0.49994,-0.80893 2.52554,-0.57317 6.2471,0.72707 4.19044,1.46405 7.02534,3.126557 6.5747,3.855687 -0.18025,0.29165 -0.10246,0.39106 0.1728,0.22093 0.60523,-0.37408 2.2226,1.31787 3.3011,3.45325 1.40093,2.77383 1.85375,5.86123 1.2634,8.61393 -0.5437,2.53525 -2.43206,5.24955 -3.18074,4.57198 -0.22115,-0.20016 -0.25413,-0.10535 -0.0733,0.21084 0.18277,0.3194 -0.34971,1.14574 -1.19846,1.8599 -1.57502,1.32531 -2.7719,1.72236 -2.14778,0.71254 z M 105.04273,73.342843 c -0.34024,-1.020785 -1.59838,-0.633134 -1.65606,0.510268 -0.0471,0.93311 0.0868,1.02055 0.89811,0.58638 0.52439,-0.28064 0.86548,-0.77413 0.75795,-1.096648 z m 6.08689,38.595607 v -6.19969 h 1.91208 1.91208 l -0.22566,5.82772 c -0.23356,6.03189 -0.42951,6.55009 -2.48256,6.56407 -1.09818,0.008 -1.11594,-0.0913 -1.11594,-6.1921 z M 127.8776,98.094661 c -2.38197,-1.11507 -4.33298,-2.139 -4.33552,-2.27539 -0.005,-0.13645 1.35997,-0.67352 3.02778,-1.19363 2.09402,-0.65301 3.66584,-1.56444 5.07949,-2.94532 1.12591,-1.09984 2.15871,-1.97678 2.29511,-1.94879 0.13645,0.0281 0.24799,-1.15753 0.24799,-2.63451 0,-1.47697 -0.14966,-2.68537 -0.3326,-2.68529 -0.18292,6e-5 -0.47277,-0.6382 -0.64412,-1.41834 -0.35165,-1.60104 -2.98496,-4.53324 -4.07117,-4.53324 -0.39292,0 -0.57642,-0.22319 -0.40783,-0.49596 0.37967,-0.61436 0.53877,-0.62883 -2.72786,0.24799 -3.02809,0.81276 -7.15637,0.9934 -6.72428,0.29424 0.1529,-0.24736 -0.16873,-0.33292 -0.71465,-0.19015 -0.57722,0.15088 -0.99263,0.0155 -0.99263,-0.32352 0,-0.32069 -0.1934,-0.46359 -0.42973,-0.31752 -0.23634,0.14602 -0.7801,-0.12158 -1.2084,-0.59493 -0.71022,-0.7848 -0.69525,-0.96915 0.17067,-2.0962 0.65211,-0.84872 0.9627,-1.00272 0.99185,-0.49174 0.0248,0.4349 0.22884,0.28036 0.49101,-0.37199 0.24676,-0.613765 0.69215,-1.115937 0.98983,-1.115937 0.29768,0 0.38195,0.257673 0.18732,0.572616 -0.22101,0.357611 -0.13585,0.437851 0.22682,0.213721 0.31936,-0.197403 0.45922,-0.555469 0.31072,-0.795719 -0.42733,-0.691436 1.49642,-1.478543 3.61368,-1.478543 2.33638,0 8.87978,1.619357 11.02408,2.728242 2.10993,1.09107 5.50933,4.22223 5.17366,4.76539 -0.15026,0.24308 -0.0122,0.44197 0.30517,0.44197 0.31886,0 0.44579,0.34529 0.28291,0.76971 -0.16243,0.42335 -0.0969,0.64706 0.14571,0.49712 0.24263,-0.14996 0.71506,0.86926 1.04984,2.26486 0.71678,2.98789 0.36209,8.3238 -0.5936,8.92963 -0.3634,0.23036 -0.46763,0.42225 -0.23166,0.42644 0.49399,0.009 -0.8322,2.21516 -2.3112,3.8452 -0.83144,0.91631 -1.1442,1.00275 -1.79428,0.49597 -0.68907,-0.53719 -0.70583,-0.50962 -0.13418,0.22099 0.56298,0.7195 0.48034,0.948 -0.59815,1.65468 -0.68822,0.45094 -1.51882,0.65457 -1.84571,0.45251 -0.35492,-0.21932 -0.46478,-0.15756 -0.27269,0.15328 0.75587,1.222959 -1.20125,0.8244 -5.2434,-1.06784 z m -4.84459,-24.34626 c 0,-0.959931 -0.97364,-1.456624 -1.60933,-0.82097 -0.37723,0.377268 -0.34848,0.750771 0.0994,1.29046 0.69918,0.84248 1.50991,0.59041 1.50991,-0.46949 z m -10.29147,20.67841 -2.1079,-0.1525 v -6.49222 c 0,-5.42717 0.17682,-6.97716 1.07781,-9.44829 l 1.07785,-2.95607 1.00396,1.9132 c 0.8245,1.57114 1.04,3.11027 1.20551,8.60885 0.26917,8.94299 0.32972,8.71422 -2.25723,8.52703 z M 80.655937,79.002701 c -0.152758,-0.24719 -0.77972,-0.33119 -1.39319,-0.18667 -0.613509,0.1445 1.647576,-1.11222 5.024576,-2.79273 3.377038,-1.68053 6.259889,-2.935658 6.406349,-2.789199 0.146471,0.146475 0.04026,0.266311 -0.236429,0.266311 -0.850143,0 -6.11025,4.756598 -6.11025,5.525378 0,0.5699 -3.33747,0.54901 -3.691056,-0.0231 z m 60.023563,-0.80004 c -0.45029,-0.68722 -1.64767,-2.03438 -2.6609,-2.99372 l -1.84225,-1.744228 4.21579,2.077678 c 2.31867,1.14275 4.35232,2.28578 4.51921,2.5401 0.1669,0.25432 0.44588,0.44332 0.61997,0.42002 0.17408,-0.0234 0.70711,-0.02 1.18448,0.008 1.46324,0.0833 -1.42418,0.83848 -3.41478,0.89307 -1.41035,0.0387 -1.98111,-0.22259 -2.62152,-1.20001 z m -74.406965,0.36181 c -1.075383,-0.0965 -2.26368,-0.5501 -2.640676,-1.00789 -0.376949,-0.45778 -0.544031,-0.55334 -0.371326,-0.21237 0.379464,0.74907 0.202895,0.76399 -1.477969,0.12492 -1.734411,-0.65941 -1.237049,-1.28395 1.350498,-1.69581 1.165387,-0.1855 3.083962,-0.66414 4.26349,-1.06368 1.179535,-0.39952 2.385788,-0.57738 2.680499,-0.39522 0.318908,0.19711 0.392612,0.0994 0.182021,-0.24141 -0.20459,-0.33098 -0.05418,-0.572598 0.356263,-0.572598 0.390623,0 1.771326,-0.469386 3.068238,-1.043082 1.940516,-0.858356 2.441441,-0.924232 2.828697,-0.371985 0.385825,0.550229 0.435805,0.542427 0.277364,-0.04341 -0.130083,-0.48106 1.282925,-1.46153 4.32528,-3.001184 2.48524,-1.257679 5.059932,-2.665884 5.721609,-3.12932 1.272426,-0.89125 3.462152,-1.145356 3.462152,-0.401766 0,0.242479 0.390591,0.40987 0.867963,0.371985 0.481837,-0.03826 0.807347,0.223294 0.73166,0.587947 -0.07496,0.361269 0.09203,0.515758 0.370987,0.343343 0.616248,-0.38088 3.527925,1.257162 3.194285,1.797024 -0.13024,0.210817 -0.601187,0.243543 -1.046361,0.07271 -0.499656,-0.191722 -0.685939,-0.110805 -0.48671,0.211576 0.410877,0.664799 -14.963354,8.36847 -18.015087,9.02697 -2.741995,0.59165 -7.030938,0.87774 -9.642877,0.64321 z m 89.353855,0.0855 c -0.21014,-0.21013 -1.2506,-0.33081 -2.31223,-0.26816 -1.06158,0.0627 -2.06698,-0.10747 -2.23421,-0.37815 -0.1673,-0.27062 -0.66838,-0.35225 -1.11357,-0.18142 -0.50877,0.19525 -0.68687,0.11233 -0.4794,-0.2234 0.20611,-0.33352 -0.0164,-0.44346 -0.59225,-0.29281 -1.19266,0.31188 -12.05442,-4.762719 -11.63766,-5.437079 0.17454,-0.282415 0.0691,-0.355167 -0.23896,-0.164795 -0.53366,0.329818 -5.77675,-2.320858 -6.31579,-3.192965 -0.42198,-0.682816 3.57602,-2.977337 4.54201,-2.606672 0.57362,0.220136 0.7311,0.137821 0.48812,-0.255323 -0.23081,-0.373488 0.0168,-0.580253 0.6952,-0.580253 1.24004,0 2.82826,0.76003 4.21247,2.015841 0.54558,0.494963 1.21514,0.916128 1.48794,0.935906 1.28177,0.09289 2.21462,0.642743 1.91445,1.128386 -0.19061,0.308432 -0.10185,0.394813 0.20841,0.203 0.58712,-0.362847 5.06876,1.624578 5.06876,2.247801 0,0.209861 0.33479,0.253107 0.74395,0.09608 0.40918,-0.157023 0.74396,-0.07559 0.74396,0.180885 0,0.256505 0.27901,0.48965 0.61998,0.518111 0.34099,0.02838 2.62867,0.741647 5.08375,1.584897 2.45507,0.84324 5.41232,1.66866 6.57167,1.83426 2.412,0.34453 2.67675,0.92027 0.81357,1.76919 -1.11494,0.508 -1.3984,0.455 -2.04584,-0.38263 -0.73264,-0.94779 -0.745,-0.94416 -0.48809,0.14359 0.22503,0.95297 0.0621,1.11594 -1.11594,1.11594 -0.75873,0 -2.02274,0.12872 -2.80889,0.28588 -0.78612,0.15724 -1.60127,0.11399 -1.81141,-0.0962 z M 48.636802,74.670721 c -2.810235,-0.52466 -6.447662,-1.722358 -6.447662,-2.122985 0,-0.662006 1.248357,-0.989244 2.951547,-0.77369 0.849248,0.107465 1.427609,0.0076 1.285256,-0.223461 -0.231111,-0.373913 2.732281,-1.060447 5.459743,-1.264859 0.559363,-0.04189 1.299554,-0.250858 1.644904,-0.464301 0.345348,-0.213443 0.759937,-0.256065 0.921272,-0.09472 0.161334,0.161336 0.570126,0.0636 0.908323,-0.217055 0.338259,-0.280731 1.052222,-0.594596 1.586531,-0.697509 1.953242,-0.376143 8.328847,-2.296675 9.153617,-2.757335 0.46656,-0.260604 1.228515,-0.327922 1.693246,-0.149662 0.515515,0.197825 0.722888,0.126742 0.531831,-0.182388 -0.177603,-0.287364 0.592107,-0.774783 1.778526,-1.126246 1.150404,-0.340793 3.278497,-1.158957 4.729018,-1.818137 1.450521,-0.659183 2.879926,-1.048578 3.176464,-0.865309 0.302895,0.187198 0.398127,0.105037 0.217352,-0.187428 -0.366932,-0.593731 0.731786,-1.12283 2.316982,-1.115742 0.591448,0.003 2.039395,0.771215 3.21769,1.70794 l 2.142358,1.70313 -1.894367,1.171508 c -4.326703,2.675706 -6.493413,3.791539 -6.788801,3.496161 -0.172313,-0.172309 -0.313256,-0.02899 -0.313256,0.318419 0,0.393584 -0.321504,0.508335 -0.852844,0.304439 -0.469095,-0.180004 -0.685179,-0.159619 -0.480296,0.04523 0.463042,0.463012 -6.496782,3.275538 -7.132813,2.882454 -0.253878,-0.156887 -0.461598,-0.06739 -0.461598,0.198887 0,0.546465 -4.818152,1.704349 -5.454823,1.310869 -0.22667,-0.140104 -0.505302,0.0247 -0.619187,0.36638 -0.148298,0.44476 -1.885444,0.64464 -6.118044,0.70396 -3.25107,0.0455 -6.469002,-0.0212 -7.150969,-0.1486 z m 21.822893,-3.455206 c 0,-0.107163 -0.334783,-0.194911 -0.743962,-0.194911 -0.409186,0 -0.743968,0.216176 -0.743968,0.480407 0,0.264216 0.334782,0.351935 0.743968,0.194925 0.409179,-0.157023 0.743962,-0.373199 0.743962,-0.480421 z m 91.259355,2.479626 c -2.59146,-0.660638 -4.78662,-1.422474 -4.87811,-1.69296 -0.0915,-0.270484 -0.35665,-0.3742 -0.58918,-0.230472 -0.69544,0.429785 -6.96125,-2.286569 -6.6048,-2.863315 0.18769,-0.30368 0.0839,-0.373837 -0.24873,-0.168241 -0.5397,0.333583 -6.12156,-2.339694 -8.26214,-3.956956 -0.9714,-0.733936 -0.95697,-0.779989 0.69909,-2.226173 2.62746,-2.294476 3.47291,-2.296601 8.65977,-0.02185 2.5555,1.120766 4.91198,2.037744 5.23664,2.037744 0.32467,0 0.431,0.257673 0.23638,0.572616 -0.22373,0.361998 -0.13554,0.437663 0.23969,0.205733 0.68029,-0.420435 5.51139,1.182619 5.51139,1.828778 0,0.234997 0.18832,0.31089 0.41845,0.168636 0.23017,-0.142226 2.85265,0.4026 5.8277,1.210761 4.42925,1.203186 14.58285,3.407684 15.97386,3.468187 1.07666,0.04675 -1.83937,1.09991 -5.42746,1.960072 -5.52837,1.32531 -10.80684,1.23335 -16.79255,-0.29259 z M 113.82807,73.312 c -0.54126,-2.156593 -0.0937,-3.022675 1.64877,-3.191038 1.10665,-0.106859 1.70418,0.08636 1.90782,0.617121 0.16311,0.425035 0.53084,0.62799 0.81722,0.451021 0.31435,-0.194303 0.37214,-0.08151 0.14587,0.284646 -0.20613,0.333538 -0.69859,0.482167 -1.09433,0.330304 -0.39575,-0.151863 -0.60161,-0.08531 -0.45749,0.147841 0.14419,0.233206 -0.12325,0.754671 -0.59423,1.15882 -1.6566,1.421626 -2.0587,1.455716 -2.37358,0.201239 z m -3.44157,-0.306534 c -0.48158,-0.532182 -1.3043,-1.103662 -1.82827,-1.269959 -1.49273,-0.473757 -0.1287,-1.706862 1.88813,-1.706862 1.5784,0 1.67521,0.09866 1.67521,1.706649 0,2.107477 -0.58783,2.537817 -1.73507,1.270172 z M 93.274516,71.516569 c 0,-0.272776 0.223201,-0.495965 0.495982,-0.495965 0.272801,0 0.495982,0.223189 0.495982,0.495965 0,0.272792 -0.223181,0.49598 -0.495982,0.49598 -0.272781,0 -0.495982,-0.223188 -0.495982,-0.49598 z m 37.694084,-0.06239 c -0.68196,-0.272488 -2.35586,-0.75209 -3.7198,-1.065775 l -2.47986,-0.570325 1.98388,-0.266735 c 1.50231,-0.201969 2.4956,0.01517 4.09179,0.891614 2.78784,1.531988 2.85791,2.103587 0.12402,1.011221 z m -36.206149,-0.42303 c 0,-0.95075 2.306327,-1.759898 4.215786,-1.47903 l 1.983903,0.291811 -1.487922,0.361117 c -0.818363,0.198612 -2.213288,0.554053 -3.099851,0.78987 -0.886563,0.235801 -1.611916,0.252119 -1.611916,0.03628 z m 9.795519,-0.835058 c 0.34096,-0.137518 0.89894,-0.137518 1.23993,0 0.34097,0.137519 0.0619,0.250161 -0.61998,0.250161 -0.68195,0 -0.96095,-0.112626 -0.61995,-0.250161 z m 15.63262,-0.01517 c 0.48258,-0.12568 1.15214,-0.117483 1.48793,0.01837 0.33578,0.135849 -0.0591,0.238746 -0.87739,0.228638 -0.81837,-0.01062 -1.09313,-0.121278 -0.61054,-0.247019 z M 33.408645,69.508137 c -2.363557,-0.466883 -3.972058,-1.234577 -5.086272,-2.427534 -0.582966,-0.624148 -0.651212,-0.636306 -0.287465,-0.05115 0.262379,0.422029 -0.240345,0.11126 -1.117172,-0.690572 -1.780797,-1.62854 -1.452182,-2.241366 1.208927,-2.254314 2.685066,-0.01366 17.931669,-2.967318 25.965875,-5.031274 8.395408,-2.156745 8.659372,-2.226052 10.29146,-2.702102 0.837514,-0.244286 1.115957,-0.121582 1.115957,0.491867 0,0.449563 0.333488,0.945361 0.741082,1.101777 0.407642,0.156402 0.640653,0.446984 0.517796,0.645734 -0.122795,0.198735 0.04566,0.394632 0.374851,0.435326 1.535648,0.189961 7.288948,1.859636 7.291239,2.116004 0.0049,0.471102 -3.590164,1.430959 -4.1237,1.101232 -0.29733,-0.183769 -0.33076,-0.04432 -0.08485,0.353573 0.297227,0.480954 0.178045,0.569414 -0.445085,0.330304 -0.468113,-0.179625 -0.734151,-0.137367 -0.591254,0.09381 0.219659,0.355395 -5.388816,2.236783 -6.903969,2.315985 -0.272797,0.01366 -1.053949,0.332308 -1.735917,0.706783 -0.68196,0.374459 -1.239934,0.628717 -1.239934,0.565012 0,-0.06376 -0.334782,-0.0091 -0.743969,0.122037 -3.407924,1.089711 -10.042139,2.333941 -10.934446,2.050736 -0.659256,-0.209254 -0.975734,-0.156948 -0.79728,0.131752 0.591499,0.957079 -9.350716,1.398006 -13.415925,0.59496 z m 147.533775,-0.0046 c -3.25279,-0.449078 -13.26569,-2.680699 -14.7596,-3.289534 -0.40919,-0.166737 -0.98699,-0.356046 -1.28403,-0.420647 -2.47923,-0.539149 -9.13144,-2.948012 -9.13144,-3.306547 0,-0.248842 -0.1674,-0.357415 -0.37199,-0.241282 -0.20457,0.116117 -1.48792,-0.203167 -2.85186,-0.709576 l -2.47987,-0.920725 2.10791,0.132055 c 1.15934,0.07255 2.10788,-0.02352 2.10788,-0.213685 0,-0.190129 0.72536,-0.502766 1.61192,-0.694746 0.88657,-0.191996 2.19508,-0.761107 2.90785,-1.264692 0.71271,-0.503599 1.44989,-0.761638 1.6381,-0.573422 0.18824,0.188217 0.20361,-0.01897 0.0341,-0.460462 -0.56184,-1.464153 0.68569,-1.461544 5.57873,0.01215 5.1043,1.536846 13.97735,3.6277 19.59957,4.618491 1.84131,0.324491 3.34782,0.787761 3.34782,1.029497 0,0.241736 0.21431,0.307066 0.47624,0.14526 0.42441,-0.262303 8.16672,0.555906 9.8642,1.042429 0.4864,0.139341 0.35099,0.52693 -0.49598,1.419879 -1.1942,1.25909 -2.24722,1.698089 -1.6135,0.672675 0.22104,-0.35761 0.13585,-0.437845 -0.22681,-0.213716 -0.31937,0.197399 -0.449,0.57195 -0.28807,0.83234 0.16089,0.260377 -0.76573,0.941567 -2.0592,1.513729 -2.75576,1.219018 -8.59081,1.598258 -13.7121,0.891204 z m 6.07133,-6.117617 c 0,-0.107162 -0.34638,-0.327846 -0.76975,-0.490303 -0.44135,-0.169365 -0.64044,-0.08622 -0.46666,0.194924 0.29123,0.471285 1.23641,0.697068 1.23641,0.295379 z m -84.59291,4.421029 c 0.88836,-0.695991 0.70817,-0.754292 -2.33122,-0.754292 -2.339512,0 -3.408937,-0.205353 -3.690599,-0.708725 -0.21818,-0.389804 -0.508236,-0.688218 -0.644616,-0.663159 -0.136449,0.02505 -0.899548,-0.295803 -1.695841,-0.713035 l -1.447849,-0.758602 1.819831,-0.600606 c 2.767936,-0.913502 2.180406,-1.516158 -1.350492,-1.385196 -1.743696,0.06466 -3.069641,0.284965 -2.946586,0.489545 0.123103,0.204594 -0.248976,0.371985 -0.826737,0.371985 -0.654433,0 -0.919932,-0.211244 -0.704189,-0.560323 0.211288,-0.341856 0.0775,-0.466108 -0.342717,-0.318708 -0.786368,0.275751 -3.416871,-1.405368 -3.416871,-2.183657 0,-0.283402 0.334782,-0.3868 0.743974,-0.229775 0.409171,0.157009 0.743952,0.118243 0.743952,-0.08621 0,-0.204427 0.725363,-0.663478 1.611916,-1.020132 2.635465,-1.060219 0.713509,-1.19464 -4.775083,-0.333962 -5.289139,0.829381 -8.995694,0.616393 -12.459132,-0.71595 -1.577847,-0.606997 -3.224738,-1.894593 -3.224738,-2.521231 0,-0.483822 5.015794,-3.592136 5.80638,-3.598223 0.329225,-0.003 0.721697,-0.325341 0.872126,-0.717361 0.154044,-0.401417 0.607913,-0.584442 1.039067,-0.418993 0.421026,0.161577 0.649529,0.106099 0.507729,-0.123404 -0.363013,-0.587325 8.027254,-4.660642 8.719169,-4.232997 0.374526,0.231461 0.43096,0.129323 0.165704,-0.299764 -0.299609,-0.484778 -0.129167,-0.579356 0.668032,-0.370862 0.588631,0.153913 0.951683,0.08804 0.806821,-0.146323 -0.419017,-0.677942 4.635515,-1.961213 7.72475,-1.961213 3.038689,0 5.746263,1.443042 5.230355,2.787574 -0.144511,0.376341 -0.04855,0.684242 0.213209,0.684242 0.27319,0 0.473365,2.16494 0.470089,5.083748 -0.0049,2.796057 0.06629,5.549235 0.154546,6.118194 0.17494,1.12878 3.46339,4.669247 4.33691,4.669247 0.29798,0 0.43947,0.167392 0.31449,0.371986 -0.12508,0.204594 0.91131,0.437936 2.30296,0.51852 2.55457,0.147993 4.03451,0.836924 3.53477,1.645571 -0.14952,0.241873 -0.0572,0.439772 0.20489,0.439772 0.26221,0 0.69281,0.619794 0.95687,1.377289 l 0.48012,1.377286 -5.26736,0.120975 c -4.7932,0.110045 -5.18071,0.05313 -4.30463,-0.633317 z m 11.92606,-0.506302 c 0.55268,-2.556218 1.60147,-3.718696 3.36579,-3.730702 2.16478,-0.01517 5.41705,-1.556988 6.68645,-3.17076 1.40414,-1.785047 2.15843,-5.620119 1.84076,-9.359017 -0.5809,-6.836862 1.82538,-8.790969 9.27521,-7.532336 1.04796,0.177061 1.78125,0.522772 1.62952,0.768256 -0.15179,0.245486 0.0288,0.329469 0.40101,0.186623 0.83755,-0.32141 7.84532,2.570365 8.61845,3.556419 0.31033,0.395786 0.7567,0.675833 0.99194,0.622299 0.75925,-0.17275 2.16643,0.646341 1.88704,1.098408 -0.14906,0.241084 0.11202,0.291355 0.58019,0.111716 0.62315,-0.239112 0.74234,-0.150574 0.44509,0.330303 -0.25658,0.415168 -0.21327,0.537798 0.11763,0.333233 0.685,-0.423334 4.70482,1.861868 4.21842,2.398088 -0.20518,0.226163 -0.13401,0.275402 0.15797,0.109438 0.59348,-0.337302 3.68479,1.376239 3.68479,2.042509 0,0.234512 -0.39097,0.780232 -0.86885,1.212704 -2.22415,2.012821 -8.00959,3.065329 -12.85199,2.338086 -6.97281,-1.04718 -8.37945,-1.146192 -7.82539,-0.550806 0.28861,0.310087 1.50042,0.846305 2.69304,1.191575 l 2.16831,0.627807 -2.06714,1.637193 -2.06712,1.637192 -3.77361,-0.608743 c -3.17681,-0.512479 -3.84326,-0.498711 -4.2141,0.08698 -0.24223,0.382656 -0.44048,0.918935 -0.44048,1.191727 0,0.272777 0.17879,0.214308 0.39733,-0.129929 0.30741,-0.484202 0.75784,-0.50023 1.98959,-0.07089 l 1.59229,0.55507 -2.19092,1.389415 c -1.79395,1.137691 -2.69503,1.375177 -4.97358,1.310789 -2.8893,-0.08166 -3.18605,0.06254 -2.1864,1.062102 0.46289,0.462905 -0.41886,0.595157 -3.96782,0.595157 -3.31568,0 -4.56504,-0.16947 -4.57056,-0.61996 -0.005,-0.420649 -0.1775,-0.380789 -0.53609,0.124011 -0.40095,0.564405 -0.45084,0.384855 -0.20682,-0.743971 z M 128.056,45.849761 c 0.61696,-0.786653 0.59939,-0.804184 -0.18723,-0.187261 -0.8262,0.64792 -1.08892,1.05521 -0.68073,1.05521 0.10307,0 0.4936,-0.390579 0.86796,-0.867949 z m -16.35159,18.025415 c -1.94372,-3.663915 -0.91101,-6.81139 1.99544,-6.081901 1.06735,0.267875 1.24729,0.610913 1.3193,2.514917 0.0457,1.212597 -0.19674,2.506128 -0.53912,2.874501 -0.34243,0.368372 -0.69431,0.99923 -0.78195,1.401922 -0.33975,1.560129 -0.8944,1.362746 -1.99367,-0.709439 z m -0.0788,-7.733938 c 0,-0.272792 -0.16739,-0.469539 -0.37198,-0.437239 -1.01769,0.160682 -1.62686,-0.151878 -2.13066,-1.093171 -0.77203,-1.44257 -0.47093,-1.546575 2.17345,-0.750725 1.27288,0.383081 2.4229,0.520798 2.55562,0.306065 0.13266,-0.214734 0.91358,-0.489105 1.73527,-0.609714 1.88891,-0.277226 1.97328,0.647888 0.18718,2.052815 -1.3432,1.056546 -4.14888,1.416297 -4.14888,0.531969 z m -2.18204,-4.627006 c -1.50698,-1.294912 -2.77772,-3.480283 -2.77772,-4.777002 0,-1.989688 2.62144,-5.752812 3.59037,-5.153996 0.20757,0.128261 0.37744,-0.003 0.37744,-0.291963 0,-0.840551 4.28835,-0.62984 5.17233,0.254137 0.42861,0.428662 0.77936,0.635914 0.77936,0.460553 0,-0.175359 0.29952,-0.01927 0.6656,0.346788 2.16151,2.161466 2.39641,5.367105 0.57433,7.836791 -0.68196,0.924353 -1.23993,1.509736 -1.23993,1.300862 0,-0.208875 -0.35075,-0.02899 -0.77936,0.399625 -1.2206,1.220582 -4.74698,1.012283 -6.36242,-0.375795 z"
     id="path887"
     inkscape:connector-curvature="0"
     sodipodi:nodetypes="cccsscccscsccccccsccccssccccsccccccccccccssccscccscccsscccscsccccsscsccccssscscccssccssccccsccccccsccsccscccccccsssccscccccccccccccsccscsssscscscccscsssccscccccccccccccccccccccccccsccscsssssssccssccsccsscccscccccccccccsccsscscsccscccscccccscccscscccscsscsssccscccccsccssccscccccscccsscsscsscscccsscccssscccscsccccccccccscccssccscscccccccccscsccccccccscsccscscsccccscscssccssccscccccccscscscccsccccssscssccccsscscssccccsssccccccsccsscssssssccscssccccssssssccccccccscscssccccccccsscccccccsccccsccsccssccccccsccsccscscccccccsccscscsssccccccccscsccscccsccscsssssscccccccccscscccccccscscssssccsccscsccscssccccccscssscsccscc" />
</svg>
