<?xml version="1.0" encoding="UTF-8" standalone="no"?>
<!-- Created with Inkscape (http://www.inkscape.org/) -->

<svg
   xmlns:dc="http://purl.org/dc/elements/1.1/"
   xmlns:cc="http://creativecommons.org/ns#"
   xmlns:rdf="http://www.w3.org/1999/02/22-rdf-syntax-ns#"
   xmlns:svg="http://www.w3.org/2000/svg"
   xmlns="http://www.w3.org/2000/svg"
   xmlns:sodipodi="http://sodipodi.sourceforge.net/DTD/sodipodi-0.dtd"
   xmlns:inkscape="http://www.inkscape.org/namespaces/inkscape"
   version="1.1"
   id="svg2"
   width="225"
   height="225"
   viewBox="0 0 225 225"
   sodipodi:docname="med.svg"
   inkscape:version="0.92.3 (2405546, 2018-03-11)">
  <metadata
     id="metadata8">
    <rdf:RDF>
      <cc:Work
         rdf:about="">
        <dc:format>image/svg+xml</dc:format>
        <dc:type
           rdf:resource="http://purl.org/dc/dcmitype/StillImage" />
        <dc:title />
      </cc:Work>
    </rdf:RDF>
  </metadata>
  <defs
     id="defs6" />
  <sodipodi:namedview
     pagecolor="#ffffff"
     bordercolor="#666666"
     borderopacity="1"
     objecttolerance="10"
     gridtolerance="10"
     guidetolerance="10"
     inkscape:pageopacity="0"
     inkscape:pageshadow="2"
     inkscape:window-width="1366"
     inkscape:window-height="707"
     id="namedview4"
     showgrid="false"
     inkscape:zoom="1.4142136"
     inkscape:cx="282.23839"
     inkscape:cy="112.10564"
     inkscape:window-x="0"
     inkscape:window-y="27"
     inkscape:window-maximized="1"
     inkscape:current-layer="svg2" />
  <path
     style="fill:#7c5d86;stroke-width:0.62585241;fill-opacity:1"
     d="m 110.20045,3.481507 c 18.61819,93.899818 9.30906,46.949919 0,0 z m 1.55675,205.853283 c -0.006,-0.83186 -0.1879,-5.66657 -0.40814,-10.74381 -0.37332,-8.60835 -0.32455,-9.2313 0.72213,-9.2313 1.05243,0 1.09444,0.6529 0.67391,10.47801 -0.24666,5.76292 -0.56809,10.59765 -0.71428,10.74381 -0.14615,0.14614 -0.2693,-0.41484 -0.27362,-1.24671 z m -4.56097,-8.44248 c -1.65618,-1.65616 -2.71376,-4.74933 -2.01205,-5.88469 0.21792,-0.35263 0.0789,-0.64114 -0.30874,-0.64114 -0.80372,0 -0.16644,-2.68694 0.71775,-3.02624 0.30085,-0.11546 0.4135,-0.42599 0.2502,-0.6901 -0.59412,-0.96138 1.3313,-2.75643 2.48277,-2.3146 1.04535,0.40115 1.0264,0.53381 -0.27378,1.91773 -2.84498,3.02835 -1.9348,10.26599 1.46384,11.64024 0.93696,0.37886 1.02245,0.54103 0.30016,0.5694 -0.55546,0.0217 -1.73451,-0.68498 -2.62015,-1.5706 z m 9.05254,0.0761 c 1.66244,-1.54152 2.91557,-5.88827 2.08501,-7.23218 -0.22987,-0.37196 -0.0419,-1.14043 0.41827,-1.70776 0.56431,-0.69616 0.58692,-0.88185 0.0695,-0.57112 -0.46074,0.27664 -1.45985,-0.27742 -2.50341,-1.38828 -1.10549,-1.17677 -3.30348,-2.35299 -6.04773,-3.2364 -4.63125,-1.49081 -9.46264,-5.1298 -8.86802,-6.67934 0.20165,-0.52537 0.0621,-0.70373 -0.35098,-0.4485 -0.45357,0.28034 -0.54848,-0.0101 -0.28031,-0.85358 0.22297,-0.70257 0.11243,-1.45855 -0.24584,-1.67996 -0.35825,-0.22139 -0.651335,-0.82498 -0.651335,-1.34129 0,-0.51632 0.240965,-0.78987 0.535435,-0.60786 0.29453,0.18196 0.41355,-0.30658 0.2646,-1.0858 -0.38252,-2.00132 1.6373,-4.27519 3.37686,-3.80155 1.45364,0.39576 1.5049,1.57385 0.1764,4.05613 -0.57703,1.07815 -0.56152,1.95289 0.07,3.95219 0.44611,1.41215 0.75992,2.7788 0.69733,3.03697 -0.0626,0.25814 0.0975,0.40073 0.35554,0.31679 0.25817,-0.0839 1.48741,0.47879 2.73167,1.25042 1.24425,0.77165 3.1407,1.57868 4.21436,1.79343 1.07359,0.21473 1.80121,0.63452 1.61676,0.93288 -0.18444,0.29837 0.0558,0.39257 0.53299,0.20932 0.73143,-0.28067 4.64256,3.44211 4.9093,4.67283 0.90924,4.19532 0.19797,8.36909 -1.75989,10.32693 -0.89098,0.89095 -1.93069,1.6199 -2.31054,1.6199 -0.37974,0 0.0539,-0.69038 0.96402,-1.53417 z m 0.242,-16.82781 c -1.05776,-0.77343 -1.06445,-0.8695 -0.0872,-1.24454 0.727,-0.27898 0.92771,-0.16338 0.64013,0.36874 -0.23038,0.42632 0.34816,-0.0698 1.28568,-1.10242 0.93752,-1.03265 1.88902,-1.82959 2.1144,-1.77095 0.68587,0.1785 0.34359,-5.6487 -0.41508,-7.06587 -0.94873,-1.77219 -4.45188,-3.36556 -7.41949,-3.37472 -5.35592,-0.0173 -14.700633,-3.96444 -13.599834,-5.74561 0.257118,-0.41599 0.149228,-0.52413 -0.266593,-0.26715 -1.17072,0.72354 -3.24993,-4.21783 -3.24993,-7.72364 0,-1.73481 0.281635,-3.15418 0.625859,-3.15418 0.344199,0 0.592483,-0.21125 0.551725,-0.4694 -0.04063,-0.25815 -0.0063,-0.68061 0.07836,-0.93877 0.239376,-0.73763 0.458259,-1.6682 0.543472,-2.31099 0.08719,-0.65715 1.395306,-0.48498 4.014991,0.52841 1.50205,0.58103 1.65219,0.85142 1.0732,1.93312 -0.37013,0.69168 -0.97758,1.25763 -1.34983,1.25763 -0.37225,0 -0.5296,0.56298 -0.34966,1.25109 0.17985,0.68808 0.0828,1.40213 -0.21605,1.58678 -0.30191,0.18654 -0.2738,1.04423 0.0632,1.93068 0.33358,0.87724 0.42008,1.89654 0.19235,2.26504 -0.23827,0.38551 -0.12064,0.48867 0.27705,0.24288 0.38013,-0.23493 0.97614,0.10524 1.32449,0.75625 0.34837,0.65087 1.48541,1.53633 2.52688,1.96772 1.04143,0.43138 1.75927,1.00147 1.59525,1.26686 -0.16396,0.26542 0.0506,0.45106 0.47732,0.41251 1.85954,-0.16797 11.74276,1.96686 12.35389,2.66845 0.17221,0.1976 0.87621,0.67159 1.56464,1.05334 0.68842,0.38171 1.18129,0.87457 1.09522,1.09522 -0.0859,0.22065 0.40684,0.96445 1.09526,1.65289 0.94825,0.94826 1.2517,2.08617 1.2517,4.6939 0,2.00545 -0.27662,3.44218 -0.66275,3.44218 -0.36458,0 -0.49921,0.26479 -0.29918,0.58838 0.51665,0.83601 -3.33428,5.0443 -4.61598,5.0443 -0.58698,0 -1.58301,-0.37718 -2.21345,-0.83813 z m -5.58293,-3.6993 c -0.20758,-0.77451 -0.38126,-3.02756 -0.38595,-5.00681 -0.008,-3.42362 0.0675,-3.59866 1.55613,-3.59866 1.35853,0 1.56462,0.27701 1.56462,2.10313 0,6.24614 -1.7124,10.3175 -2.7348,6.50234 z m 10.47202,-14.5251 c -0.72286,-0.50631 -1.49208,-0.74275 -1.70945,-0.52543 -0.21729,0.21735 -0.3951,0.093 -0.3951,-0.27642 0,-0.36936 -0.63367,-0.54093 -1.40814,-0.38126 -1.10447,0.22769 -1.00326,0.0636 0.46935,-0.76055 1.03267,-0.57797 2.55661,-1.65028 3.38663,-2.38293 0.83,-0.73263 1.31829,-0.99947 1.08504,-0.593 -0.23318,0.40651 -0.19414,0.88116 0.0867,1.05483 1.34645,0.83219 1.19488,-9.46588 -0.15743,-10.69616 -0.29354,-0.26702 -0.32683,-0.063 -0.0742,0.45326 0.28652,0.58519 0.12505,0.53103 -0.42868,-0.14365 -1.89835,-2.31308 -6.12711,-3.58251 -12.03441,-3.61255 -6.07961,-0.0309 -10.250948,-0.74145 -10.944846,-1.86415 -0.239388,-0.38729 -0.69106,-0.63139 -1.00375,-0.54244 -0.823239,0.23419 -4.263357,-1.70418 -5.307915,-2.99086 -0.780311,-0.96109 -0.774544,-1.03857 0.04581,-0.61282 0.516316,0.26806 0.342583,-0.0299 -0.386093,-0.66218 -1.782924,-1.54699 -2.718003,-4.60197 -2.404581,-7.85566 0.288007,-2.98971 2.083349,-7.49974 2.80733,-7.05231 0.257345,0.15899 0.429261,-0.11382 0.38208,-0.60625 -0.125429,-1.30849 0.159929,-1.31151 4.383222,-0.0463 l 3.843163,1.1512 -1.797329,1.51237 c -2.007284,1.689 -3.317452,5.54781 -2.707997,7.97592 0.813851,3.24259 6.275486,5.48848 13.255636,5.45094 2.15574,-0.0114 3.77475,0.21319 3.59776,0.49957 -0.17698,0.28641 0.20039,0.38416 0.8387,0.21724 1.43195,-0.37446 5.99709,0.80645 7.132,1.84492 0.46033,0.42119 1.3883,1.0916 2.06221,1.48985 0.67391,0.39824 1.15488,1.03194 1.06882,1.40817 -0.0859,0.37624 0.15515,0.61367 0.53611,0.52764 1.03059,-0.2328 3.18114,4.22585 3.52968,7.31775 0.35943,3.18899 -0.59656,6.46084 -2.55298,8.73771 -1.03566,1.20522 -1.59103,1.45277 -2.10541,0.93836 -0.51447,-0.5144 -0.67287,-0.40994 -0.6007,0.39592 0.13273,1.48245 -0.90067,1.74359 -2.49126,0.62949 z m -10.86648,-9.7267 v -6.88437 h 1.56464 1.56462 v 6.88437 6.88439 h -1.56462 -1.56464 z m 15.48984,-12.61723 c -2.63532,-1.16225 -4.06874,-3.02907 -2.32584,-3.02907 0.3558,0 1.50204,-0.87477 2.54722,-1.94394 1.70726,-1.74655 1.8566,-2.20726 1.4703,-4.53742 -0.34572,-2.08525 -4.03862,-8.60463 -4.03862,-7.12969 0,0.22235 -0.97095,-9.8e-4 -2.15768,-0.49724 -1.26561,-0.52879 -5.47053,-1.05952 -10.17012,-1.28361 -4.4068,-0.21012 -8.29404,-0.55586 -8.63825,-0.76831 -0.34423,-0.21243 -1.25954,-0.30438 -2.03402,-0.20432 -0.774507,0.10007 -1.408177,-0.13654 -1.408177,-0.52564 0,-0.38916 -0.290771,-0.52785 -0.646201,-0.30821 -0.973376,0.60161 -8.137505,-3.0511 -10.536837,-5.37232 -2.864645,-2.77142 -4.033055,-5.79853 -4.012537,-10.39533 0.01905,-4.20458 1.664461,-8.509695 4.053585,-10.604477 0.73896,-0.647853 1.137671,-0.825902 0.886106,-0.395619 -0.264499,0.452289 -0.111801,0.82141 0.361776,0.874976 0.450574,0.05098 1.241712,0.136571 1.758028,0.190201 2.461997,0.255893 5.632669,1.159753 5.632669,1.605696 0,0.273685 0.63367,0.357258 1.408151,0.185784 0.885336,-0.196094 0.450334,0.285862 -1.171703,1.298079 -3.264189,2.03698 -4.766298,4.32142 -4.846225,7.37028 -0.133303,5.08301 6.183119,8.36594 18.065605,9.38956 10.31104,0.88824 12.26021,1.17556 11.90247,1.75439 -0.1793,0.29002 0.23771,0.37989 0.92662,0.19974 0.72834,-0.19038 1.2526,-0.0194 1.2526,0.40825 0,0.40466 0.24646,0.58346 0.54769,0.39729 0.70783,-0.43748 5.4531,2.99456 6.28211,4.54365 0.35004,0.65397 0.43508,1.41204 0.18905,1.6846 -0.24603,0.27255 -0.0954,0.29297 0.33495,0.0454 0.69237,-0.39847 0.90341,-0.0294 0.72887,1.2748 -0.0295,0.21966 0.28375,0.60783 0.69594,0.86257 1.03566,0.64006 1.88394,5.47609 1.42531,8.12578 -0.42945,2.48154 -1.66602,4.67054 -3.80059,6.7279 -0.80356,0.77452 -1.51689,1.39901 -1.58517,1.38777 -0.0684,-0.0113 -1.462,-0.6104 -3.09703,-1.33149 z m -16.1157,-9.62012 v -6.59105 l 2.17095,0.14612 2.17102,0.14616 -0.0134,6.44486 -0.0134,6.44484 h -2.15763 -2.15768 v -6.59104 z m 22.27755,-13.53294 c 0.27638,-0.44722 0.1716,-0.55267 -0.27482,-0.27671 -0.86168,0.53254 -5.93377,-2.344 -5.28208,-2.99569 0.24865,-0.24869 -0.0319,-0.26633 -0.62401,-0.0392 -0.72295,0.27738 -1.07618,0.10473 -1.07618,-0.52585 0,-1.08293 1.67568,-1.8972 2.65656,-1.29093 0.39252,0.24258 0.48273,0.11483 0.21956,-0.3109 -0.24564,-0.39741 -0.16989,-0.72257 0.16816,-0.72257 0.33814,0 1.48134,-0.72912 2.5404,-1.62027 1.49172,-1.25521 1.92556,-2.12647 1.92556,-3.86713 0,-2.88972 -1.13749,-6.02043 -2.45673,-6.76153 -4.71566,-2.64921 -7.26007,-3.433307 -12.95333,-3.991757 -3.40001,-0.333523 -9.27981,-0.912782 -13.06625,-1.287265 -3.78638,-0.374471 -8.151699,-1.038526 -9.700674,-1.475648 -4.05867,-1.145381 -8.136092,-2.947069 -8.136092,-3.595048 0,-0.306848 -0.373385,-0.557908 -0.829701,-0.557908 -1.15463,0 -3.667618,-2.793665 -3.087628,-3.432483 0.261344,-0.287819 0.148824,-0.336577 -0.250165,-0.108394 -1.007244,0.57628 -3.785893,-2.897769 -4.566898,-5.70992 -1.284451,-4.624805 -0.441248,-13.905773 1.263327,-13.905773 0.298481,0 0.862244,-0.597253 1.252955,-1.327241 0.574854,-1.074136 0.549188,-1.232626 -0.134452,-0.83119 -1.618466,0.950322 1.676209,-2.418639 4.098634,-4.191128 1.895268,-1.386725 2.63202,-1.625949 3.300063,-1.071536 0.675047,0.560242 0.781699,0.509691 0.495913,-0.235035 -0.284008,-0.740121 0.720233,-1.241372 4.565725,-2.279013 5.45713,-1.472481 11.157513,-1.804984 10.417493,-0.607644 -0.27643,0.447272 -0.17182,0.552674 0.27489,0.276673 0.79257,-0.489851 3.40682,1.052388 2.91014,1.716764 -0.1699,0.227297 -0.11862,0.269872 0.11395,0.09463 0.49755,-0.374851 3.33214,2.156626 3.33214,2.975853 0,1.677672 -4.33509,3.606948 -8.07299,3.592777 -2.995211,-0.01136 -5.140252,-0.622994 -4.697515,-1.339405 0.207892,-0.336349 -0.329018,-0.407266 -1.27881,-0.168938 -0.900403,0.226012 -2.120953,0.448517 -2.712313,0.494486 -0.591309,0.04593 -1.589494,0.646857 -2.218091,1.335292 -0.636295,0.696839 -0.962499,0.835568 -0.735881,0.312929 0.239199,-0.551762 0.02183,-0.46641 -0.527661,0.206984 -0.51407,0.630174 -1.450272,1.566364 -2.080434,2.080434 -0.6302,0.514058 -0.74585,0.726758 -0.25713,0.472644 0.68094,-0.353991 0.777068,-0.181948 0.41138,0.735919 -0.262543,0.658831 -0.630301,2.808289 -0.817296,4.776519 -0.270064,2.842221 -0.100697,3.936888 0.823063,5.319739 0.639676,0.957615 1.076963,2.022754 0.971698,2.366978 -0.105113,0.344224 0.01136,0.423847 0.257597,0.176976 0.246845,-0.246883 1.152699,0.104861 2.012874,0.781371 3.146734,2.475234 10.783169,4.298135 19.928069,4.757074 7.3735,0.370029 8.40051,0.545832 7.41197,1.268653 -0.63117,0.461488 -0.82869,0.839101 -0.43904,0.839101 0.38973,0 0.88265,-0.281623 1.09537,-0.625846 0.63086,-1.02076 3.18689,-0.723263 7.88299,0.917463 5.28776,1.847431 8.86502,3.945288 8.29637,4.86535 -0.22745,0.368023 -0.12929,0.493465 0.21805,0.278784 0.76372,-0.472038 2.80462,1.662972 4.16554,4.357529 1.76778,3.50019 2.33918,7.39607 1.59424,10.8696 -0.68607,3.19914 -3.06893,6.62422 -4.01366,5.76922 -0.27906,-0.25258 -0.32068,-0.13294 -0.0925,0.26605 0.23063,0.40304 -0.44129,1.44577 -1.5123,2.34694 -1.98746,1.67236 -3.49776,2.17338 -2.7102,0.89913 z M 102.2067,58.983491 c -0.42934,-1.288091 -2.01694,-0.798928 -2.08972,0.643889 -0.0594,1.177457 0.10953,1.287795 1.13329,0.739932 0.66171,-0.35413 1.09212,-0.976847 0.95643,-1.383821 z m 7.68082,48.702389 v -7.823163 h 2.41279 2.41278 l -0.28475,7.353783 c -0.29472,7.61143 -0.54198,8.26532 -3.13265,8.28296 -1.38576,0.0101 -1.40817,-0.1152 -1.40817,-7.81358 z m 21.13367,-17.468973 c -3.00572,-1.407066 -5.46763,-2.699126 -5.47084,-2.871232 -0.006,-0.172181 1.7161,-0.84989 3.82065,-1.506198 2.64237,-0.824009 4.62579,-1.974109 6.40962,-3.716591 1.42075,-1.387848 2.724,-2.494427 2.89612,-2.459107 0.17218,0.03546 0.31293,-1.460645 0.31293,-3.324392 0,-1.863735 -0.18885,-3.388571 -0.4197,-3.38847 -0.23082,7.6e-5 -0.59657,-0.805321 -0.81279,-1.789751 -0.44374,-2.020294 -3.76661,-5.72033 -5.13726,-5.72033 -0.49581,0 -0.72737,-0.281636 -0.51463,-0.625834 0.47909,-0.775239 0.67986,-0.793498 -3.44218,0.312929 -3.82104,1.025593 -9.03037,1.253536 -8.48513,0.371291 0.19294,-0.312135 -0.21291,-0.4201 -0.90179,-0.239943 -0.72837,0.19039 -1.25256,0.01956 -1.25256,-0.408238 0,-0.404667 -0.24405,-0.584988 -0.54226,-0.400667 -0.29823,0.184257 -0.98438,-0.153418 -1.52484,-0.750721 -0.8962,-0.99031 -0.87731,-1.222935 0.21536,-2.645118 0.82288,-1.070969 1.2148,-1.265296 1.25158,-0.620509 0.0313,0.548785 0.28877,0.353776 0.61959,-0.4694 0.31138,-0.774488 0.8734,-1.40816 1.24903,-1.40816 0.37563,0 0.48197,0.325148 0.23637,0.722563 -0.27888,0.451256 -0.17142,0.552508 0.28622,0.269686 0.40299,-0.249095 0.57947,-0.700926 0.39209,-1.004088 -0.53924,-0.872498 1.88827,-1.86572 4.55997,-1.86572 2.94819,0 11.20507,2.043408 13.91088,3.442669 2.66244,1.376782 6.95202,5.327878 6.52845,6.013272 -0.1896,0.306734 -0.0154,0.557706 0.38509,0.557706 0.40235,0 0.56252,0.435709 0.35699,0.971269 -0.20496,0.53421 -0.12228,0.816501 0.18387,0.627297 0.30616,-0.189229 0.9023,1.096888 1.32475,2.857944 0.90448,3.77031 0.45691,10.5035 -0.74904,11.267975 -0.45856,0.290682 -0.59009,0.532821 -0.29233,0.538109 0.62335,0.01136 -1.05012,2.795229 -2.91641,4.852117 -1.04917,1.156258 -1.44383,1.265334 -2.26414,0.625847 -0.86951,-0.677861 -0.89066,-0.643071 -0.16932,0.278859 0.71041,0.907911 0.60613,1.196246 -0.75478,2.08798 -0.86844,0.569025 -1.91654,0.825978 -2.32903,0.571006 -0.44787,-0.276752 -0.58649,-0.198819 -0.3441,0.193418 0.9538,1.543208 -1.51582,1.040281 -6.61646,-1.347468 z M 124.90798,59.49525 c 0,-1.211302 -1.2286,-1.83806 -2.03076,-1.035952 -0.47601,0.476061 -0.43973,0.947371 0.12543,1.628385 0.88227,1.063094 1.9053,0.745016 1.9053,-0.592433 z m -12.98643,26.093331 -2.65989,-0.192434 v -8.192296 c 0,-6.848347 0.22313,-8.804223 1.36005,-11.922452 l 1.3601,-3.730157 1.26686,2.414198 c 1.04041,1.982564 1.31234,3.924736 1.52119,10.863193 0.33966,11.284833 0.41606,10.996156 -2.84831,10.759948 z M 71.433899,66.12546 c -0.192763,-0.31192 -0.9839,-0.417917 -1.758016,-0.235552 -0.774166,0.182339 2.079021,-1.40347 6.340334,-3.524044 4.261364,-2.1206 7.899127,-3.7044 8.083939,-3.519589 0.184826,0.184832 0.05085,0.336048 -0.298342,0.336048 -1.072773,0 -7.710301,6.002178 -7.710301,6.972273 0,0.719136 -4.211432,0.692776 -4.657614,-0.02915 z m 75.741541,-1.009542 c -0.56821,-0.867177 -2.07914,-2.567109 -3.35769,-3.777666 l -2.32467,-2.200977 5.31975,2.621746 c 2.92584,1.441994 5.49203,2.884342 5.70263,3.205259 0.2106,0.320917 0.56263,0.55941 0.78231,0.530008 0.21967,-0.02953 0.89228,-0.02524 1.49465,0.0101 1.84641,0.105113 -1.79712,1.058047 -4.30898,1.126933 -1.77967,0.04883 -2.49989,-0.280879 -3.308,-1.514249 z m -93.891429,0.456555 c -1.356986,-0.12177 -2.856455,-0.694151 -3.332172,-1.271819 -0.475659,-0.577656 -0.686493,-0.69824 -0.468563,-0.267982 0.478832,0.945224 0.256026,0.964051 -1.864995,0.157632 -2.18859,-0.832086 -1.560987,-1.62017 1.704144,-2.139881 1.470559,-0.234076 3.891539,-0.838054 5.379942,-1.342219 1.488412,-0.50414 3.010539,-0.728575 3.382424,-0.498714 0.402419,0.248726 0.495423,0.12543 0.229686,-0.304626 -0.258165,-0.417652 -0.06837,-0.722541 0.449555,-0.722541 0.492913,0 2.235172,-0.592301 3.871698,-1.316227 2.448666,-1.083128 3.080765,-1.166254 3.569429,-0.469394 0.486859,0.694314 0.549927,0.684469 0.349996,-0.05478 -0.164147,-0.607032 1.618871,-1.844251 5.457914,-3.787084 3.136033,-1.587019 6.384941,-3.363982 7.219891,-3.948775 1.60562,-1.124636 4.36876,-1.445283 4.36876,-0.506974 0,0.305976 0.492872,0.5172 1.095247,0.469395 0.608017,-0.04828 1.018766,0.281766 0.923255,0.741908 -0.09464,0.455873 0.116092,0.650817 0.468139,0.433252 0.777624,-0.480618 4.451754,1.586367 4.030745,2.267599 -0.164345,0.266023 -0.758607,0.307319 -1.320363,0.09175 -0.63049,-0.241927 -0.865563,-0.139821 -0.614162,0.26698 0.518475,0.838885 -18.881705,10.559866 -22.732575,11.390804 -3.460024,0.746581 -8.872084,1.107588 -12.167995,0.811643 z m 112.752359,0.10789 c -0.26517,-0.265156 -1.57808,-0.417438 -2.91772,-0.338382 -1.33956,0.07912 -2.60824,-0.135612 -2.81926,-0.477173 -0.21111,-0.341486 -0.84341,-0.444492 -1.40518,-0.228928 -0.642,0.246379 -0.86673,0.141745 -0.60493,-0.2819 0.26008,-0.420857 -0.0207,-0.559586 -0.74734,-0.369486 -1.50498,0.39355 -15.21104,-6.009902 -14.68514,-6.860852 0.22024,-0.356369 0.0872,-0.448172 -0.30154,-0.207949 -0.6734,0.416186 -7.28947,-2.928606 -7.96966,-4.029086 -0.53248,-0.86162 4.51245,-3.756992 5.7314,-3.289264 0.72383,0.277782 0.92254,0.173911 0.61594,-0.322183 -0.29125,-0.47129 0.0212,-0.7322 0.87724,-0.7322 1.56476,0 3.56888,0.959054 5.31557,2.543717 0.68844,0.624575 1.53334,1.156028 1.87757,1.180985 1.61742,0.117215 2.79455,0.811054 2.41578,1.423869 -0.24053,0.389199 -0.12852,0.4982 0.26298,0.256159 0.74087,-0.457864 6.39609,2.049995 6.39609,2.836418 0,0.264815 0.42246,0.319386 0.93876,0.121239 0.51633,-0.198141 0.93878,-0.09538 0.93878,0.228253 0,0.323674 0.35207,0.617871 0.78233,0.653785 0.43028,0.03581 3.31702,0.935857 6.41499,1.999924 3.09797,1.064053 6.82961,2.105621 8.29255,2.314585 3.04362,0.43475 3.3777,1.161255 1.02662,2.232477 -1.4069,0.641026 -1.76459,0.574148 -2.58157,-0.482827 -0.92449,-1.195982 -0.94009,-1.191401 -0.61591,0.181191 0.28396,1.202518 0.0784,1.408164 -1.40816,1.408164 -0.95741,0 -2.55242,0.162427 -3.54443,0.360741 -0.99198,0.198416 -2.02059,0.14384 -2.28576,-0.121391 z M 31.030124,60.659092 c -3.546133,-0.662049 -8.13607,-2.17338 -8.13607,-2.678917 0,-0.835361 1.575256,-1.248291 3.72445,-0.976291 1.071635,0.135606 1.801447,0.0096 1.621817,-0.281977 -0.29163,-0.471828 3.447766,-1.33814 6.889451,-1.59608 0.705839,-0.05286 1.639859,-0.316548 2.075644,-0.585884 0.435782,-0.269336 0.958937,-0.323119 1.16252,-0.119524 0.203581,0.203584 0.719421,0.08025 1.146179,-0.273894 0.426837,-0.354244 1.327761,-0.750299 2.001986,-0.880161 2.464725,-0.474641 10.509868,-2.89809 11.550615,-3.47938 0.588735,-0.328847 1.550218,-0.413793 2.136645,-0.188853 0.65051,0.249628 0.912186,0.159931 0.671098,-0.230149 -0.22411,-0.362614 0.747159,-0.977671 2.244257,-1.421169 1.451653,-0.430034 4.137016,-1.462445 5.967376,-2.294241 1.830359,-0.831799 3.634073,-1.323162 4.008264,-1.091901 0.382214,0.236218 0.502381,0.132542 0.274262,-0.236509 -0.463012,-0.749207 0.923419,-1.416858 2.923725,-1.407914 0.746316,0.0038 2.573432,0.973168 4.060285,2.155187 l 2.703354,2.149118 -2.390424,1.478283 c -5.459717,3.376376 -8.193803,4.784404 -8.566543,4.411678 -0.217435,-0.217431 -0.395286,-0.03658 -0.395286,0.401801 0,0.496649 -0.405694,0.641449 -1.076173,0.384161 -0.591934,-0.227141 -0.864602,-0.201418 -0.606068,0.05707 0.584296,0.584258 -8.198052,4.133281 -9.000636,3.637263 -0.320359,-0.19797 -0.582474,-0.08504 -0.582474,0.250968 0,0.689565 -6.07985,2.150656 -6.883242,1.654138 -0.286026,-0.176792 -0.637622,0.03117 -0.781329,0.462322 -0.187132,0.561226 -2.379173,0.813447 -7.720137,0.888301 -4.102406,0.05741 -8.162997,-0.02675 -9.023546,-0.187513 z m 27.537512,-4.359998 c 0,-0.135225 -0.422451,-0.245951 -0.938779,-0.245951 -0.516337,0 -0.938786,0.272784 -0.938786,0.606208 0,0.333404 0.422449,0.444094 0.938786,0.245969 0.516328,-0.198142 0.938779,-0.470927 0.938779,-0.606226 z m 115.156844,3.128949 c -3.27007,-0.833635 -6.04006,-1.794968 -6.15551,-2.136284 -0.11546,-0.341314 -0.45004,-0.472189 -0.74347,-0.290824 -0.87755,0.54233 -8.78414,-2.885338 -8.33435,-3.613113 0.23684,-0.383203 0.10587,-0.471731 -0.31386,-0.212297 -0.68103,0.420936 -7.72458,-2.952374 -10.4257,-4.993138 -1.22577,-0.926127 -1.20756,-0.98424 0.88216,-2.809127 3.31549,-2.895315 4.38234,-2.897997 10.92745,-0.02757 3.22469,1.414254 6.19824,2.571355 6.60792,2.571355 0.40969,0 0.54386,0.325148 0.29828,0.722563 -0.28232,0.456793 -0.17103,0.552271 0.30246,0.259607 0.85843,-0.530531 6.95462,1.492304 6.95462,2.307669 0,0.296534 0.23763,0.3923 0.52802,0.212795 0.29045,-0.17947 3.59966,0.508026 7.35377,1.527815 5.58911,1.518257 18.40156,4.300032 20.15683,4.376379 1.3586,0.05899 -2.32104,1.387936 -6.84872,2.473343 -6.97604,1.672361 -13.63675,1.55632 -21.1899,-0.369208 z M 113.2926,58.944572 c -0.683,-2.721326 -0.11824,-3.814203 2.08052,-4.026655 1.39644,-0.134841 2.15044,0.108975 2.40741,0.778723 0.20582,0.536336 0.66985,0.792438 1.03122,0.569127 0.39667,-0.245184 0.46959,-0.102855 0.18407,0.359184 -0.26011,0.42088 -0.88153,0.608429 -1.3809,0.416799 -0.49938,-0.191631 -0.75915,-0.10765 -0.57729,0.186555 0.18195,0.294274 -0.15552,0.952292 -0.74983,1.462273 -2.09041,1.793898 -2.5978,1.836914 -2.99514,0.253936 z m -4.34279,-0.386804 c -0.60769,-0.671541 -1.64585,-1.392671 -2.30703,-1.602515 -1.88362,-0.597817 -0.1624,-2.153827 2.38256,-2.153827 1.99173,0 2.11389,0.124495 2.11389,2.153558 0,2.659348 -0.74176,3.202379 -2.18942,1.602784 z M 87.356824,56.678983 c 0,-0.344206 0.281648,-0.62584 0.625859,-0.62584 0.344237,0 0.625859,0.281634 0.625859,0.62584 0,0.344226 -0.281622,0.625859 -0.625859,0.625859 -0.344211,0 -0.625859,-0.281633 -0.625859,-0.625859 z m 47.564786,-0.07873 c -0.86054,-0.343842 -2.97278,-0.949035 -4.69388,-1.344862 l -3.12925,-0.719673 2.50339,-0.336583 c 1.89571,-0.254857 3.14911,0.01914 5.16328,1.125095 3.51787,1.93316 3.60629,2.65444 0.1565,1.276023 z M 89.234401,56.066449 c 0,-1.199717 2.910261,-2.220751 5.319739,-1.866334 l 2.503411,0.368226 -1.877552,0.45568 c -1.032658,0.250621 -2.79287,0.699139 -3.911587,0.996708 -1.118718,0.297549 -2.034011,0.31814 -2.034011,0.04578 z M 101.595,55.01272 c 0.43024,-0.173529 1.13434,-0.173529 1.56462,0 0.43026,0.17353 0.0781,0.315669 -0.78233,0.315669 -0.86053,0 -1.21259,-0.142119 -0.78229,-0.315669 z m 19.72623,-0.01914 c 0.60895,-0.158591 1.45384,-0.148248 1.87756,0.02318 0.42371,0.171423 -0.0746,0.301265 -1.10714,0.28851 -1.03267,-0.0134 -1.37938,-0.153036 -0.77042,-0.311704 z M 11.814268,54.144616 C 8.8317819,53.555473 6.8020732,52.586748 5.3960872,51.081399 4.6604637,50.29381 4.5743466,50.278468 5.0333456,51.016855 5.3644321,51.549398 4.730063,51.15725 3.623627,50.145447 1.3765043,48.090452 1.7911716,47.31715 5.1491279,47.300811 8.5373147,47.283574 27.776446,43.556461 37.914518,40.95203 c 10.593859,-2.721518 10.926945,-2.808974 12.986417,-3.409684 1.056829,-0.308256 1.408186,-0.15342 1.408186,0.620669 0,0.567287 0.420816,1.192917 0.935144,1.390292 0.514389,0.197358 0.808417,0.564033 0.653388,0.814828 -0.154951,0.250777 0.05762,0.497972 0.473011,0.549322 1.937778,0.239705 9.197657,2.346607 9.200548,2.670109 0.0062,0.594466 -4.530297,1.805675 -5.203546,1.389604 -0.37519,-0.231891 -0.417374,-0.05593 -0.107069,0.446161 0.375059,0.606898 0.224668,0.718523 -0.561637,0.416798 -0.590695,-0.226662 -0.926398,-0.173338 -0.746082,0.118376 0.27718,0.44846 -6.79995,2.822515 -8.711866,2.922457 -0.344233,0.01724 -1.32994,0.419327 -2.190491,0.891864 -0.86054,0.472516 -1.564627,0.793355 -1.564627,0.712968 0,-0.08046 -0.422449,-0.01148 -0.938787,0.153994 -4.300335,1.375066 -12.671809,2.945115 -13.797779,2.587748 -0.831891,-0.26405 -1.231243,-0.198046 -1.006058,0.166253 0.746391,1.207704 -11.799327,1.764093 -16.929066,0.750759 z m 186.167482,-0.0058 c -4.10458,-0.566675 -16.73949,-3.382676 -18.6246,-4.150943 -0.51635,-0.210399 -1.24545,-0.449281 -1.62027,-0.530799 -3.12845,-0.680332 -11.52263,-3.719988 -11.52263,-4.172411 0,-0.314004 -0.21124,-0.451008 -0.46941,-0.304465 -0.25813,0.146524 -1.87755,-0.256369 -3.59865,-0.895388 l -3.12926,-1.161829 2.65989,0.166636 c 1.46293,0.09155 2.65986,-0.02968 2.65986,-0.269642 0,-0.239917 0.91531,-0.634422 2.03402,-0.876674 1.11873,-0.242273 2.76989,-0.960413 3.66931,-1.595869 0.89935,-0.635473 1.82957,-0.961083 2.06706,-0.72358 0.23754,0.237504 0.25693,-0.02394 0.043,-0.581041 -0.70896,-1.847561 0.86525,-1.844269 7.0396,0.01533 6.44093,1.93929 17.6375,4.577662 24.73198,5.827905 2.32348,0.409464 4.22449,0.994047 4.22449,1.299085 0,0.305038 0.27043,0.387475 0.60095,0.183298 0.53555,-0.33099 10.30529,0.701478 12.44727,1.315403 0.61378,0.17583 0.44291,0.664914 -0.62585,1.791694 -1.50692,1.5888 -2.83569,2.142756 -2.03602,0.848824 0.27892,-0.451255 0.17142,-0.552501 -0.2862,-0.26968 -0.40301,0.24909 -0.56658,0.721722 -0.36351,1.050299 0.20302,0.32856 -0.96625,1.188129 -2.59843,1.910119 -3.47739,1.538235 -10.84043,2.016784 -17.3028,1.124578 z m 7.66119,-7.719597 c 0,-0.135224 -0.43709,-0.413697 -0.97132,-0.618696 -0.55693,-0.213715 -0.80815,-0.108798 -0.58886,0.245968 0.36749,0.594697 1.56018,0.879604 1.56018,0.372728 z m -106.744708,5.57873 c 1.120988,-0.878246 0.893613,-0.951814 -2.941682,-0.951814 -2.952142,0 -4.301604,-0.259127 -4.657021,-0.894314 -0.275313,-0.491879 -0.641329,-0.868437 -0.813422,-0.836816 -0.172181,0.03161 -1.135109,-0.373263 -2.139919,-0.899753 L 86.519199,47.458 88.815576,46.700117 c 3.492763,-1.152715 2.75138,-1.913184 -1.704134,-1.747928 -2.200311,0.08159 -3.873466,0.359587 -3.718194,0.617739 0.155348,0.25817 -0.314166,0.469394 -1.043221,0.469394 -0.825813,0 -1.160838,-0.266561 -0.888591,-0.707051 0.266606,-0.431376 0.09779,-0.588165 -0.432466,-0.402166 -0.992292,0.34796 -4.311624,-1.773382 -4.311624,-2.755477 0,-0.357615 0.422447,-0.488089 0.938789,-0.289945 0.516317,0.198124 0.938763,0.149207 0.938763,-0.108785 0,-0.257959 0.915318,-0.837219 2.034023,-1.287267 3.325604,-1.337852 0.900353,-1.507473 -6.025499,-0.421415 -6.674174,1.046566 -11.35134,0.777804 -15.721726,-0.903431 -1.991028,-0.765947 -4.069179,-2.390718 -4.069179,-3.181449 0,-0.610518 6.329247,-4.532786 7.326859,-4.540466 0.415437,-0.0038 0.910683,-0.410536 1.100504,-0.905212 0.194382,-0.506534 0.767103,-0.737486 1.31116,-0.528712 0.531278,0.203888 0.819617,0.133882 0.640685,-0.155719 -0.458073,-0.741124 10.129294,-5.881094 11.002402,-5.341465 0.472593,0.292073 0.543813,0.163188 0.209091,-0.378261 -0.378067,-0.611723 -0.162982,-0.731068 0.842963,-0.467977 0.742783,0.194217 1.200903,0.111094 1.018109,-0.18464 -0.528746,-0.85547 5.849381,-2.474783 9.74758,-2.474783 3.8344,0 7.250996,1.820922 6.599988,3.517538 -0.182352,0.474891 -0.06133,0.86342 0.269042,0.86342 0.344728,0 0.597316,2.731859 0.593189,6.414996 -0.0063,3.528242 0.08366,7.002377 0.195009,7.720326 0.22075,1.424366 4.370322,5.891952 5.472592,5.891952 0.37601,0 0.55455,0.211226 0.39684,0.469396 -0.15783,0.258169 1.14995,0.552615 2.90602,0.654301 3.22352,0.186747 5.091,1.056084 4.4604,2.076486 -0.18868,0.305211 -0.0722,0.554932 0.25854,0.554932 0.33087,0 0.87423,0.782096 1.20744,1.737951 l 0.60585,1.737947 -6.64669,0.152654 c -6.048367,0.138862 -6.537352,0.06704 -5.431858,-0.79916 z m 15.049058,-0.638884 c 0.69741,-3.225598 2.02084,-4.692487 4.24717,-4.707637 2.73166,-0.01914 6.83558,-1.964706 8.43739,-4.001066 1.77183,-2.252486 2.72364,-7.091823 2.32278,-11.809802 -0.73301,-8.627187 2.30338,-11.093003 11.70405,-9.50478 1.32239,0.223427 2.2477,0.659667 2.05623,0.969434 -0.19153,0.30977 0.0363,0.415745 0.50602,0.235493 1.05688,-0.405575 9.89973,3.24345 10.87531,4.487715 0.3916,0.499428 0.95485,0.852809 1.25169,0.785257 0.95807,-0.217987 2.73374,0.815594 2.38119,1.386041 -0.18809,0.304215 0.14136,0.36765 0.73212,0.14097 0.78633,-0.301727 0.93673,-0.190004 0.56165,0.416797 -0.32377,0.523886 -0.26912,0.678628 0.14843,0.420495 0.86437,-0.53419 5.93684,2.349423 5.32307,3.02606 -0.25891,0.285387 -0.1691,0.347519 0.19933,0.138096 0.7489,-0.42563 4.64971,1.736625 4.64971,2.577367 0,0.295922 -0.49335,0.984546 -1.09637,1.530267 -2.80658,2.539905 -10.10701,3.868027 -16.21746,2.950345 -8.79873,-1.321398 -10.57372,-1.446337 -9.87457,-0.695042 0.36418,0.391288 1.89332,1.067922 3.39824,1.503605 l 2.73612,0.792207 -2.60845,2.065914 -2.60843,2.065913 -4.76178,-0.768151 c -4.0087,-0.646678 -4.84967,-0.629305 -5.31762,0.109757 -0.30566,0.48286 -0.55582,1.159571 -0.55582,1.503797 0,0.344207 0.22561,0.270428 0.50138,-0.163953 0.3879,-0.610996 0.95629,-0.631222 2.51059,-0.08945 l 2.00925,0.700423 -2.76464,1.753252 c -2.26372,1.43561 -3.40076,1.735285 -6.27598,1.654036 -3.6459,-0.103043 -4.02036,0.07892 -2.75894,1.340228 0.5841,0.584123 -0.52854,0.751007 -5.00685,0.751007 -4.18393,0 -5.76046,-0.213848 -5.76742,-0.782305 -0.006,-0.530801 -0.22398,-0.480504 -0.67647,0.156485 -0.50595,0.712202 -0.5689,0.485635 -0.26098,-0.93879 z m 17.29901,-27.06809 c 0.77852,-0.992649 0.75635,-1.014771 -0.23625,-0.236298 -1.04256,0.817587 -1.37407,1.331531 -0.85899,1.331531 0.13006,0 0.62285,-0.492857 1.09524,-1.095233 z m -20.63347,22.745613 c -2.45271,-4.623361 -1.14957,-8.595044 2.51797,-7.674529 1.34685,0.338022 1.57391,0.770889 1.66478,3.173482 0.0577,1.530132 -0.24826,3.162392 -0.6803,3.627228 -0.4321,0.464835 -0.87612,1.260892 -0.98671,1.769034 -0.42872,1.96867 -1.12861,1.7196 -2.51574,-0.895215 z m -0.0994,-9.759174 c 0,-0.344226 -0.21122,-0.592494 -0.46938,-0.551736 -1.28419,0.202759 -2.05288,-0.191649 -2.68861,-1.379432 -0.97419,-1.820327 -0.59424,-1.951567 2.7426,-0.947313 1.6062,0.483396 3.05737,0.657176 3.22485,0.386212 0.16739,-0.270965 1.15281,-0.617183 2.18967,-0.769376 2.38355,-0.349821 2.49001,0.817547 0.2362,2.590373 -1.69494,1.333217 -5.23533,1.787173 -5.23533,0.671272 z M 107.76,31.438764 c -1.9016,-1.634002 -3.50511,-4.391642 -3.50511,-6.027924 0,-2.510715 3.3079,-7.259264 4.53056,-6.50364 0.26193,0.161848 0.47628,-0.0038 0.47628,-0.368417 0,-1.060661 5.41131,-0.794772 6.52677,0.320686 0.54085,0.540913 0.98345,0.802437 0.98345,0.581155 0,-0.221279 0.37795,-0.02432 0.8399,0.437599 2.72753,2.727475 3.02394,6.772554 0.72472,9.888961 -0.86054,1.166407 -1.56462,1.90508 -1.56462,1.64151 0,-0.263572 -0.4426,-0.03658 -0.98345,0.504272 -1.54023,1.540208 -5.99004,1.277363 -8.0285,-0.474202 z"
     id="path887"
     inkscape:connector-curvature="0"
     sodipodi:nodetypes="cccsscccscsccccccsccccssccccsccccccccccccssccscccscccsscccscsccccsscsccccssscscccssccssccccsccccccsccsccscccccccsssccscccccccccccccsccscsssscscscccscsssccscccccccccccccccccccccccccsccscsssssssccssccsccsscccscccccccccccsccsscscsccscccscccccscccscscccscsscsssccscccccsccssccscccccscccsscsscsscscccsscccssscccscsccccccccccscccssccscscccccccccscsccccccccscsccscscsccccscscssccssccscccccccscscscccsccccssscssccccsscscssccccsssccccccsccsscssssssccscssccccssssssccccccccscscssccccccccsscccccccsccccsccsccssccccccsccsccscscccccccsccscscsssccccccccscsccscccsccscsssssscccccccccscscccccccscscssssccsccscsccscssccccccscssscsccscc" />
  <path
     style="fill:#342738;stroke-width:0.62585241;fill-opacity:1"
     d="m 110.21457,3.5256419 c 18.61819,93.8998191 9.30906,46.9499191 0,0 z m 1.55675,205.8532781 c -0.006,-0.83186 -0.1879,-5.66657 -0.40814,-10.74381 -0.37332,-8.60835 -0.32455,-9.2313 0.72213,-9.2313 1.05243,0 1.09444,0.6529 0.67391,10.47801 -0.24666,5.76292 -0.56809,10.59765 -0.71428,10.74381 -0.14615,0.14614 -0.2693,-0.41484 -0.27362,-1.24671 z m -0.84936,-28.89349 c -0.20758,-0.77451 -0.38126,-3.02756 -0.38595,-5.00681 -0.008,-3.42362 0.0675,-3.59866 1.55613,-3.59866 1.35853,0 1.56462,0.27701 1.56462,2.10313 0,6.24614 -1.7124,10.3175 -2.7348,6.50234 z m -0.39446,-24.2518 v -6.88437 h 1.56464 1.56462 v 6.88437 6.88439 h -1.56462 -1.56464 z m -0.62586,-22.23735 v -6.59105 l 2.17095,0.14612 2.17102,0.14616 -0.0134,6.44486 -0.0134,6.44484 h -2.15763 -2.15768 v -6.59104 z m 0,-26.26627 v -7.823159 h 2.41279 2.41278 l -0.28475,7.353779 c -0.29472,7.61143 -0.54198,8.26532 -3.13265,8.28296 -1.38576,0.0101 -1.40817,-0.1152 -1.40817,-7.81358 z m 2.03403,-22.097294 -2.65989,-0.192434 v -8.192296 c 0,-6.848347 0.22313,-8.804223 1.36005,-11.922452 l 1.3601,-3.730157 1.26686,2.414198 c 1.04041,1.982564 1.31234,3.924736 1.52119,10.863193 0.33966,11.284833 0.41606,10.996156 -2.84831,10.759948 z m -1.30872,-38.551993 c -2.45271,-4.623361 -1.14957,-8.595044 2.51797,-7.674529 1.34685,0.338022 1.57391,0.770889 1.66478,3.173482 0.0577,1.530132 -0.24826,3.162392 -0.6803,3.627228 -0.4321,0.464835 -0.87612,1.260892 -0.98671,1.769034 -0.42872,1.96867 -1.12861,1.7196 -2.51574,-0.895215 z m -0.0994,-9.759174 c 0,-0.344226 -0.21122,-0.592494 -0.46938,-0.551736 -1.28419,0.202759 -2.05288,-0.191649 -2.68861,-1.379432 -0.97419,-1.820327 -0.59424,-1.951567 2.7426,-0.947313 1.6062,0.483396 3.05737,0.657176 3.22485,0.386212 0.16739,-0.270965 1.15281,-0.617183 2.18967,-0.769376 2.38355,-0.349821 2.49001,0.817547 0.2362,2.590373 -1.69494,1.333217 -5.23533,1.787173 -5.23533,0.671272 z m -2.75343,-5.83865 c -1.9016,-1.634002 -3.50511,-4.391642 -3.50511,-6.027924 0,-2.510715 3.3079,-7.259264 4.53056,-6.50364 0.26193,0.161848 0.47628,-0.0038 0.47628,-0.368417 0,-1.060661 5.41131,-0.794772 6.52677,0.320686 0.54085,0.540913 0.98345,0.802437 0.98345,0.581155 0,-0.221279 0.37795,-0.02432 0.8399,0.437599 2.72753,2.727475 3.02394,6.772554 0.72472,9.888961 -0.86054,1.166407 -1.56462,1.90508 -1.56462,1.64151 0,-0.263572 -0.4426,-0.03658 -0.98345,0.504272 -1.54023,1.540208 -5.99004,1.277363 -8.0285,-0.474202 z"
     id="path887-3"
     inkscape:connector-curvature="0"
     sodipodi:nodetypes="cccsscccssccsscccccccscccccccccccscscccssscccssccssscsccscccscscscsccscc" />
</svg>
