<?xml version="1.0" encoding="UTF-8" standalone="no"?>
<!-- Created with Inkscape (http://www.inkscape.org/) -->

<svg
   xmlns:dc="http://purl.org/dc/elements/1.1/"
   xmlns:cc="http://creativecommons.org/ns#"
   xmlns:rdf="http://www.w3.org/1999/02/22-rdf-syntax-ns#"
   xmlns:svg="http://www.w3.org/2000/svg"
   xmlns="http://www.w3.org/2000/svg"
   xmlns:xlink="http://www.w3.org/1999/xlink"
   xmlns:sodipodi="http://sodipodi.sourceforge.net/DTD/sodipodi-0.dtd"
   xmlns:inkscape="http://www.inkscape.org/namespaces/inkscape"
   version="1.1"
   id="svg2"
   width="2000"
   height="993"
   viewBox="0 0 2000 993"
   sodipodi:docname="redes.svg"
   inkscape:version="0.92.3 (2405546, 2018-03-11)">
  <metadata
     id="metadata8">
    <rdf:RDF>
      <cc:Work
         rdf:about="">
        <dc:format>image/svg+xml</dc:format>
        <dc:type
           rdf:resource="http://purl.org/dc/dcmitype/StillImage" />
        <dc:title></dc:title>
      </cc:Work>
    </rdf:RDF>
  </metadata>
  <defs
     id="defs6">
    <linearGradient
       inkscape:collect="always"
       id="linearGradient2469">
      <stop
         style="stop-color:#000000;stop-opacity:1;"
         offset="0"
         id="stop2465" />
      <stop
         style="stop-color:#000000;stop-opacity:0;"
         offset="1"
         id="stop2467" />
    </linearGradient>
    <linearGradient
       inkscape:collect="always"
       id="linearGradient2451">
      <stop
         style="stop-color:#000000;stop-opacity:1;"
         offset="0"
         id="stop2447" />
      <stop
         style="stop-color:#000000;stop-opacity:0;"
         offset="1"
         id="stop2449" />
    </linearGradient>
    <radialGradient
       inkscape:collect="always"
       xlink:href="#linearGradient2451"
       id="radialGradient2453"
       cx="1310.6874"
       cy="583.30736"
       fx="1310.6874"
       fy="583.30736"
       r="104.72365"
       gradientTransform="matrix(1,0,0,1.0814355,0,-47.501909)"
       gradientUnits="userSpaceOnUse" />
    <radialGradient
       inkscape:collect="always"
       xlink:href="#linearGradient2469"
       id="radialGradient2475"
       cx="854.08948"
       cy="585.05182"
       fx="854.08948"
       fy="585.05182"
       r="105.02316"
       gradientTransform="matrix(1,0,0,1.0835928,0,-48.906125)"
       gradientUnits="userSpaceOnUse" />
    <radialGradient
       inkscape:collect="always"
       xlink:href="#linearGradient2469"
       id="radialGradient2477"
       cx="624.99432"
       cy="592.65833"
       fx="624.99432"
       fy="592.65833"
       r="104.79966"
       gradientTransform="matrix(1,0,0,1.0859037,0,-50.911535)"
       gradientUnits="userSpaceOnUse" />
  </defs>
  <sodipodi:namedview
     pagecolor="#ffffff"
     bordercolor="#666666"
     borderopacity="1"
     objecttolerance="10"
     gridtolerance="10"
     guidetolerance="10"
     inkscape:pageopacity="0"
     inkscape:pageshadow="2"
     inkscape:window-width="1366"
     inkscape:window-height="707"
     id="namedview4"
     showgrid="false"
     inkscape:zoom="0.3653029"
     inkscape:cx="845.39263"
     inkscape:cy="322.09517"
     inkscape:window-x="0"
     inkscape:window-y="27"
     inkscape:window-maximized="1"
     inkscape:current-layer="svg2" />
  <path
     style="fill:#000000;stroke:#000000;stroke-width:1.05316293;stroke-miterlimit:3.79999995;stroke-dasharray:none;stroke-opacity:1"
     d="m 259.7441,342.75381 c -2.14105,-0.49927 -5.52124,-1.58568 -7.51153,-2.41424 -6.04648,-2.51716 -62.90491,-34.81083 -68.30829,-38.79681 -8.79063,-6.48471 -15.05328,-16.02761 -17.50858,-26.67927 -0.97823,-4.24376 -1.73534,-37.16094 -1.5055,-65.45566 0.15977,-19.67098 0.21529,-20.75387 1.25107,-24.39992 2.96948,-10.45293 9.38805,-19.49626 18.24907,-25.71171 4.0781,-2.86053 57.92672,-34.42945 63.18978,-37.0452 13.03893,-6.4804 26.6186,-6.98833 39.59557,-1.48104 4.81652,2.04409 59.47086,32.9929 65.9012,37.3175 4.13289,2.77952 9.42396,8.00004 12.24701,12.08373 3.13975,4.5418 5.07493,8.81028 6.60899,14.57756 l 1.21113,4.55325 0.46131,36.38199 c 0.56073,44.22371 0.39763,46.78418 -3.60316,56.5645 -2.66387,6.51207 -8.89684,14.2669 -14.95157,18.60216 -4.92928,3.52942 -56.91918,34.06985 -64.44134,37.85478 -6.99628,3.52032 -11.45598,4.5988 -19.81169,4.79098 -5.793,0.13324 -7.93294,-0.0102 -11.07347,-0.7426 z m 17.61363,-0.69974 c 4.28552,-0.82301 8.78404,-2.33592 12.60825,-4.24033 7.08823,-3.52984 60.59306,-35.03631 64.86526,-38.1961 10.41658,-7.70425 16.38328,-18.70769 17.65593,-32.56003 0.34023,-3.70333 0.37668,-16.99039 0.11283,-41.13427 l -0.38973,-35.66392 -1.25876,-4.7871 c -2.6038,-9.90245 -7.82625,-18.04613 -15.50308,-24.17488 -3.67514,-2.93403 -19.30836,-12.1004 -53.55196,-31.39964 -18.79246,-10.59118 -21.29538,-11.45746 -32.99374,-11.41947 -6.3536,0.0206 -8.30035,0.20304 -11.41925,1.06996 -7.04491,1.95822 -7.52179,2.22078 -58.79113,32.36988 -6.75753,3.97379 -14.03691,8.60433 -16.17641,10.2901 -6.44267,5.07633 -11.6334,12.3075 -14.16667,19.73551 -2.66656,7.81882 -2.74112,9.32769 -2.38611,48.28796 0.17873,19.61515 0.52449,37.26415 0.76837,39.22 1.76202,14.13142 8.4063,24.94509 20.07236,32.6681 2.23797,1.48155 14.08605,8.39068 26.32907,15.35361 32.98141,18.7574 36.04206,20.4381 40.09369,22.01662 7.7458,3.01779 16.77339,3.977 24.13108,2.564 z m -47.38552,-55.81804 c -11.60768,-1.62425 -21.49557,-6.76694 -25.21556,-13.11462 -3.71043,-6.33137 -2.09707,-14.44177 4.21513,-21.18954 6.76624,-7.23313 15.30418,-10.86666 27.0196,-11.49887 2.96203,-0.15984 5.3855,-0.44765 5.3855,-0.63958 0,-0.19192 -0.29952,-0.59754 -0.6656,-0.90136 -0.36608,-0.30382 -1.14268,-1.6614 -1.72578,-3.01685 -1.01889,-2.36846 -1.12305,-4.78683 -0.39769,-9.2338 0.14306,-0.87711 -0.18515,-0.98089 -3.91287,-1.23725 -9.80343,-0.67418 -17.84649,-5.83392 -21.70978,-13.92714 -4.76813,-9.9888 -3.10932,-19.93958 4.60326,-27.61382 3.68328,-3.66498 6.94172,-5.785 12.06932,-7.85263 l 3.84042,-1.5486 20.77613,-0.14351 c 11.46412,-0.0792 20.96399,0.0443 21.19525,0.27561 0.23967,0.23966 -1.23333,1.68457 -3.44044,3.3748 l -3.85955,2.95569 h -4.32274 -4.32275 l 2.4419,2.37849 c 4.79251,4.66805 7.46009,13.3403 6.22429,20.23506 -1.10156,6.1458 -3.75844,9.94866 -12.29497,17.59812 -4.85216,4.34797 -4.98524,7.40745 -0.53263,12.24532 1.13907,1.23762 3.69857,3.49028 5.68779,5.0059 4.13363,3.1495 8.22387,7.44021 9.52632,9.99323 2.17401,4.26142 3.23618,11.28637 2.43111,16.07884 -1.60309,9.54287 -10.37864,17.76532 -22.27614,20.87213 -4.35649,1.13763 -15.57621,1.62687 -20.73952,0.90438 z m 20.02145,-1.92361 c 13.67778,-3.27755 22.02068,-12.29765 22.02068,-23.8081 0,-9.14825 -2.82198,-14.45612 -11.0068,-20.70273 -6.24957,-4.76962 -10.05645,-9.38581 -10.05645,-12.19436 0,-3.11499 1.90763,-5.78962 7.07307,-9.91692 5.91152,-4.72342 9.20308,-11.06865 9.20308,-17.74101 0,-7.51851 -2.76465,-13.5801 -7.95063,-17.43197 -3.06349,-2.2754 -2.7323,-2.55019 3.07365,-2.55019 h 5.17595 l 3.06469,-2.27387 3.0647,-2.27387 -3.09451,-0.14888 c -1.70197,-0.0819 -10.52648,-0.0707 -19.61,0.025 -15.7229,0.16546 -16.66484,0.22618 -19.62713,1.26527 -5.05434,1.77292 -9.10835,4.29944 -12.80524,7.98042 -4.03545,4.0181 -6.1572,8.0037 -6.93464,13.02641 -0.97292,6.28559 1.67748,14.34469 6.25491,19.01941 4.97167,5.07734 10.30438,7.39576 17.91304,7.78778 2.56709,0.13227 4.66743,0.4478 4.66743,0.70119 0,0.2534 -0.34632,1.652 -0.76959,3.10801 -1.14941,3.95381 -0.0672,8.41603 2.63349,10.85847 1.80731,1.63447 1.29889,2.19929 -1.98358,2.2036 -12.69773,0.0167 -22.64386,3.54906 -29.57233,10.50267 -2.27099,2.27924 -4.12589,4.67686 -5.01909,6.48762 -1.24947,2.53302 -1.41768,3.38113 -1.42417,7.18066 -0.009,5.14481 1.04493,7.69442 4.52555,10.95014 5.02747,4.70261 13.67941,7.95512 24.18971,9.09361 3.9231,0.42495 12.98372,-0.18727 16.99421,-1.14828 z m -18.29552,-4.08079 c -6.32695,-1.53387 -11.92829,-5.69699 -14.53474,-10.80276 -0.98532,-1.93013 -1.36995,-3.49292 -1.53445,-6.23458 -0.19325,-3.22085 -0.0663,-3.99437 1.06082,-6.46258 2.34177,-5.12824 7.52563,-9.27506 14.3573,-11.48511 3.16386,-1.02351 4.82494,-1.25735 9.13303,-1.2857 6.65719,-0.0438 8.53721,0.51194 13.7048,4.05129 4.71221,3.22746 8.25291,6.77451 9.37962,9.39649 1.01367,2.35888 0.9955,8.73846 -0.0327,11.50221 -2.31598,6.22496 -7.9683,10.15328 -16.63179,11.55897 -4.20302,0.68196 -11.59353,0.56381 -14.90184,-0.23823 z m 14.62112,-0.9308 c 6.4049,-1.11693 9.24024,-2.37891 12.36478,-5.50345 2.06745,-2.06745 2.89467,-3.32341 3.47418,-5.27485 0.86272,-2.90506 0.98801,-7.53356 0.27357,-10.10561 -0.70007,-2.52034 -3.79229,-5.7669 -8.78012,-9.21839 -5.05755,-3.49972 -7.23597,-4.18186 -13.32386,-4.17218 -9.81421,0.0156 -18.43876,4.36858 -22.23847,11.22422 -1.89146,3.41267 -1.94312,8.39845 -0.12721,12.27912 4.10916,8.78149 15.32869,13.0431 28.35713,10.77114 z m -7.67771,-57.87293 c -6.98387,-2.28209 -12.98438,-9.47215 -15.20912,-18.2242 -1.03732,-4.08079 -0.93593,-10.02134 0.23436,-13.7316 3.45582,-10.95619 14.56103,-13.61441 23.60799,-5.65095 8.03867,7.07593 11.20603,21.39464 6.71878,30.37358 -3.10967,6.22242 -9.38991,9.18138 -15.35201,7.23317 z m 8.82771,-1.81323 c 6.81103,-3.18639 9.49053,-14.67679 5.77569,-24.76762 -1.3121,-3.56415 -4.774,-8.74436 -7.04675,-10.54442 -4.68397,-3.70976 -10.43988,-4.87149 -14.65341,-2.95754 -10.19112,4.62924 -10.35062,23.73297 -0.28405,34.02073 5.27334,5.38922 10.71941,6.81683 16.20852,4.24885 z m 59.38031,-5.51579 -0.12873,-10.91428 -11.60872,-0.12819 -11.60873,-0.12819 v -3.33395 -3.33395 l 11.60873,-0.12819 11.60872,-0.12819 0.12873,-10.91428 0.12873,-10.91428 2.74353,0.14329 2.74354,0.1433 0.12864,10.88217 0.12865,10.88218 11.59976,0.12816 11.59976,0.12817 v 3.11162 3.11161 l -11.59976,0.12818 -11.59976,0.12816 -0.12865,10.88217 -0.12864,10.88217 -2.74354,0.1433 -2.74353,0.1433 z m 4.52972,-0.98104 0.12866,-10.89066 11.84808,-0.12804 11.84808,-0.12804 v -2.37683 -2.37683 l -11.84808,-0.12804 -11.84808,-0.12804 -0.12866,-10.89066 -0.12867,-10.89066 h -1.65751 -1.65751 l -0.12867,10.89066 -0.12866,10.89066 -11.60873,0.12819 -11.60872,0.12819 v 2.37653 2.37653 l 11.60872,0.12819 11.60873,0.12819 0.12866,10.89066 0.12867,10.89066 h 1.65751 1.65751 z M 511.5458,342.75381 c -2.14107,-0.49927 -5.52125,-1.58568 -7.51156,-2.41424 -6.04652,-2.51716 -62.90493,-34.81083 -68.30831,-38.79681 -8.79063,-6.48471 -15.05326,-16.02761 -17.50857,-26.67927 -0.97823,-4.24376 -1.73534,-37.16094 -1.50551,-65.45566 0.15978,-19.67098 0.21531,-20.75387 1.25108,-24.39992 2.96946,-10.45293 9.38805,-19.49626 18.24908,-25.71171 4.07809,-2.86053 57.9267,-34.42945 63.18976,-37.0452 13.03891,-6.4804 26.61858,-6.98833 39.59557,-1.48104 4.81653,2.04409 59.47083,32.9929 65.9012,37.3175 4.13285,2.77952 9.42396,8.00004 12.24703,12.08373 3.13973,4.5418 5.07485,8.81028 6.60896,14.57756 l 1.21113,4.55325 0.46132,36.38199 c 0.56076,44.22371 0.39766,46.78418 -3.60316,56.5645 -2.66389,6.51207 -8.89686,14.2669 -14.95159,18.60216 -4.92929,3.52942 -56.91914,34.06985 -64.44128,37.85478 -6.99631,3.52032 -11.456,4.5988 -19.81174,4.79098 -5.79303,0.13324 -7.93291,-0.0102 -11.07341,-0.7426 z m 17.61358,-0.69974 c 4.28558,-0.82301 8.78404,-2.33592 12.6083,-4.24033 7.08816,-3.52984 60.59297,-35.03631 64.86523,-38.1961 10.41659,-7.70425 16.38325,-18.70769 17.65594,-32.56003 0.34016,-3.70333 0.37662,-16.99039 0.11282,-41.13427 l -0.3898,-35.66392 -1.25874,-4.7871 c -2.6038,-9.90245 -7.82626,-18.04613 -15.50302,-24.17488 -3.67517,-2.93403 -19.30841,-12.1004 -53.552,-31.39964 -18.79246,-10.59118 -21.29536,-11.45746 -32.99369,-11.41947 -6.35365,0.0206 -8.30042,0.20304 -11.41925,1.06996 -7.04497,1.95822 -7.5218,2.22078 -58.79115,32.36988 -6.75755,3.97379 -14.03694,8.60433 -16.17639,10.2901 -6.44271,5.07633 -11.63341,12.3075 -14.16666,19.73551 -2.66659,7.81882 -2.74115,9.32769 -2.38615,48.28796 0.17874,19.61515 0.5245,37.26415 0.76837,39.22 1.76202,14.13142 8.40632,24.94509 20.0724,32.6681 2.2379,1.48155 14.08601,8.39068 26.32905,15.35361 32.98141,18.7574 36.04205,20.4381 40.0937,22.01662 7.74576,3.01779 16.77333,3.977 24.13104,2.564 z M 465.6336,284.20633 c -0.12566,-0.32911 -0.17278,-16.86257 -0.10469,-36.74102 l 0.12376,-36.14264 12.56615,-0.12762 12.56615,-0.12763 v 36.86865 36.86865 h -12.46146 c -9.52823,0 -12.51531,-0.14085 -12.68991,-0.59839 z m 24.19394,-36.26231 V 212.04074 H 478.33852 466.8495 v 35.90328 35.90328 h 11.48902 11.48902 z m 13.73093,36.54946 c -0.17986,-0.17987 -0.32705,-16.77432 -0.32705,-36.87655 v -36.54951 l 12.56615,0.12763 12.56615,0.12762 0.14003,4.00829 0.14004,4.00829 3.2109,-3.09984 c 3.36615,-3.24959 5.31383,-4.44064 9.67359,-5.91556 3.62076,-1.22491 12.4656,-1.23471 16.5155,-0.0183 9.20308,2.76421 15.41348,9.29741 18.49403,19.45529 1.06099,3.4987 1.09037,4.18463 1.25607,29.32119 l 0.16962,25.73868 -12.59272,-0.12767 -12.5928,-0.12769 -0.2633,-22.73874 c -0.18365,-15.86098 -0.4384,-23.26181 -0.84208,-24.46804 -0.97973,-2.9275 -3.31637,-5.68881 -5.70973,-6.74752 -1.75737,-0.77736 -2.88478,-0.92932 -5.59172,-0.75369 -1.86487,0.12099 -4.06785,0.57156 -4.89563,1.00126 -2.05447,1.06654 -4.30332,3.39476 -5.57447,5.77133 -1.03954,1.94362 -1.06289,2.39226 -1.29793,24.9573 l -0.2394,22.9781 -12.23903,0.12758 c -6.73153,0.0702 -12.38629,-0.0196 -12.56622,-0.19946 z m 24.08722,-23.06911 v -22.42293 l 1.46391,-2.92954 c 2.46923,-4.94137 6.43359,-7.40929 11.92784,-7.42549 7.38604,-0.0218 11.30558,4.10483 12.43208,13.08887 0.27852,2.22123 0.50522,12.57414 0.50522,23.07073 v 19.04129 h 11.52001 11.51995 l -0.18162,-24.77327 c -0.20194,-27.53895 -0.18547,-27.38034 -3.5946,-34.58682 -1.21316,-2.5645 -2.60071,-4.49151 -4.85622,-6.74439 -5.04015,-5.03417 -10.91305,-7.31586 -18.71589,-7.27132 -7.959,0.0454 -12.41988,1.89555 -17.80979,7.38648 -2.02838,2.06633 -3.8056,3.75697 -3.94934,3.75697 -0.14389,0 -0.26155,-2.1542 -0.26155,-4.78711 v -4.7871 h -11.72842 -11.72841 v 35.90328 35.90328 h 11.72841 11.72842 z m -53.71497,-59.59962 c -6.00024,-1.69349 -9.60158,-6.47909 -9.60389,-12.76211 0,-3.9361 1.36301,-6.97861 4.282,-9.54801 2.746,-2.41717 5.64564,-3.37834 10.17398,-3.37249 8.1913,0.0106 13.65477,5.27801 13.64951,13.15986 -0.007,5.41396 -2.72335,9.59213 -7.67718,11.79392 -2.64173,1.17415 -7.97443,1.5332 -10.82442,0.72883 z m 9.62108,-1.49387 c 3.03945,-1.0724 5.16706,-2.96491 6.58014,-5.85304 1.51678,-3.10025 1.68858,-6.98247 0.44148,-9.97556 -2.47127,-5.93096 -9.98444,-8.87173 -16.93272,-6.62769 -6.36276,2.05494 -9.56806,8.40608 -7.6999,15.25709 0.63978,2.3463 4.71549,6.49798 7.13557,7.26862 2.4435,0.77808 8.18107,0.74005 10.47543,-0.0694 z m 275.00851,141.46551 c -2.141,-0.49928 -5.5212,-1.58568 -7.5115,-2.41424 -6.0465,-2.51716 -62.905,-34.81084 -68.3083,-38.79681 -8.7907,-6.4847 -15.0533,-16.02761 -17.5086,-26.67927 -0.9782,-4.24377 -1.7354,-37.16094 -1.5055,-65.45566 0.1598,-19.67098 0.2153,-20.75387 1.2511,-24.39993 2.9694,-10.45292 9.388,-19.49625 18.249,-25.7117 4.0781,-2.86053 57.9267,-34.42944 63.1898,-37.04521 13.0389,-6.48038 26.6186,-6.98832 39.5956,-1.48103 4.8165,2.04408 59.4708,32.99289 65.9012,37.31751 4.1328,2.77951 9.4239,8.00002 12.247,12.08371 3.1397,4.54181 5.0749,8.81029 6.609,14.57757 l 1.2111,4.55324 0.4613,36.38199 c 0.5608,44.22372 0.3977,46.78419 -3.6031,56.56451 -2.6639,6.51207 -8.8969,14.26689 -14.9516,18.60215 -4.9293,3.52942 -56.9192,34.06986 -64.4413,37.85479 -6.9963,3.52033 -11.456,4.59879 -19.8118,4.79097 -5.793,0.13325 -7.9329,-0.0102 -11.0734,-0.74259 z m 17.6136,-0.69974 c 4.2855,-0.82301 8.7841,-2.33593 12.6082,-4.24033 7.0883,-3.52984 60.5931,-35.03632 64.8653,-38.1961 10.4166,-7.70425 16.3833,-18.70769 17.656,-32.56002 0.3401,-3.70334 0.3766,-16.99039 0.1128,-41.13428 l -0.3898,-35.66392 -1.2587,-4.78711 c -2.6038,-9.90244 -7.8263,-18.04612 -15.5031,-24.17487 -3.6751,-2.93403 -19.3084,-12.10041 -53.552,-31.39964 -18.7924,-10.59118 -21.2953,-11.45747 -32.9937,-11.41948 -6.3536,0.0206 -8.3004,0.20305 -11.4193,1.06998 -7.0448,1.95821 -7.5217,2.22077 -58.791,32.36988 -6.7576,3.97378 -14.037,8.60432 -16.1764,10.29009 -6.4427,5.07633 -11.6334,12.3075 -14.1668,19.73551 -2.6665,7.81883 -2.7411,9.32768 -2.386,48.28795 0.1787,19.61516 0.5245,37.26416 0.7683,39.22 1.762,14.13143 8.4063,24.9451 20.0723,32.66811 2.238,1.48155 14.0861,8.39067 26.3292,15.3536 32.9813,18.75741 36.042,20.4381 40.0936,22.01664 7.7458,3.01779 16.7734,3.97699 24.1311,2.56399 z m -18.6497,-55.89619 c -9.402,-1.17935 -18.5305,-4.76676 -24.5039,-9.62987 -9.3614,-7.62117 -14.6872,-20.0319 -11.5551,-26.92704 1.1063,-2.43555 4.6884,-5.62337 7.1463,-6.3598 2.7488,-0.82354 6.7424,-0.67506 8.9487,0.33271 2.9099,1.32914 5.6676,4.7121 8.4502,10.36603 3.0872,6.27247 5.6988,9.20027 9.9801,11.18819 6.7122,3.11665 18.3561,2.88938 25.0228,-0.4884 8.5724,-4.34327 10.6429,-13.08069 4.399,-18.56287 -3.2859,-2.88507 -7.7593,-4.40345 -22.7198,-7.71166 -8.1815,-1.80917 -18.1473,-4.98345 -22.5065,-7.16871 -9.1202,-4.57196 -14.8243,-11.01499 -16.7157,-18.88101 -0.7397,-3.07615 -0.7412,-10.40287 -0.01,-13.43925 2.8415,-11.68436 12.9697,-19.89993 28.9327,-23.46889 4.6128,-1.03132 20.4145,-1.48943 25.6649,-0.74406 16.3714,2.32417 28.3045,10.60631 32.0129,22.21837 0.3316,1.03836 0.5046,3.32461 0.3983,5.26582 -0.2214,4.04503 -1.611,6.64329 -4.7812,8.93978 -2.5855,1.87291 -5.2425,2.55541 -8.7292,2.24221 -3.8636,-0.34705 -6.1062,-1.99724 -9.2432,-6.80156 -4.7645,-7.29647 -5.6536,-8.45359 -7.7499,-10.08592 -2.6638,-2.07427 -5.8329,-3.02449 -11.3086,-3.39084 -8.898,-0.59531 -17.223,2.39642 -19.6322,7.05512 -1.0662,2.06192 -0.8904,5.28762 0.3923,7.19629 2.4318,3.61859 7.1373,5.47825 23.5604,9.31136 10.8823,2.53989 20.5884,5.58042 25.1394,7.8751 9.8849,4.98419 15.3052,11.47445 17.0058,20.3625 3.5768,18.69415 -7.9691,34.52032 -29.1306,39.92996 -7.2412,1.8511 -19.8371,2.45998 -28.4752,1.37644 z m 19.1518,-0.92554 c 23.4265,-2.51979 37.8703,-15.46355 37.8703,-33.93735 0,-13.39797 -6.621,-21.91672 -21.6064,-27.79934 -4.6328,-1.81862 -12.1339,-3.87781 -26.8965,-7.38347 -12.4199,-2.94936 -18.1715,-6.4065 -18.9159,-11.36976 -0.81,-5.40178 4.0092,-10.24273 12.0901,-12.14474 4.6845,-1.10264 13.6851,-0.69944 17.5819,0.78761 3.4528,1.31757 6.8811,4.57129 9.5684,9.08124 3.0995,5.20154 5.0697,7.65141 6.9074,8.5889 5.7217,2.91901 12.3537,0.72701 15.161,-5.01104 1.1227,-2.29451 1.2652,-3.06471 1.054,-5.69544 -0.7933,-9.88337 -10.3078,-19.01734 -23.9158,-22.95934 -10.2329,-2.96432 -24.6983,-2.9606 -36.286,0.009 -13.2837,3.40463 -22.7125,11.932 -24.9129,22.5311 -0.8255,3.97629 -0.3562,11.19855 0.9496,14.61702 4.5305,11.85986 15.1444,17.92467 41.1969,23.54002 11.5754,2.49497 16.2618,4.24056 19.6834,7.3318 2.7449,2.47986 3.7735,4.7528 3.7735,8.33883 0,6.42744 -4.4172,10.99329 -13.185,13.62882 -4.0334,1.2124 -14.1787,1.22161 -18.1706,0.0165 -6.3305,-1.91115 -9.8199,-5.29755 -13.861,-13.45212 -3.0732,-6.20155 -5.5638,-8.94361 -8.954,-9.85803 -5.7902,-1.56176 -12.3842,1.92432 -13.8374,7.31554 -1.5059,5.58599 2.0715,14.59921 8.4085,21.18535 9.6995,10.08091 26.7644,14.7395 46.2965,12.63861 z"
     id="path66"
     inkscape:connector-curvature="0"
     sodipodi:nodetypes="csssssssscsscssssscssscscsssssssssssscsssscsssssssscscscccssssssssscssssscscccsccssscsccssccsscccscscssscsccsscsssssssssssssscssscccccccccccccccccccccccccccccccccccccccccccccccccccssssssscscccccscscscccccccsssssssssscscscccccscccccccccccscccccccccscccccccccscsccccscsccccccscssccccccccscssccsssssccsccccscsccscccccscscscccccccsscsscccsscsccccccscssccccccccscssccscscccssssccsccccsscsscssccsccs" />
  <path
     style="fill:#000000;stroke:#000000;stroke-width:1.05316293;stroke-miterlimit:3.79999995;stroke-dasharray:none;stroke-opacity:1"
     d="m 1244.6379,340.72607 c -2.141,-0.49927 -5.5213,-1.58568 -7.5116,-2.41424 -6.0465,-2.51716 -62.9049,-34.81083 -68.3082,-38.7968 -8.7907,-6.48471 -15.0534,-16.02761 -17.5087,-26.67927 -0.9781,-4.24377 -1.7353,-37.16095 -1.5055,-65.45566 0.1599,-19.67099 0.2154,-20.75388 1.2511,-24.39993 2.9695,-10.45293 9.3881,-19.49626 18.2491,-25.7117 4.0781,-2.86053 57.9267,-34.42946 63.1898,-37.04521 13.0389,-6.48039 26.6186,-6.98832 39.5956,-1.48103 4.8165,2.04408 59.4708,32.99289 65.9012,37.3175 4.1328,2.77952 9.4239,8.00003 12.247,12.08372 3.1397,4.5418 5.0749,8.81028 6.609,14.57757 l 1.2111,4.55324 0.4613,36.38199 c 0.5608,44.22371 0.3977,46.78418 -3.6032,56.56451 -2.6638,6.51207 -8.8968,14.26689 -14.9515,18.60215 -4.9293,3.52942 -56.9192,34.06985 -64.4414,37.85478 -6.9962,3.52033 -11.456,4.5988 -19.8117,4.79098 -5.793,0.13325 -7.9329,-0.0102 -11.0734,-0.7426 z m 17.6136,-0.69973 c 4.2855,-0.82302 8.7841,-2.33593 12.6082,-4.24033 7.0883,-3.52984 60.5931,-35.03632 64.8653,-38.1961 10.4166,-7.70425 16.3833,-18.7077 17.656,-32.56003 0.3402,-3.70333 0.3766,-16.99039 0.1128,-41.13428 l -0.3898,-35.66392 -1.2587,-4.7871 c -2.6038,-9.90244 -7.8263,-18.04613 -15.5031,-24.17488 -3.6751,-2.93402 -19.3084,-12.10041 -53.552,-31.39964 -18.7924,-10.59118 -21.2954,-11.45746 -32.9937,-11.41947 -6.3536,0.0206 -8.3004,0.20304 -11.4193,1.06997 -7.0449,1.95822 -7.5218,2.22078 -58.7911,32.36988 -6.7575,3.97378 -14.0369,8.60433 -16.1764,10.29009 -6.4427,5.07633 -11.6334,12.30751 -14.1667,19.73551 -2.6665,7.81883 -2.7411,9.32768 -2.3861,48.28796 0.1788,19.61516 0.5246,37.26416 0.7684,39.22 1.762,14.13142 8.4063,24.94509 20.0723,32.66811 2.238,1.48154 14.0861,8.39066 26.3292,15.3536 32.9813,18.7574 36.042,20.4381 40.0936,22.01663 7.7458,3.01779 16.7734,3.97699 24.1311,2.564 z m -59.3709,-50.61798 c -3.8737,-1.11473 -7.9436,-4.91691 -9.4536,-8.83172 -0.8675,-2.24892 -0.9054,-4.4563 -0.9054,-52.61199 v -50.2646 l 1.3307,-2.70976 c 1.5324,-3.1205 4.2907,-5.80882 7.4668,-7.27741 l 2.2128,-1.02317 h 50.504 50.5039 l 2.5229,1.1402 c 3.3902,1.53221 7.0318,5.53304 7.9982,8.78734 0.6318,2.12731 0.7286,9.02395 0.7286,51.89503 0,48.95154 -0.01,49.46815 -0.9987,52.11108 -1.3328,3.56216 -4.7735,7.00275 -8.3356,8.33553 -2.6461,0.99002 -3.1034,0.99837 -52.3177,0.95557 -30.4049,-0.0264 -50.2718,-0.2226 -51.2569,-0.5061 z m 102.3712,-1.16876 c 1.9602,-0.58211 3.2084,-1.40765 5.3182,-3.51749 4.6012,-4.60127 4.3036,-0.48028 4.1532,-57.51577 l -0.1305,-49.50629 -1.2737,-2.39355 c -1.5889,-2.98598 -3.8337,-5.16293 -6.625,-6.42499 -2.1219,-0.95939 -2.9041,-0.97411 -52.1794,-0.98184 -32.8321,-0.005 -50.6346,0.16138 -51.7982,0.48454 -2.7498,0.76373 -6.3043,3.85881 -7.7398,6.73945 l -1.2583,2.52502 0.011,50.52963 c 0.01,48.09492 0.053,50.62341 0.8945,52.47577 1.7542,3.86205 5.388,6.91902 9.3873,7.89696 0.7899,0.19314 23.316,0.37322 50.058,0.40018 43.129,0.0435 48.9113,-0.0369 51.1832,-0.71162 z m -96.9807,-14.27089 -1.6276,-1.62761 v -26.85566 -26.85565 h 5.8004 5.8002 l -0.3256,1.31645 c -0.1791,0.72406 -0.4443,3.91805 -0.5895,7.09778 -0.3009,6.59116 0.5945,11.30654 3.207,16.88938 9.2742,19.81853 33.6149,27.38092 52.4881,16.30747 3.5955,-2.10958 10.9391,-9.45311 13.0487,-13.04859 3.9351,-6.70699 5.8842,-15.86329 4.8905,-22.97462 -0.8597,-6.1524 -1.3607,-5.58787 4.9597,-5.58787 h 5.5052 v 27.08396 27.08397 l -1.3994,1.3993 -1.3993,1.39931 h -44.3654 -44.3653 z m 89.9702,0.13869 c 0.6416,-0.29232 1.4057,-1.05642 1.6979,-1.698 0.3686,-0.80887 0.5315,-9.08523 0.5315,-26.99435 v -25.82784 h -4.5533 -4.5535 l 0.3647,2.03452 c 0.6535,3.64545 0.3701,12.82366 -0.4957,16.0591 -2.8947,10.81637 -10.8164,20.39563 -20.7198,25.05508 -5.093,2.39618 -8.5638,3.28681 -14.0837,3.61394 -11.5702,0.68568 -20.9908,-3.00122 -29.4584,-11.52898 -4.9365,-4.9717 -8.0332,-10.26721 -9.8266,-16.80418 -1.1123,-4.05428 -1.4742,-11.34076 -0.7905,-15.91625 l 0.3755,-2.51323 h -4.5761 -4.5761 l 0.1316,26.37075 0.1315,26.37074 1.3431,1.15511 1.3432,1.1551 h 43.2741 c 30.695,0 43.6131,-0.1545 44.4406,-0.53151 z m -50.9337,-22.87036 c -6.4299,-2.05765 -12.0035,-6.82529 -14.7341,-12.60348 -6.158,-13.03098 0.2216,-28.33686 13.7522,-32.99425 12.9053,-4.4422 26.9682,2.98438 30.882,16.30866 0.8676,2.95392 1.0003,8.91328 0.2618,11.7612 -2.3124,8.91791 -9.0106,15.61609 -17.9285,17.92849 -2.9635,0.76843 -9.2206,0.56352 -12.2334,-0.40062 z m 11.9495,-0.79205 c 10.1168,-2.38472 17.7794,-11.87458 17.7497,-21.98254 -0.041,-13.99129 -12.5806,-24.87872 -26.2022,-22.74994 -19.0683,2.97998 -26.227,26.6822 -11.9387,39.52854 5.6463,5.07653 12.9856,6.94956 20.3912,5.20394 z m 20.3326,-46.13323 c -2.1762,-1.327 -2.5758,-3.09232 -2.5758,-11.37978 0,-11.92605 0.1999,-12.12031 12.4686,-12.12031 8.9003,0 10.3369,0.34379 11.4261,2.73455 0.3101,0.68029 0.5196,4.50104 0.5196,9.47257 0,4.97152 -0.2095,8.79227 -0.5196,9.47256 -1.0919,2.39658 -2.5175,2.7347 -11.5221,2.73276 -7.3166,-0.001 -8.481,-0.11002 -9.7968,-0.91235 z m 19.7268,-1.62578 c 1.1241,-1.30809 1.1542,-1.56046 1.1542,-9.66719 0,-8.10656 -0.03,-8.35914 -1.1541,-9.6672 l -1.1542,-1.34315 -7.5823,-0.15726 c -8.2554,-0.17122 -10.7811,0.25162 -11.7632,1.96931 -0.6801,1.18937 -0.8741,15.42196 -0.241,17.6833 0.6822,2.43733 2.1104,2.7717 11.286,2.64234 l 8.3003,-0.11701 z M 997.62331,340.24736 c -2.1411,-0.49927 -5.5212,-1.58567 -7.5115,-2.41424 -6.0466,-2.51715 -62.9049,-34.81083 -68.3084,-38.7968 -6.6788,-4.92686 -12.5052,-12.40864 -15.2932,-19.63814 -3.1813,-8.24939 -3.0482,-6.12525 -3.2348,-51.60851 -0.1669,-40.67775 -0.1535,-41.40629 0.8315,-45.20614 2.6318,-10.15315 9.2311,-19.51484 18.1826,-25.79378 4.0781,-2.86052 57.9267,-34.42945 63.1899,-37.0452 13.0389,-6.48039 26.61849,-6.98832 39.59549,-1.48104 4.8165,2.04409 59.4709,32.9929 65.9012,37.31751 4.1329,2.77951 9.4239,8.00003 12.247,12.08372 3.1397,4.5418 5.0749,8.81028 6.609,14.57756 l 1.2111,4.55325 0.4613,36.38199 c 0.5607,44.22372 0.3976,46.78419 -3.6032,56.5645 -2.6638,6.51207 -8.8968,14.2669 -14.9515,18.60216 -4.9293,3.52942 -56.9192,34.06986 -64.4413,37.85478 -6.9963,3.52033 -11.456,4.5988 -19.8117,4.79098 -5.793,0.13325 -7.933,-0.0102 -11.07349,-0.7426 z m 17.61359,-0.69973 c 4.2855,-0.82302 8.784,-2.33593 12.6083,-4.24034 7.0882,-3.52983 60.593,-35.03631 64.8652,-38.1961 10.4166,-7.70425 16.3833,-18.70768 17.656,-32.56002 0.3402,-3.70333 0.3767,-16.99039 0.1129,-41.13428 l -0.3898,-35.66392 -1.2588,-4.7871 c -2.6038,-9.90244 -7.8262,-18.04613 -15.5031,-24.17488 -3.6751,-2.93402 -19.3083,-12.1004 -53.5519,-31.39964 -18.7925,-10.59118 -21.2954,-11.45746 -32.9938,-11.41947 -6.3535,0.0206 -8.30029,0.20304 -11.41919,1.06997 -7.045,1.95821 -7.5218,2.22078 -58.7912,32.36988 -6.7574,3.97379 -14.0368,8.60433 -16.1764,10.29009 -6.4426,5.07634 -11.6334,12.30751 -14.1666,19.73552 -2.6666,7.81882 -2.7412,9.32768 -2.3862,48.28795 0.1788,19.61516 0.5245,37.26415 0.7684,39.22 1.762,14.13142 8.4063,24.94509 20.0724,32.66811 2.238,1.48155 14.0861,8.39067 26.329,15.3536 32.9815,18.75741 36.0421,20.4381 40.0938,22.01663 7.7457,3.01779 16.77339,3.977 24.13099,2.564 z m -24.01299,-81.16275 v -29.67357 l -6.1036,-0.13398 -6.1036,-0.13398 v -10.77098 -10.77099 l 6.0569,-0.13362 6.0569,-0.13364 0.2078,-10.39799 c 0.183,-9.15505 0.3319,-10.73677 1.2457,-13.23201 2.2127,-6.04231 5.3835,-9.84987 10.24649,-12.30474 5.2754,-2.66298 7.5585,-2.99661 20.7063,-3.02574 l 11.9678,-0.0265 v 10.77098 10.77099 l -7.7689,0.23935 c -7.711,0.23757 -7.7787,0.24924 -9.0955,1.56535 -1.315,1.31441 -1.328,1.38862 -1.4808,8.4971 l -0.1542,7.17114 h 9.1018 c 5.0059,0 9.2162,0.1852 9.356,0.41156 0.3835,0.6205 -1.7297,20.3216 -2.2536,21.01073 -0.3314,0.43581 -2.5841,0.59839 -8.2914,0.59839 h -7.8365 l -0.1233,29.56036 -0.1233,29.56036 -12.8056,0.1275 -12.80539,0.1275 z m 25.00889,-1.09922 0.1234,-29.79973 8.0121,-0.13122 c 7.8509,-0.12858 8.0165,-0.15268 8.2275,-1.19678 0.3488,-1.72555 1.7182,-15.28729 1.715,-16.98267 l -0.01,-1.55581 h -9.0954 -9.0956 v -7.44379 c 0,-11.27939 0.4168,-11.70463 11.4737,-11.70463 h 6.7173 v -10.12597 -10.12597 l -11.13,0.28512 c -8.7292,0.22362 -11.8597,0.48074 -14.5124,1.19194 -4.5083,1.20866 -7.9042,3.12388 -10.54519,5.94735 -4.5315,4.8445 -5.9389,10.39019 -5.9389,23.40128 v 8.57467 h -6.2232 -6.2233 v 9.81356 9.81357 h 5.466 c 3.0063,0 5.8068,0.13075 6.2233,0.29057 0.6792,0.26064 0.7572,3.34339 0.7572,29.9194 v 29.62882 h 11.96419 11.9641 z m 477.8132,82.00428 c -2.1411,-0.49927 -5.5212,-1.58568 -7.5115,-2.41424 -6.0465,-2.51716 -62.9049,-34.81083 -68.3083,-38.79681 -8.7907,-6.4847 -15.0533,-16.02761 -17.5086,-26.67927 -0.9782,-4.24376 -1.7354,-37.16094 -1.5055,-65.45565 0.1598,-19.67099 0.2153,-20.75388 1.2511,-24.39993 2.9694,-10.45293 9.388,-19.49626 18.2491,-25.71171 4.078,-2.86052 57.9266,-34.42944 63.1897,-37.0452 13.0389,-6.48039 26.6186,-6.98833 39.5956,-1.48103 4.8165,2.04408 59.4708,32.99289 65.9012,37.3175 4.1328,2.77952 9.4239,8.00003 12.247,12.08372 3.1397,4.5418 5.0749,8.81028 6.609,14.57757 l 1.2111,4.55324 0.4613,36.38199 c 0.5608,44.22371 0.3977,46.78418 -3.6031,56.56451 -2.6639,6.51207 -8.8969,14.26689 -14.9516,18.60215 -4.9293,3.52942 -56.9192,34.06985 -64.4413,37.85478 -6.9963,3.52033 -11.4561,4.59879 -19.8117,4.79098 -5.7931,0.13324 -7.933,-0.0102 -11.0735,-0.7426 z m 17.6136,-0.69974 c 4.2855,-0.82301 8.7841,-2.33592 12.6083,-4.24032 7.0882,-3.52985 60.593,-35.03632 64.8653,-38.19611 10.4165,-7.70424 16.3832,-18.70769 17.6559,-32.56002 0.3402,-3.70334 0.3766,-16.99039 0.1128,-41.13428 l -0.3898,-35.66392 -1.2587,-4.78711 c -2.6038,-9.90244 -7.8263,-18.04612 -15.5031,-24.17487 -3.6751,-2.93403 -19.3084,-12.10041 -53.5519,-31.39965 -18.7925,-10.59117 -21.2954,-11.45745 -32.9938,-11.41946 -6.3536,0.0206 -8.3003,0.20304 -11.4193,1.06997 -7.0449,1.95822 -7.5218,2.22078 -58.7911,32.36988 -6.7575,3.97378 -14.0369,8.60433 -16.1764,10.29009 -6.4426,5.07633 -11.6333,12.30751 -14.1667,19.73551 -2.6665,7.81883 -2.7411,9.32768 -2.3861,48.28796 0.1787,19.61516 0.5246,37.26416 0.7684,39.21999 1.7621,14.13143 8.4063,24.9451 20.0724,32.66811 2.2379,1.48155 14.086,8.39067 26.329,15.35361 32.9814,18.7574 36.0421,20.4381 40.0937,22.01663 7.7458,3.01779 16.7734,3.97699 24.1311,2.56399 z m -42.4434,-51.94479 c -2.2222,-0.19157 -4.7781,-0.75736 -6.089,-1.34787 -3.0814,-1.388 -6.2996,-4.82568 -7.6383,-8.15929 -1.0881,-2.70943 -1.0999,-2.96123 -1.1063,-23.5626 l -0.01,-20.8239 1.3812,-2.99073 c 1.5912,-3.44517 4.5607,-6.42948 7.8695,-7.90892 1.8867,-0.84358 3.7422,-1.06836 11.8125,-1.43106 13.1258,-0.58992 62.4134,-0.14111 65.7108,0.59835 4.9228,1.10394 9.3939,5.28384 10.9083,10.19767 0.9618,3.12103 1.5006,28.86265 0.8037,38.39802 -0.5404,7.39342 -1.531,9.85253 -5.3532,13.28904 -4.5146,4.059 -2.5219,3.86448 -40.714,3.97437 -18.5621,0.0534 -35.4725,-0.0515 -37.5789,-0.23308 z m 66.062,-0.94567 c 5.2895,-0.32084 6.5823,-0.562 8.6168,-1.60737 5.5993,-2.87709 7.368,-6.36361 7.9339,-15.63894 0.532,-8.72037 0.5219,-21.24545 -0.024,-29.70453 -0.3974,-6.15728 -0.5969,-7.2209 -1.7934,-9.56055 -1.4691,-2.8726 -4.711,-5.69301 -7.7087,-6.70649 -3.0183,-1.02048 -35.8916,-1.6728 -57.255,-1.13613 -20.8916,0.52483 -21.0335,0.54848 -25.0481,4.17543 -4.3364,3.91772 -5.1559,9.6655 -4.7502,33.3203 0.2896,16.88924 0.5132,18.1372 3.9291,21.93658 3.1949,3.55353 5.5969,4.53759 11.9525,4.89688 7.8186,0.44201 56.9557,0.46101 64.1472,0.0248 z m -4.1694,-10.60483 c -1.0804,-0.57049 -2.2992,-1.82784 -3.1116,-3.21014 -1.3236,-2.25171 -1.3372,-2.35952 -1.4968,-11.88116 -0.1831,-10.92087 0.1259,-12.77216 2.5855,-15.49466 2.2377,-2.4769 3.826,-3.04814 7.8439,-2.8211 3.759,0.2124 5.3698,1.09111 6.9652,3.79976 0.7974,1.35374 0.9852,2.68311 1.1236,7.95276 l 0.1664,6.32733 -5.6715,0.13527 -5.6714,0.13527 -0.1417,2.95983 c -0.1943,4.05719 0.3816,6.0928 1.781,6.29587 1.6097,0.2336 2.1523,-0.58309 2.4256,-3.6507 l 0.2434,-2.73274 h 3.3511 3.3509 l 0.1439,2.49163 c 0.2741,4.74278 -1.6667,8.62174 -5.013,10.01993 -2.2968,0.95971 -6.7484,0.7956 -8.8745,-0.32715 z m 9.6282,-1.30504 c 1.8931,-1.41091 2.8858,-3.48337 3.2256,-6.73374 l 0.3081,-2.94885 h -2.701 -2.7011 v 2.23617 c 0,2.75576 -0.9805,3.98706 -3.1748,3.98706 -2.5155,0 -3.114,-1.3739 -2.9476,-6.76613 l 0.1385,-4.48356 5.676,-0.13531 5.676,-0.13531 -0.1753,-5.36986 c -0.2777,-8.50291 -2.3178,-11.11079 -8.419,-10.7618 -4.8882,0.27961 -7.4716,2.94468 -8.045,8.29935 -0.4708,4.39598 0.01,17.3929 0.7016,19.11327 0.761,1.88299 2.3255,3.55173 4.1069,4.38057 1.974,0.91841 6.7033,0.53134 8.3311,-0.68186 z m -7.7725,-19.09723 c -0.1756,-0.17552 -0.3192,-1.47784 -0.3192,-2.89402 0,-2.12181 0.2148,-2.78971 1.2208,-3.79575 0.9468,-0.94673 1.5111,-1.15095 2.5133,-0.90946 1.936,0.46652 2.4892,1.55484 2.4892,4.89825 v 3.02012 h -2.7925 c -1.5359,0 -2.9361,-0.14361 -3.1116,-0.31914 z m 4.9466,-2.58459 c 0,-2.56874 -0.7066,-3.79822 -2.1828,-3.79822 -1.3676,0 -2.1256,1.46217 -2.1256,4.10021 0,1.62969 0.019,1.64432 2.1542,1.64432 h 2.1542 z m -54.1609,22.57384 -1.1301,-0.91443 -0.2394,-15.24204 c -0.1317,-8.38312 -0.1589,-15.52055 -0.06,-15.86096 0.1286,-0.44478 1.0713,-0.57946 3.351,-0.47871 l 3.1722,0.1402 0.2394,13.15834 c 0.2634,14.48031 0.3303,14.74904 3.0445,12.23358 l 1.3081,-1.21234 -0.045,-11.61108 c -0.025,-6.38609 -0.035,-11.89019 -0.022,-12.23134 0.018,-0.45889 0.8638,-0.58343 3.2545,-0.4787 l 3.2314,0.14154 0.1259,16.41694 0.126,16.41692 -3.4769,-0.14077 -3.477,-0.14078 0.1453,-1.43613 c 0.1418,-1.40211 0.128,-1.41209 -0.5819,-0.42144 -1.7514,2.44425 -6.8334,3.38593 -8.9649,1.6612 z m 7.2473,-1.71847 c 1.3694,-0.92152 2.6836,-1.67548 2.9204,-1.67548 0.2368,0 0.4306,0.64625 0.4306,1.43613 0,1.40421 0.053,1.43613 2.3935,1.43613 h 2.3936 v -15.58432 -15.58432 l -2.2739,0.14591 -2.2739,0.14591 -0.1278,12.05173 -0.1278,12.05174 -1.4648,1.23248 c -1.5988,1.34532 -3.366,1.59578 -4.1968,0.5948 -0.3494,-0.42109 -0.5726,-4.93286 -0.657,-13.28421 l -0.1277,-12.64654 h -2.1542 -2.1542 l -0.1342,13.88259 c -0.074,7.63544 -0.02,14.35224 0.1204,14.92623 0.7351,3.01396 3.7284,3.36476 7.4338,0.87122 z m 22.5162,1.82488 c -0.8181,-0.57306 -1.2087,-0.64267 -1.3432,-0.23936 -0.1237,0.37094 -1.4241,0.56867 -3.7399,0.56867 h -3.5505 v -22.02067 -22.02068 h 3.5903 3.5903 v 6.27829 6.27829 l 1.2961,-0.84924 c 1.5621,-1.02352 4.8142,-1.17503 6.4488,-0.30046 0.6537,0.34975 1.602,1.31914 2.1073,2.1542 0.831,1.37323 0.933,2.69468 1.0678,13.83065 0.1649,13.6284 -0.072,15.00906 -2.8226,16.43136 -1.8214,0.94183 -5.2224,0.88499 -6.6444,-0.11105 z m 5.8918,-0.6809 c 2.186,-0.99603 2.4408,-2.31665 2.6223,-13.59045 0.1919,-11.91682 -0.2082,-14.96679 -2.1652,-16.50612 -1.7134,-1.34778 -4.3719,-1.25457 -6.5595,0.22997 -0.97,0.65822 -1.8617,1.19677 -1.9817,1.19677 -0.1199,0 -0.218,-3.02713 -0.218,-6.72696 v -6.72697 l -2.5133,0.1447 -2.5132,0.1447 v 20.8239 20.8239 l 2.5132,0.1447 c 2.2624,0.13025 2.5133,0.0467 2.5133,-0.83775 0,-1.21533 0.4968,-1.23967 1.9699,-0.0965 2.0392,1.58239 4.2527,1.92361 6.3322,0.97611 z m -6.9857,-4.0507 -1.3164,-0.71418 v -10.4892 c 0,-10.29656 0.02,-10.50288 1.0638,-11.23441 1.432,-1.00298 2.573,-0.93794 3.7232,0.21222 0.8979,0.89788 0.9575,1.5957 0.9575,11.22255 0,10.06501 -0.02,10.27965 -1.064,11.01033 -1.2948,0.90695 -1.6804,0.90612 -3.3641,-0.007 z m 3.3671,-10.25781 c 0.075,-5.13418 0.022,-9.79579 -0.1156,-10.35916 -0.3135,-1.27782 -1.4775,-1.75908 -2.6878,-1.11133 -0.8646,0.4627 -0.9228,1.1053 -0.9228,10.1948 0,10.40477 0.1356,11.01427 2.3902,10.75079 l 1.2001,-0.14025 z m -47.2888,-3.11162 v -18.43035 h -3.351 -3.351 v -3.59033 -3.59033 h 10.792 10.7919 l -0.1406,3.47065 -0.1406,3.47065 -3.4707,0.14065 -3.4707,0.14065 v 18.40938 18.40937 h -3.8296 -3.8297 z m 6.8159,-0.83775 0.1254,-18.31067 2.3936,-0.12509 c 4.4237,-0.2312 4.5477,-0.31286 4.5477,-2.99565 v -2.38443 h -9.8136 -9.8135 v 2.63291 2.6329 h 3.351 3.3509 v 18.43035 18.43036 h 2.8666 2.8665 z m 20.5512,-43.03402 c -1.2125,-0.60014 -2.6042,-1.82739 -3.351,-2.95506 -1.2768,-1.92775 -1.2774,-1.93371 -1.4292,-12.83376 -0.1395,-10.01898 -0.075,-11.07911 0.7955,-13.04656 1.2579,-2.8439 4.0363,-4.69673 7.4696,-4.98145 4.3627,-0.36178 7.6203,1.27566 9.373,4.71145 0.8572,1.68008 0.9431,2.83322 0.9336,12.52089 -0.01,9.32591 -0.1213,10.91165 -0.8898,12.58522 -0.4837,1.05316 -1.2946,2.28361 -1.8022,2.73432 -2.7117,2.4079 -7.6529,2.97102 -11.0995,1.26495 z m 9.1638,-1.24654 c 0.821,-0.47947 1.9312,-1.61812 2.4671,-2.53031 0.8843,-1.50539 0.9885,-2.62182 1.1276,-12.08918 0.1449,-9.8525 0.096,-10.548 -0.8716,-12.5481 -1.4548,-3.00497 -3.7426,-4.31473 -7.4638,-4.27285 -3.413,0.0384 -5.6544,1.18228 -7.1366,3.64203 -0.8518,1.4135 -0.9747,2.60464 -1.1136,10.79195 -0.1869,11.02021 0.2311,13.6819 2.493,15.87422 0.8704,0.84365 2.2086,1.73319 2.9739,1.97676 1.9452,0.61917 5.7489,0.19224 7.524,-0.84452 z m -6.2225,-3.8469 c -1.2424,-0.78996 -1.5858,-3.31372 -1.5858,-11.65429 0,-8.3773 0.2605,-10.14726 1.6275,-11.06005 0.9736,-0.65007 2.6734,-0.37394 3.6384,0.59105 0.8951,0.89515 0.9574,1.5957 0.9574,10.77099 0,9.17528 -0.062,9.87583 -0.9574,10.77098 -0.9725,0.97252 -2.6485,1.23726 -3.6801,0.58132 z m 2.9348,-1.64525 c 0.6063,-0.86568 0.7441,-2.62752 0.7387,-9.45454 -0.01,-4.61482 -0.1312,-8.85537 -0.2836,-9.42343 -0.319,-1.18895 -1.6107,-1.67449 -2.7535,-1.03497 -0.6886,0.38535 -0.7861,1.64208 -0.7861,10.13394 0,9.72154 0.1805,10.84293 1.7442,10.84293 0.3273,0 0.9305,-0.47877 1.3403,-1.06393 z m 13.3381,6.13221 -1.3431,-1.15496 V 195.57384 180.0936 h 3.3509 3.351 l 0.1275,12.82355 c 0.1388,13.9525 0.2051,14.25618 2.7484,12.58971 l 1.1931,-0.78175 v -12.4564 -12.4564 l 3.4707,0.14065 3.4706,0.14064 0.1259,16.39583 c 0.1104,14.36132 0.036,16.40008 -0.5983,16.43003 -0.3984,0.0188 -1.6938,0.0342 -2.8785,0.0342 -3.4977,0 -3.5904,-0.0265 -3.5904,-1.02582 0,-1.21186 -0.073,-1.20391 -2.1997,0.23936 -2.3801,1.61514 -5.3783,1.63248 -7.2281,0.0419 z m 5.982,-0.47152 c 0.7117,-0.36798 1.7038,-1.12195 2.2046,-1.67549 1.3111,-1.44868 2.1986,-1.27522 2.1986,0.4297 0,1.42163 0.027,1.43613 2.633,1.43613 h 2.6329 v -15.55808 -15.55809 h -2.6329 -2.633 v 12.12367 c 0,11.96628 -0.014,12.13625 -1.0771,13.0932 -1.4824,1.33437 -2.6549,1.67683 -3.7446,1.09364 -0.8762,-0.4689 -0.9228,-1.14548 -0.9228,-13.40217 v -12.90834 h -2.6329 -2.6329 v 14.14573 c 0,16.7165 0.1339,17.3031 3.9732,17.41136 0.7371,0.0208 1.9223,-0.26328 2.6339,-0.63126 z m -43.9465,-7.17959 v -8.32736 l -4.0715,-13.33428 c -2.2394,-7.33387 -3.966,-13.61269 -3.837,-13.95295 0.1706,-0.44984 1.249,-0.58047 3.9519,-0.47871 l 3.7172,0.13994 1.863,7.31231 c 1.0246,4.02178 1.994,7.18677 2.1542,7.03332 0.1602,-0.15344 1.0552,-3.44399 1.9889,-7.31231 l 1.6976,-7.03332 3.9272,-0.13903 c 3.6023,-0.12754 3.9272,-0.063 3.9272,0.78046 0,0.50572 -1.7233,6.5189 -3.8296,13.36261 l -3.8298,12.44312 v 8.91678 8.91678 h -3.8296 -3.8297 z m 6.7019,-1.4913 v -8.86124 l 3.6572,-11.84299 c 2.0113,-6.51364 3.762,-12.12325 3.8902,-12.46579 0.1795,-0.47938 -0.4697,-0.58962 -2.8194,-0.4787 l -3.0525,0.14409 -1.97,8.37743 c -1.3802,5.86937 -2.1684,8.37743 -2.6329,8.37743 -0.46,0 -1.3132,-2.60039 -2.7879,-8.49711 l -2.1249,-8.49711 h -3.0494 c -1.6772,0 -2.9542,0.16157 -2.8378,0.35903 0.1164,0.19747 1.9601,6.09412 4.0973,13.10368 l 3.8856,12.74465 v 8.19893 8.19893 h 2.8723 2.8722 z m 262.0308,134.7872 c -2.141,-0.49927 -5.5212,-1.58568 -7.5115,-2.41423 -6.0464,-2.51717 -62.9049,-34.81084 -68.3082,-38.79682 -8.7907,-6.4847 -15.0534,-16.02761 -17.5086,-26.67927 -0.9783,-4.24376 -1.7354,-37.16094 -1.5056,-65.45565 0.1598,-19.67099 0.2153,-20.75388 1.2512,-24.39993 2.9694,-10.45293 9.3879,-19.49626 18.249,-25.71171 3.804,-2.6683 57.6639,-34.28625 62.8232,-36.87984 5.4425,-2.73593 10.1359,-4.20968 13.256,-4.16249 l 2.6686,0.0403 -3.8927,0.87966 c -4.785,1.08126 -9.5346,3.03171 -15.495,6.36306 -6.7499,3.7726 -54.4674,31.82023 -56.9665,33.48408 -9.0017,5.99295 -15.3849,13.92169 -18.4547,22.92276 -2.6665,7.81882 -2.7411,9.32768 -2.3861,48.28795 0.1787,19.61516 0.5245,37.26416 0.7684,39.22 1.762,14.13143 8.4063,24.94509 20.0724,32.66811 3.6678,2.42814 37.1618,21.6567 56.0091,32.15419 4.0809,2.27303 9.1627,4.76725 11.2928,5.54268 12.1345,4.4176 24.3356,3.73611 35.8601,-2.00297 7.0882,-3.52984 60.5931,-35.03632 64.8653,-38.1961 10.4166,-7.70425 16.3833,-18.70769 17.6559,-32.56003 0.3402,-3.70333 0.3766,-16.99039 0.1128,-41.13428 l -0.3897,-35.66391 -1.2587,-4.78711 c -1.6312,-6.20362 -5.2392,-13.46826 -8.7966,-17.71229 -5.6964,-6.79569 -7.0927,-7.68483 -53.2799,-33.92719 -21.1358,-12.00884 -23.5863,-13.18146 -31.1703,-14.91578 l -3.0575,-0.6992 3.5903,0.17082 c 2.7374,0.13024 4.5822,0.5744 7.7651,1.86955 5.0415,2.05135 59.7976,32.92476 67.0942,37.82999 7.1553,4.81027 14.1001,13.31362 16.9493,20.75307 3.3184,8.66432 3.2154,6.98832 3.2154,52.34787 0,45.31233 0.1577,42.77512 -3.1587,50.8461 -2.7856,6.77943 -8.8852,14.41401 -15.0322,18.81539 -4.9293,3.52942 -56.9192,34.06986 -64.4414,37.85478 -6.9963,3.52033 -11.456,4.5988 -19.8117,4.79098 -5.793,0.13325 -7.9329,-0.0102 -11.0735,-0.7426 z m -21.9575,-65.40896 c -8.0514,-1.24307 -16.3431,-4.10227 -23.4939,-8.10121 -1.691,-0.94565 -3.0743,-1.97809 -3.0741,-2.29431 2e-4,-0.41507 1.7641,-0.594 6.3429,-0.64344 5.0794,-0.0548 7.2595,-0.30834 10.9472,-1.27296 4.7879,-1.25241 10.1549,-3.51487 13.7854,-5.81121 2.326,-1.47121 2.1691,-1.8055 -1.1256,-2.3985 -3.5286,-0.63511 -8.0143,-3.21877 -11.2806,-6.49735 -3.0602,-3.07167 -5.7446,-7.48932 -5.7446,-9.45374 0,-0.93993 0.1897,-0.97801 3.5903,-0.72082 1.9748,0.14934 3.5904,0.15127 3.5904,0.004 0,-0.14699 -1.361,-1.02834 -3.0243,-1.95855 -7.4483,-4.16533 -13.3412,-13.69758 -12.6848,-20.51867 0.1754,-1.82164 0.3525,-1.83282 4.5497,-0.2871 1.6295,0.60007 3.115,0.93861 3.3013,0.75231 0.1863,-0.18631 -0.5218,-1.27227 -1.5735,-2.41325 -4.2573,-4.61863 -6.0888,-9.49057 -6.0662,-16.13606 0.012,-3.45165 0.2759,-5.29772 1.0958,-7.65937 1.9053,-5.48779 1.871,-5.48724 7.213,-0.11562 11.1656,11.22755 24.8007,17.92542 39.9849,19.6416 l 3.3552,0.37922 -0.1726,-3.41878 c -0.3534,-6.99738 2.2632,-13.71236 7.2452,-18.59325 4.8626,-4.76412 10.2466,-6.9598 17.0938,-6.97129 5.7988,-0.01 10.0844,1.49847 15.2757,5.37569 l 2.5898,1.93431 3.6334,-1.06239 c 1.9984,-0.58431 5.2188,-1.82159 7.1566,-2.74951 2.0073,-0.96124 3.7029,-1.5073 3.941,-1.26916 0.749,0.74894 -2.3407,6.33985 -5.1053,9.23821 l -2.6815,2.8113 2.8627,-0.66783 c 1.5745,-0.3673 3.9629,-1.08587 5.3076,-1.5968 1.4372,-0.54609 2.5605,-0.74193 2.7253,-0.47516 0.6051,0.97908 -4.468,7.16411 -8.5438,10.41645 l -2.6133,2.08523 -0.2717,5.80311 c -1.3836,29.54079 -20.915,54.76781 -48.6259,62.80569 -8.4149,2.44085 -20.6627,3.2042 -29.5055,1.83893 z m 17.0631,-0.70201 c 11.3545,-1.1509 21.2309,-4.59289 30.3292,-10.56984 5.4759,-3.59727 14.1814,-12.44292 18.107,-18.39856 7.1345,-10.82396 10.9239,-22.51759 11.6633,-35.99173 0.2916,-5.31409 0.3148,-5.39936 1.7781,-6.52225 1.9583,-1.50277 6.2455,-5.8179 8.0829,-8.13547 l 1.4677,-1.85122 -1.4011,0.71651 c -1.3816,0.70657 -8.89,2.74657 -10.109,2.74657 -1.2179,0 -0.5912,-0.9864 2.6593,-4.18564 1.8074,-1.7789 3.8613,-4.37268 4.5641,-5.76395 l 1.2779,-2.52957 -2.2902,1.15556 c -1.9408,0.97927 -7.1755,2.83455 -10.9781,3.89091 -0.7585,0.21071 -1.6194,-0.22566 -3.2791,-1.6621 -15.7869,-13.66353 -40.2102,-0.87688 -38.2894,20.0462 l 0.3241,3.53141 -3.2778,-0.34204 c -16.0024,-1.66987 -30.1793,-8.33341 -41.4107,-19.46427 l -4.6471,-4.60543 -1.1094,2.45123 c -0.9712,2.14607 -1.1093,3.20067 -1.1093,8.4712 v 6.01997 l 2.0133,4.06321 c 1.424,2.87382 2.7903,4.79797 4.6675,6.57328 1.4597,1.38054 2.654,2.71329 2.654,2.96168 0,0.81849 -3.5345,0.45112 -6.8216,-0.70902 -3.7321,-1.31718 -3.6565,-1.42091 -2.5096,3.44367 1.8051,7.6562 7.6019,14.1257 14.9561,16.69185 4.3419,1.51507 2.7855,2.56708 -3.798,2.56708 h -3.3192 l 1.5839,2.9785 c 3.1886,5.99632 9.7698,10.73832 16.5436,11.9204 3.589,0.62632 3.7809,1.26883 0.9574,3.20545 -7.2373,4.96412 -17.7059,8.2031 -26.6311,8.23965 l -3.6474,0.0149 1.9149,1.18034 c 3.2951,2.0311 9.8365,4.57385 15.4671,6.01219 8.7142,2.22608 15.0247,2.72021 23.6167,1.84929 z"
     id="path66-3"
     inkscape:connector-curvature="0"
     sodipodi:nodetypes="ccccscsccscccccscscscccccccsscsscscssssccsccccccccsccscccscccscccsccscccccccccccscsccccccccccscccsccsccccccccccscscsccssscscscsscsccccsccscsscccccssccccscccscscscccscccccssssscscssccccccccccccsscccscccsccsccccccccscccccsscccsccscccccscsccccccccscsccscccccscscscccccccssccscccsccscccccccsccccsccccccccscscsccccscscccccccccccccccccccsscccccscccccsccscscsssscsccsccccccccscccccccccsssccccccccccccccccccscccccccccssccccccsscccccssccccsccsccccccsccccccccccccccccccccccsscccccccccccccccccccccccccccccccccsscsccccccssccccccccccccccccsscccscsscccccsccscccscsccccsccccccssccccccccccsccsccscsccccccccccscccccccsccccscsccccccsscscscssscsccccscccsscsccccccccscccccccccccccccccsccccccccccsccccccccscccscccscccscccccccccc" />
  <path
     style="fill:#ff00ff;stroke:url(#radialGradient2453);stroke-width:1.05316293;stroke-miterlimit:3.79999995;stroke-dasharray:none;stroke-opacity:1"
     d="m 1301.3657,695.24634 c -2.141,-0.49927 -5.5212,-1.58568 -7.5115,-2.41423 -6.0464,-2.51717 -62.9049,-34.81084 -68.3082,-38.79682 -8.7907,-6.4847 -15.0534,-16.02761 -17.5086,-26.67927 -0.9783,-4.24376 -1.7354,-37.16094 -1.5056,-65.45566 0.1598,-19.67099 0.2153,-20.75388 1.2512,-24.39993 2.9694,-10.45293 9.3879,-19.49626 18.249,-25.71171 3.804,-2.6683 57.6639,-34.28625 62.8232,-36.87984 5.4425,-2.73593 10.1359,-4.20968 13.256,-4.16249 l 10.2012,-0.16439 -11.4253,1.08435 c -4.8837,0.4635 -9.5346,3.03171 -15.495,6.36306 -6.7499,3.7726 -54.4674,31.82023 -56.9665,33.48408 -9.0017,5.99295 -15.3849,13.92169 -18.4547,22.92276 -2.6665,7.81882 -2.7411,9.32768 -2.3861,48.28796 0.1787,19.61516 0.5245,37.26416 0.7684,39.22 1.762,14.13143 8.4063,24.94509 20.0724,32.66811 3.6678,2.42814 37.1618,21.6567 56.0091,32.15419 4.0809,2.27303 9.1627,4.76725 11.2928,5.54268 12.1345,4.4176 24.3356,3.73611 35.8601,-2.00297 7.0882,-3.52984 60.5931,-35.03632 64.8653,-38.1961 10.4166,-7.70425 16.3833,-18.70769 17.6559,-32.56003 0.3402,-3.70333 0.3766,-16.99039 0.1128,-41.13428 l -0.3897,-35.66392 -1.2587,-4.78711 c -1.6312,-6.20362 -5.2392,-13.46826 -8.7966,-17.71229 -5.6964,-6.79569 -7.0927,-7.68483 -53.2799,-33.92719 -21.1358,-12.00884 -23.5863,-13.18146 -31.1703,-14.91578 l -7.014,-0.82752 7.5468,0.29914 c 2.7383,0.10854 4.5822,0.5744 7.7651,1.86955 5.0415,2.05135 59.7976,32.92476 67.0942,37.82999 7.1553,4.81027 14.1001,13.31362 16.9493,20.75307 3.3184,8.66432 3.2154,6.98832 3.2154,52.34788 0,45.31233 0.1577,42.77512 -3.1587,50.8461 -2.7856,6.77943 -8.8852,14.41401 -15.0322,18.81539 -4.9293,3.52942 -56.9192,34.06986 -64.4414,37.85478 -6.9963,3.52033 -11.456,4.5988 -19.8117,4.79098 -5.793,0.13325 -7.9329,-0.0102 -11.0735,-0.7426 z m -21.9575,-65.40896 c -8.0514,-1.24307 -16.3431,-4.10227 -23.4939,-8.10121 -1.691,-0.94565 -3.0743,-1.97809 -3.0741,-2.29431 2e-4,-0.41507 1.7641,-0.594 6.3429,-0.64344 5.0794,-0.0548 7.2595,-0.30834 10.9472,-1.27296 4.7879,-1.25241 10.1549,-3.51487 13.7854,-5.81121 2.326,-1.47121 2.1691,-1.8055 -1.1256,-2.3985 -3.5286,-0.63511 -8.0143,-3.21877 -11.2806,-6.49735 -3.0602,-3.07167 -5.7446,-7.48932 -5.7446,-9.45374 0,-0.93993 0.1897,-0.97801 3.5903,-0.72082 1.9748,0.14934 3.5904,0.15127 3.5904,0.004 0,-0.14699 -1.361,-1.02834 -3.0243,-1.95855 -7.4483,-4.16533 -13.3412,-13.69758 -12.6848,-20.51868 0.1754,-1.82164 0.3525,-1.83282 4.5497,-0.2871 1.6295,0.60008 3.115,0.93862 3.3013,0.75232 0.1863,-0.18631 -0.5218,-1.27228 -1.5735,-2.41326 -4.2573,-4.61863 -6.0888,-9.49057 -6.0662,-16.13606 0.012,-3.45165 0.2759,-5.29772 1.0958,-7.65937 1.9053,-5.48779 1.871,-5.48724 7.213,-0.11562 11.1656,11.22755 24.8007,17.92542 39.9849,19.6416 l 3.3552,0.37922 -0.1726,-3.41878 c -0.3534,-6.99738 2.2632,-13.71236 7.2452,-18.59325 4.8626,-4.76412 10.2466,-6.9598 17.0938,-6.97129 5.7988,-0.01 10.0844,1.49847 15.2757,5.37569 l 2.5898,1.93431 3.6334,-1.06239 c 1.9984,-0.58431 5.2188,-1.82159 7.1566,-2.74951 2.0073,-0.96124 3.7029,-1.5073 3.941,-1.26916 0.749,0.74894 -2.3407,6.33985 -5.1053,9.23821 l -2.6815,2.8113 2.8627,-0.66783 c 1.5745,-0.3673 3.9629,-1.08587 5.3076,-1.5968 1.4372,-0.54609 2.5605,-0.74193 2.7253,-0.47516 0.6051,0.97908 -4.468,7.16411 -8.5438,10.41645 l -2.6133,2.08523 -0.2717,5.80311 c -1.3836,29.5408 -20.915,54.76782 -48.6259,62.8057 -8.4149,2.44085 -20.6627,3.2042 -29.5055,1.83893 z m 17.0631,-0.70201 c 11.3545,-1.1509 21.2309,-4.59289 30.3292,-10.56984 5.4759,-3.59727 14.1814,-12.44292 18.107,-18.39856 7.1345,-10.82396 10.9239,-22.51759 11.6633,-35.99174 0.2916,-5.31409 0.3148,-5.39936 1.7781,-6.52225 1.9583,-1.50277 6.2455,-5.8179 8.0829,-8.13547 l 1.4677,-1.85122 -1.4011,0.71651 c -1.3816,0.70657 -8.89,2.74657 -10.109,2.74657 -1.2179,0 -0.5912,-0.9864 2.6593,-4.18564 1.8074,-1.7789 3.8613,-4.37268 4.5641,-5.76395 l 1.2779,-2.52957 -2.2902,1.15556 c -1.9408,0.97927 -7.1755,2.83455 -10.9781,3.89091 -0.7585,0.21071 -1.6194,-0.22566 -3.2791,-1.6621 -15.7869,-13.66353 -40.2102,-0.87688 -38.2894,20.0462 l 0.3241,3.53141 -3.2778,-0.34204 c -16.0024,-1.66987 -30.1793,-8.33341 -41.4107,-19.46427 l -4.6471,-4.60543 -1.1094,2.45123 c -0.9712,2.14607 -1.1093,3.20067 -1.1093,8.4712 v 6.01997 l 2.0133,4.06321 c 1.424,2.87382 2.7903,4.79797 4.6675,6.57328 1.4597,1.38054 2.654,2.7133 2.654,2.96169 0,0.81849 -3.5345,0.45112 -6.8216,-0.70902 -3.7321,-1.31719 -3.6565,-1.42092 -2.5096,3.44367 1.8051,7.6562 7.6019,14.1257 14.9561,16.69185 4.3419,1.51507 2.7855,2.56708 -3.798,2.56708 h -3.3192 l 1.5839,2.9785 c 3.1886,5.99632 9.7698,10.73832 16.5436,11.9204 3.589,0.62632 3.7809,1.26883 0.9574,3.20545 -7.2373,4.96412 -17.7059,8.2031 -26.6311,8.23965 l -3.6474,0.0149 1.9149,1.18034 c 3.2951,2.0311 9.8365,4.57385 15.4671,6.01219 8.7142,2.22608 15.0247,2.72021 23.6167,1.84929 z"
     id="path66-3-6"
     inkscape:connector-curvature="0"
     sodipodi:nodetypes="ccscccccccsccccscsccccccsscscscssscsccccccccsscsccccccccscccccccccccccccccsccccccccccsccccccccscccscccscccsccccccccccccc" />
  <path
     style="fill:#ff00ff;stroke:url(#radialGradient2477);stroke-width:1.05316293;stroke-miterlimit:3.79999995;stroke-dasharray:none;stroke-opacity:1;fill-opacity:1"
     d="m 615.14967,705.14773 c -2.1411,-0.49927 -5.5212,-1.58567 -7.5115,-2.41424 -6.0466,-2.51715 -62.9049,-34.81083 -68.3084,-38.7968 -6.6788,-4.92686 -12.5052,-12.40864 -15.2932,-19.63814 -3.1813,-8.24939 -3.0482,-6.12525 -3.2348,-51.60851 -0.1669,-40.67775 -0.1535,-41.40629 0.8315,-45.20614 2.6318,-10.15315 9.2311,-19.51484 18.1826,-25.79378 4.0781,-2.86052 57.9267,-34.42945 63.1899,-37.0452 13.0389,-6.48039 26.61849,-6.98832 39.59549,-1.48104 4.8165,2.04409 59.4709,32.9929 65.9012,37.31751 4.1329,2.77951 9.4239,8.00003 12.247,12.08372 3.1397,4.5418 5.0749,8.81028 6.609,14.57756 l 1.2111,4.55325 0.4613,36.38199 c 0.5607,44.22372 0.3976,46.78419 -3.6032,56.5645 -2.6638,6.51207 -8.8968,14.2669 -14.9515,18.60216 -4.9293,3.52942 -56.9192,34.06986 -64.4413,37.85478 -6.9963,3.52033 -11.456,4.5988 -19.8117,4.79098 -5.793,0.13325 -7.933,-0.0102 -11.07349,-0.7426 z m 17.61359,-0.69973 c 4.2855,-0.82302 8.784,-2.33593 12.6083,-4.24034 7.0882,-3.52983 60.593,-35.03631 64.8652,-38.1961 10.4166,-7.70425 16.3833,-18.70768 17.656,-32.56002 0.3402,-3.70333 0.3767,-16.99039 0.1129,-41.13428 l -0.3898,-35.66392 -1.2588,-4.7871 c -2.6038,-9.90244 -7.8262,-18.04613 -15.5031,-24.17488 -3.6751,-2.93402 -19.3083,-12.1004 -53.5519,-31.39964 -18.7925,-10.59118 -21.2954,-11.45746 -32.9938,-11.41947 -6.3535,0.0206 -8.30029,0.20304 -11.41919,1.06997 -7.045,1.95821 -7.5218,2.22078 -58.7912,32.36988 -6.7574,3.97379 -14.0368,8.60433 -16.1764,10.29009 -6.4426,5.07634 -11.6334,12.30751 -14.1666,19.73552 -2.6666,7.81882 -2.7412,9.32768 -2.3862,48.28795 0.1788,19.61516 0.5245,37.26415 0.7684,39.22 1.762,14.13142 8.4063,24.94509 20.0724,32.66811 2.238,1.48155 14.0861,8.39067 26.329,15.3536 32.9815,18.75741 36.0421,20.4381 40.0938,22.01663 7.7457,3.01779 16.77339,3.977 24.13099,2.564 z m -24.01299,-81.16275 v -29.67357 l -6.1036,-0.13398 -6.1036,-0.13398 v -10.77098 -10.77099 l 6.0569,-0.13362 6.0569,-0.13364 0.2078,-10.39799 c 0.183,-9.15505 0.3319,-10.73677 1.2457,-13.23201 2.2127,-6.04231 5.3835,-9.84987 10.24649,-12.30474 5.2754,-2.66298 7.5585,-2.99661 20.7063,-3.02574 l 11.9678,-0.0265 v 10.77098 10.77099 l -7.7689,0.23935 c -7.711,0.23757 -7.7787,0.24924 -9.0955,1.56535 -1.315,1.31441 -1.328,1.38862 -1.4808,8.4971 l -0.1542,7.17114 h 9.1018 c 5.0059,0 9.2162,0.1852 9.356,0.41156 0.3835,0.6205 -1.7297,20.3216 -2.2536,21.01073 -0.3314,0.43581 -2.5841,0.59839 -8.2914,0.59839 h -7.8365 l -0.1233,29.56036 -0.1233,29.56036 -12.8056,0.1275 -12.80539,0.1275 z m 25.00889,-1.09922 0.1234,-29.79973 8.0121,-0.13122 c 7.8509,-0.12858 8.0165,-0.15268 8.2275,-1.19678 0.3488,-1.72555 1.7182,-15.28729 1.715,-16.98267 l -0.01,-1.55581 h -9.0954 -9.0956 v -7.44379 c 0,-11.27939 0.4168,-11.70463 11.4737,-11.70463 h 6.7173 v -10.12597 -10.12597 l -11.13,0.28512 c -8.7292,0.22362 -11.8597,0.48074 -14.5124,1.19194 -4.5083,1.20866 -7.9042,3.12388 -10.54519,5.94735 -4.5315,4.8445 -5.9389,10.39019 -5.9389,23.40128 v 8.57467 h -6.2232 -6.2233 v 9.81356 9.81357 h 5.466 c 3.0063,0 5.8068,0.13075 6.2233,0.29057 0.6792,0.26064 0.7572,3.34339 0.7572,29.9194 v 29.62882 h 11.96419 11.9641 z"
     id="path66-3-7"
     inkscape:connector-curvature="0"
     sodipodi:nodetypes="ccssccccscccscscscccscccccssssscscssccccccccccccsscccscccsccsccccccccscccccsscccsccscccccscsccccc" />
  <path
     style="fill:#ff00ff;stroke:url(#radialGradient2475);stroke-width:1.05316293;stroke-miterlimit:3.79999995;stroke-dasharray:none;stroke-opacity:1;fill-opacity:1"
     d="m 844.4683,697.54121 c -2.1411,-0.49927 -5.5213,-1.58568 -7.5116,-2.41424 -6.0465,-2.51716 -62.9049,-34.81083 -68.3083,-38.79681 -8.7906,-6.48471 -15.0533,-16.02761 -17.5086,-26.67927 -0.9782,-4.24376 -1.7353,-37.16094 -1.5055,-65.45567 0.1598,-19.67098 0.2153,-20.75387 1.2511,-24.39992 2.9695,-10.45293 9.388,-19.49626 18.2491,-25.71171 4.0781,-2.86053 57.9267,-34.42945 63.1897,-37.0452 13.0389,-6.4804 26.6186,-6.98833 39.5956,-1.48104 4.8165,2.04409 59.4708,32.9929 65.9012,37.3175 4.1329,2.77952 9.424,8.00004 12.247,12.08373 3.1398,4.5418 5.0749,8.81028 6.609,14.57756 l 1.2111,4.55325 0.4613,36.382 c 0.5608,44.22371 0.3977,46.78418 -3.6031,56.5645 -2.6639,6.51207 -8.8969,14.2669 -14.9516,18.60216 -4.9293,3.52942 -56.9191,34.06985 -64.4413,37.85478 -6.9963,3.52032 -11.456,4.5988 -19.8117,4.79098 -5.7931,0.13324 -7.9329,-0.0102 -11.0734,-0.7426 z m 17.6135,-0.69974 c 4.2856,-0.82301 8.7841,-2.33592 12.6083,-4.24033 7.0882,-3.52984 60.593,-35.03631 64.8653,-38.1961 10.4166,-7.70425 16.3832,-18.70769 17.6559,-32.56003 0.3402,-3.70333 0.3766,-16.99039 0.1128,-41.13427 l -0.3898,-35.66393 -1.2587,-4.7871 c -2.6038,-9.90245 -7.8263,-18.04613 -15.503,-24.17488 -3.6752,-2.93403 -19.3084,-12.1004 -53.552,-31.39964 -18.7925,-10.59118 -21.2954,-11.45746 -32.9937,-11.41947 -6.3537,0.0206 -8.3004,0.20304 -11.4193,1.06996 -7.0449,1.95822 -7.5218,2.22078 -58.7911,32.36988 -6.7576,3.97379 -14.037,8.60433 -16.1764,10.2901 -6.4427,5.07633 -11.6334,12.3075 -14.1667,19.73551 -2.6666,7.81882 -2.7411,9.32769 -2.3861,48.28797 0.1787,19.61515 0.5245,37.26415 0.7684,39.22 1.762,14.13142 8.4063,24.94509 20.0724,32.6681 2.2379,1.48155 14.086,8.39068 26.329,15.35361 32.9814,18.7574 36.0421,20.4381 40.0937,22.01662 7.7458,3.01779 16.7733,3.977 24.131,2.564 z m -63.5257,-57.84774 c -0.1257,-0.32911 -0.1728,-16.86257 -0.1047,-36.74102 l 0.1237,-36.14265 12.5662,-0.12762 12.5661,-0.12763 v 36.86866 36.86865 H 811.246 c -9.5283,0 -12.5153,-0.14085 -12.6899,-0.59839 z M 822.75,602.73142 v -35.90329 h -11.489 -11.489 v 35.90329 35.90328 h 11.489 11.489 z m 13.7309,36.54946 c -0.1798,-0.17987 -0.327,-16.77432 -0.327,-36.87655 v -36.54952 l 12.5661,0.12763 12.5662,0.12762 0.14,4.00829 0.1401,4.0083 3.2109,-3.09984 c 3.3661,-3.2496 5.3138,-4.44065 9.6735,-5.91557 3.6208,-1.22491 12.4656,-1.23471 16.5155,-0.0183 9.2031,2.76421 15.4135,9.29742 18.4941,19.4553 1.061,3.4987 1.0903,4.18463 1.256,29.32119 l 0.1697,25.73868 -12.5928,-0.12767 -12.5928,-0.12769 -0.2633,-22.73874 c -0.1836,-15.86098 -0.4384,-23.26181 -0.842,-24.46804 -0.9798,-2.9275 -3.3164,-5.68881 -5.7098,-6.74752 -1.7573,-0.77736 -2.8847,-0.92932 -5.5917,-0.75369 -1.8649,0.12099 -4.0678,0.57156 -4.8956,1.00126 -2.0545,1.06654 -4.3033,3.39476 -5.5745,5.77133 -1.0395,1.94362 -1.0629,2.39226 -1.2979,24.9573 l -0.2394,22.9781 -12.239,0.12758 c -6.7316,0.0702 -12.3863,-0.0196 -12.5663,-0.19946 z m 24.0873,-23.06911 v -22.42293 l 1.4639,-2.92954 c 2.4692,-4.94137 6.4336,-7.40929 11.9278,-7.42549 7.386,-0.0218 11.3056,4.10483 12.4321,13.08887 0.2785,2.22123 0.5052,12.57414 0.5052,23.07073 v 19.04129 h 11.52 11.52 l -0.1817,-24.77327 c -0.2019,-27.53895 -0.1854,-27.38034 -3.5946,-34.58682 -1.2131,-2.5645 -2.6007,-4.49151 -4.8562,-6.74439 -5.0401,-5.03418 -10.913,-7.31587 -18.7159,-7.27133 -7.959,0.0454 -12.4198,1.89555 -17.8098,7.38649 -2.0283,2.06633 -3.8056,3.75697 -3.9493,3.75697 -0.1439,0 -0.2615,-2.1542 -0.2615,-4.78711 v -4.78711 h -11.7285 -11.7284 v 35.90329 35.90328 h 11.7284 11.7285 z m -53.715,-59.59963 c -6.0003,-1.69349 -9.6016,-6.47909 -9.6039,-12.76211 0,-3.9361 1.363,-6.97861 4.282,-9.54801 2.746,-2.41717 5.6456,-3.37834 10.174,-3.37249 8.1913,0.0106 13.6547,5.27801 13.6495,13.15986 -0.01,5.41396 -2.7234,9.59213 -7.6772,11.79392 -2.6417,1.17415 -7.9744,1.5332 -10.8244,0.72883 z m 9.6211,-1.49387 c 3.0394,-1.0724 5.167,-2.96491 6.5801,-5.85304 1.5168,-3.10025 1.6886,-6.98247 0.4415,-9.97556 -2.4713,-5.93096 -9.9845,-8.87173 -16.9327,-6.62769 -6.3628,2.05494 -9.5681,8.40608 -7.6999,15.25709 0.6397,2.3463 4.7155,6.49798 7.1355,7.26862 2.4435,0.77808 8.1811,0.74005 10.4755,-0.0694 z"
     id="path66-5"
     inkscape:connector-curvature="0"
     sodipodi:nodetypes="cssssssscscccccscscscccccccsssssssssscscscccccscccccccccccscccccccccscccccccccscsccscscsccccccscssccccccccssssccsscssccscc" />
</svg>
