<?xml version="1.0" encoding="UTF-8" standalone="no"?>
<!-- Created with Inkscape (http://www.inkscape.org/) -->

<svg
   xmlns:dc="http://purl.org/dc/elements/1.1/"
   xmlns:cc="http://creativecommons.org/ns#"
   xmlns:rdf="http://www.w3.org/1999/02/22-rdf-syntax-ns#"
   xmlns:svg="http://www.w3.org/2000/svg"
   xmlns="http://www.w3.org/2000/svg"
   xmlns:xlink="http://www.w3.org/1999/xlink"
   xmlns:sodipodi="http://sodipodi.sourceforge.net/DTD/sodipodi-0.dtd"
   xmlns:inkscape="http://www.inkscape.org/namespaces/inkscape"
   width="200px"
   height="200px"
   viewBox="0 0 200 200"
   version="1.1"
   id="SVGRoot"
   inkscape:version="0.92.3 (2405546, 2018-03-11)"
   sodipodi:docname="tw.svg">
  <sodipodi:namedview
     id="base"
     pagecolor="#ffffff"
     bordercolor="#666666"
     borderopacity="1.0"
     inkscape:pageopacity="0.0"
     inkscape:pageshadow="2"
     inkscape:zoom="2.56"
     inkscape:cx="100"
     inkscape:cy="100"
     inkscape:document-units="px"
     inkscape:current-layer="layer1"
     showgrid="false"
     inkscape:window-width="1366"
     inkscape:window-height="707"
     inkscape:window-x="0"
     inkscape:window-y="27"
     inkscape:window-maximized="1" />
  <defs
     id="defs2544">
    <radialGradient
       inkscape:collect="always"
       xlink:href="#linearGradient2451"
       id="radialGradient2453"
       cx="1310.6874"
       cy="583.30737"
       fx="1310.6874"
       fy="583.30737"
       r="104.72365"
       gradientTransform="matrix(0.87485741,0,0,0.94610187,-1045.52,-450.97679)"
       gradientUnits="userSpaceOnUse" />
    <linearGradient
       inkscape:collect="always"
       id="linearGradient2451">
      <stop
         style="stop-color:#000000;stop-opacity:1;"
         offset="0"
         id="stop2447" />
      <stop
         style="stop-color:#000000;stop-opacity:0;"
         offset="1"
         id="stop2449" />
    </linearGradient>
  </defs>
  <metadata
     id="metadata2547">
    <rdf:RDF>
      <cc:Work
         rdf:about="">
        <dc:format>image/svg+xml</dc:format>
        <dc:type
           rdf:resource="http://purl.org/dc/dcmitype/StillImage" />
        <dc:title></dc:title>
      </cc:Work>
    </rdf:RDF>
  </metadata>
  <g
     id="layer1"
     inkscape:groupmode="layer"
     inkscape:label="Camada 1">
    <path
       style="fill:#ff00ff;stroke:url(#radialGradient2453);stroke-width:0.92136741;stroke-miterlimit:3.79999995;stroke-dasharray:none;stroke-opacity:1"
       d="m 92.989422,198.82201 c -1.873069,-0.43679 -4.830259,-1.38724 -6.571489,-2.11209 C 81.128195,194.50775 31.385115,166.25541 26.657997,162.76823 18.967387,157.09504 13.48842,148.74637 11.340469,139.42767 10.484596,135.71499 9.822242,106.91715 10.023284,82.163305 10.163086,64.953988 10.211641,64.006614 11.117906,60.81684 13.715707,51.672016 19.330978,43.760392 27.083178,38.32276 30.411136,35.988377 77.530869,8.3271792 82.044521,6.0581582 86.805933,3.6646094 90.911992,2.3752883 93.641633,2.4165722 L 102.56623,2.2727543 92.570716,3.2214056 C 88.298177,3.6269026 84.229303,5.8737204 79.014803,8.7881761 73.109602,12.088664 31.363593,36.626341 29.177236,38.081972 21.302033,43.32495 15.717643,50.261466 13.032006,58.13612 c -2.332807,6.840352 -2.398071,8.16039 -2.087497,42.24508 0.156337,17.16047 0.458862,32.60083 0.67224,34.31191 1.541499,12.36298 7.354313,21.82339 17.560487,28.57993 3.208803,2.12428 32.511278,18.94653 48.999978,28.13034 3.570206,1.98858 8.016056,4.17066 9.87959,4.84905 10.615956,3.86477 21.290176,3.26856 31.372476,-1.75231 6.20115,-3.08811 53.01031,-30.65179 56.74788,-33.41614 9.11304,-6.74012 14.33306,-16.36657 15.4464,-28.48538 0.29762,-3.23988 0.32946,-14.86417 0.0986,-35.986641 L 191.38128,65.411119 190.2801,61.22308 C 188.85303,55.795797 185.69655,49.440272 182.58434,45.727352 177.6008,39.782092 176.37923,39.004221 135.97201,16.045897 117.48124,5.539874 115.33739,4.5139992 108.70247,2.9967168 l -6.13624,-0.7239625 6.60237,0.2617054 c 2.39562,0.094963 4.00877,0.5025176 6.79336,1.6355888 4.41059,1.7946389 52.31436,28.8044715 58.69785,33.0958485 6.25986,4.2083 12.33557,11.64752 14.82822,18.155977 2.90312,7.580045 2.81301,6.113784 2.81301,45.796926 0,39.64183 0.13797,37.42213 -2.76341,44.48309 -2.437,5.93104 -7.77329,12.6102 -13.15103,16.46078 -4.31244,3.08773 -49.79618,29.80627 -56.37703,33.11754 -6.12077,3.07979 -10.02237,4.02328 -17.33241,4.19142 -5.06805,0.11662 -6.940164,-0.008 -9.687738,-0.64968 z m -19.209679,-57.2235 c -7.043827,-1.08752 -14.297882,-3.5889 -20.553813,-7.0874 -1.479384,-0.82732 -2.689574,-1.73054 -2.689399,-2.00719 1.75e-4,-0.36313 1.543335,-0.51966 5.549133,-0.56292 4.44375,-0.048 6.351028,-0.26975 9.577239,-1.11367 4.188731,-1.09567 8.88409,-3.07501 12.060259,-5.08398 2.03492,-1.2871 1.897654,-1.57956 -0.984739,-2.09833 -3.087022,-0.55565 -7.011369,-2.81597 -9.868916,-5.68428 -2.677239,-2.68727 -5.025706,-6.55207 -5.025706,-8.27067 0,-0.8223 0.16596,-0.85562 3.141001,-0.63061 1.727668,0.13065 3.141087,0.13234 3.141087,0.004 0,-0.1286 -1.190681,-0.89965 -2.645831,-1.71344 -6.5162,-3.64407 -11.671647,-11.983444 -11.097391,-17.950932 0.15345,-1.593666 0.308387,-1.603448 3.980339,-0.251164 1.42558,0.524974 2.72518,0.821156 2.888166,0.65816 0.162986,-0.162984 -0.4565,-1.113055 -1.376587,-2.11125 -3.724532,-4.040643 -5.326833,-8.30289 -5.307061,-14.116752 0.01047,-3.019702 0.241373,-4.63475 0.958669,-6.700857 1.666865,-4.801034 1.636858,-4.800553 6.310346,-0.101151 9.768308,9.822504 21.697077,15.68219 34.981081,17.183606 l 2.93533,0.331763 -0.151,-2.990955 c -0.30917,-6.121705 1.97997,-11.996356 6.33851,-16.266439 4.25409,-4.167925 8.96431,-6.088833 14.95464,-6.098885 5.07312,-0.0088 8.82241,1.310949 13.36406,4.702963 l 2.2657,1.692245 3.1787,-0.92944 c 1.74832,-0.511188 4.56571,-1.593631 6.26101,-2.405428 1.7561,-0.840948 3.23951,-1.318673 3.44781,-1.110335 0.65527,0.655216 -2.04777,5.546465 -4.4664,8.082117 l -2.34594,2.459486 2.50446,-0.584256 c 1.37746,-0.321334 3.46697,-0.94998 4.64339,-1.396972 1.25735,-0.477751 2.24007,-0.649083 2.38425,-0.415697 0.52938,0.856555 -3.90887,6.267574 -7.47461,9.112905 l -2.28626,1.824278 -0.2377,5.076895 c -1.21046,25.843985 -18.29764,47.914045 -42.54072,54.946035 -7.361835,2.13539 -18.076918,2.80322 -25.813107,1.6088 z m 14.92778,-0.61417 c 9.933567,-1.00687 18.574017,-4.01811 26.533737,-9.24708 4.79063,-3.1471 12.40671,-10.88579 15.84105,-16.09614 6.24164,-9.46941 9.55685,-19.699674 10.20371,-31.487636 0.25512,-4.649073 0.2754,-4.723663 1.55558,-5.706031 1.71325,-1.314715 5.46393,-5.089838 7.07138,-7.11738 l 1.28405,-1.619555 -1.22577,0.626844 c -1.20871,0.618149 -7.77749,2.402857 -8.84394,2.402857 -1.06549,0 -0.51722,-0.862958 2.32651,-3.661837 1.58122,-1.556284 3.37809,-3.825472 3.99293,-5.042635 l 1.11799,-2.213013 -2.00361,1.01095 c -1.69792,0.856722 -6.27753,2.479828 -9.60426,3.403992 -0.66359,0.184341 -1.41675,-0.197421 -2.86875,-1.454101 C 120.27684,52.829934 98.90994,64.01643 100.59037,82.321137 l 0.28353,3.089489 -2.8676,-0.299241 C 84.006477,83.650489 71.60371,77.82084 61.777836,68.082925 l -4.06555,-4.029095 -0.970566,2.144477 c -0.849661,1.877505 -0.97048,2.80013 -0.97048,7.411092 v 5.266614 l 1.761351,3.554736 c 1.245797,2.514177 2.441114,4.197534 4.083397,5.75068 1.27703,1.207768 2.321871,2.373743 2.321871,2.591052 0,0.716066 -3.092183,0.394667 -5.967927,-0.620295 -3.265056,-1.152349 -3.198916,-1.2431 -2.195542,3.012721 1.579205,6.698085 6.650579,12.357973 13.084455,14.602983 3.798544,1.32547 2.436915,2.24584 -3.322709,2.24584 H 62.63231 l 1.385687,2.60577 c 2.789569,5.24592 8.547181,9.39451 14.47329,10.42864 3.139864,0.54794 3.30775,1.11005 0.837589,2.80431 -6.331605,4.3429 -15.490138,7.17655 -23.298415,7.20852 l -3.190956,0.0131 1.675265,1.03264 c 2.882742,1.77692 8.605535,4.00146 13.531508,5.25981 7.623682,1.9475 13.14447,2.3798 20.661245,1.61786 z"
       id="path66-3-6"
       inkscape:connector-curvature="0"
       sodipodi:nodetypes="ccscccccccsccccscsccccccsscscscssscsccccccccsscsccccccccscccccccccccccccccsccccccccccsccccccccscccscccscccsccccccccccccc" />
  </g>
</svg>
