<?xml version="1.0" encoding="UTF-8" standalone="no"?>
<!-- Created with Inkscape (http://www.inkscape.org/) -->

<svg
   xmlns:osb="http://www.openswatchbook.org/uri/2009/osb"
   xmlns:dc="http://purl.org/dc/elements/1.1/"
   xmlns:cc="http://creativecommons.org/ns#"
   xmlns:rdf="http://www.w3.org/1999/02/22-rdf-syntax-ns#"
   xmlns:svg="http://www.w3.org/2000/svg"
   xmlns="http://www.w3.org/2000/svg"
   xmlns:xlink="http://www.w3.org/1999/xlink"
   xmlns:sodipodi="http://sodipodi.sourceforge.net/DTD/sodipodi-0.dtd"
   xmlns:inkscape="http://www.inkscape.org/namespaces/inkscape"
   width="200px"
   height="200px"
   viewBox="0 0 200 200"
   version="1.1"
   id="SVGRoot"
   inkscape:version="0.92.3 (2405546, 2018-03-11)"
   sodipodi:docname="yo.svg">
  <sodipodi:namedview
     id="base"
     pagecolor="#ffffff"
     bordercolor="#666666"
     borderopacity="1.0"
     inkscape:pageopacity="0.0"
     inkscape:pageshadow="2"
     inkscape:zoom="2.565"
     inkscape:cx="100"
     inkscape:cy="100"
     inkscape:document-units="px"
     inkscape:current-layer="layer1"
     showgrid="false"
     inkscape:window-width="1366"
     inkscape:window-height="707"
     inkscape:window-x="0"
     inkscape:window-y="27"
     inkscape:window-maximized="1" />
  <defs
     id="defs2544">
    <linearGradient
       id="linearGradient1063"
       osb:paint="solid">
      <stop
         style="stop-color:#801fb4;stop-opacity:1;"
         offset="0"
         id="stop1061" />
    </linearGradient>
    <linearGradient
       id="linearGradient971"
       osb:paint="solid">
      <stop
         style="stop-color:#801fb4;stop-opacity:1;"
         offset="0"
         id="stop969" />
    </linearGradient>
    <radialGradient
       inkscape:collect="always"
       xlink:href="#linearGradient1162"
       id="radialGradient1174"
       cx="643.05072"
       cy="486.89542"
       fx="643.05072"
       fy="486.89542"
       r="105.02317"
       gradientTransform="matrix(0.85954237,0,0,0.93139383,-451.66728,-353.29647)"
       gradientUnits="userSpaceOnUse" />
    <linearGradient
       inkscape:collect="always"
       id="linearGradient1162">
      <stop
         style="stop-color:#000000;stop-opacity:1;"
         offset="0"
         id="stop1158" />
      <stop
         style="stop-color:#000000;stop-opacity:0;"
         offset="1"
         id="stop1160" />
    </linearGradient>
  </defs>
  <metadata
     id="metadata2547">
    <rdf:RDF>
      <cc:Work
         rdf:about="">
        <dc:format>image/svg+xml</dc:format>
        <dc:type
           rdf:resource="http://purl.org/dc/dcmitype/StillImage" />
        <dc:title />
      </cc:Work>
    </rdf:RDF>
  </metadata>
  <g
     id="layer1"
     inkscape:groupmode="layer"
     inkscape:label="Camada 1">
    <path
       style="fill:#ff00ff;fill-opacity:1;stroke:url(#meshgradient987);stroke-width:0.90523821;stroke-miterlimit:3.79999995;stroke-dasharray:none;stroke-opacity:1"
       d="M 92.792244,196.88434 C 90.951877,196.45519 88.04654,195.52138 86.335791,194.80919 81.138569,192.64559 32.266364,164.88782 27.621895,161.4617 20.065915,155.88782 14.682945,147.68528 12.57251,138.52973 11.731706,134.88204 11.080861,106.58832 11.278469,82.267825 11.415824,65.359776 11.463528,64.428987 12.353843,61.295052 14.906168,52.310315 20.423227,44.53719 28.039736,39.194747 31.544949,36.736009 77.830104,9.6011928 82.353966,7.3528359 93.561452,1.7826657 105.23378,1.34607 116.38805,6.0798278 c 4.13999,1.7569739 51.11768,28.3587872 56.64488,32.0759652 3.55232,2.389114 8.10024,6.876364 10.52681,10.386469 2.69871,3.90387 4.3621,7.572809 5.68072,12.530039 l 1.04099,3.913703 0.39651,31.271872 c 0.48203,38.012144 0.34184,40.212974 -3.09702,48.619584 -2.28973,5.5974 -7.64727,12.263 -12.85153,15.98934 -4.23694,3.03369 -48.92447,29.28447 -55.39003,32.53778 -6.01362,3.02587 -9.84701,3.95286 -17.02899,4.11806 -4.979424,0.11452 -6.818754,-0.009 -9.518146,-0.6383 z m 15.139626,-0.60146 c 3.68357,-0.70741 7.55032,-2.00782 10.83737,-3.64473 6.09261,-3.03405 52.08226,-30.1152 55.75448,-32.83118 8.95342,-6.62212 14.08206,-16.08005 15.17599,-27.98672 0.29242,-3.18317 0.3237,-14.60395 0.0969,-35.356645 l -0.33505,-30.654657 -1.08191,-4.114724 C 186.14159,53.182656 181.65263,46.182818 175.05409,40.914897 171.89519,38.392974 158.4577,30.514091 129.02396,13.925576 112.87101,4.8220164 110.71967,4.0774124 100.66439,4.1100663 c -5.461176,0.017709 -7.134455,0.1745212 -9.815368,0.9196848 -6.055383,1.683173 -6.465303,1.9088546 -50.533439,27.8232839 -5.808358,3.415632 -12.065311,7.395778 -13.904319,8.84476 -5.537688,4.363321 -9.999315,10.578826 -12.17688,16.963508 -2.291969,6.720615 -2.356092,8.017535 -2.050954,41.505547 0.153601,16.86006 0.450916,32.03012 0.660473,33.71124 1.514599,12.14657 7.225572,21.44137 17.253096,28.07963 1.92357,1.27346 12.107514,7.21214 22.630892,13.19708 28.348908,16.12278 30.979713,17.56742 34.462232,18.92423 6.657841,2.59392 14.417447,3.41838 20.741697,2.20385 z M 71.449978,151.63413 c -1.910075,-0.16466 -4.106979,-0.65097 -5.233754,-1.15854 -2.648593,-1.19305 -5.414772,-4.14788 -6.565442,-7.01326 -0.935268,-2.32888 -0.945411,-2.5453 -0.950912,-20.25306 l -0.0086,-17.89902 1.1872,-2.57065 c 1.367703,-2.961272 3.920115,-5.526416 6.764169,-6.798059 1.621698,-0.725095 3.21658,-0.9183 10.153345,-1.230057 11.282178,-0.507056 53.646946,-0.121292 56.481206,0.514314 4.23136,0.948882 8.07445,4.541679 9.37614,8.765322 0.82671,2.68266 1.28984,24.80866 0.69082,33.00472 -0.46449,6.35496 -1.31596,8.46867 -4.6013,11.4225 -3.88049,3.48887 -2.16768,3.32168 -34.9954,3.41614 -15.954918,0.0459 -30.490116,-0.0443 -32.300657,-0.20035 z m 56.783092,-0.81284 c 4.54654,-0.27577 5.65776,-0.48306 7.4065,-1.3816 4.81284,-2.47299 6.33311,-5.46979 6.81952,-13.44233 0.45728,-7.49554 0.44859,-18.26137 -0.0206,-25.5323 -0.34158,-5.29245 -0.51305,-6.20668 -1.5415,-8.2177 -1.26275,-2.469124 -4.0493,-4.893378 -6.62595,-5.764516 -2.59436,-0.877144 -30.85035,-1.43784 -49.213105,-0.976549 -17.957211,0.451117 -18.07918,0.471443 -21.529899,3.588957 -3.727319,3.367448 -4.431715,8.307898 -4.082999,28.640208 0.248924,14.51701 0.441118,15.58969 3.377228,18.85542 2.746152,3.05441 4.810773,3.90025 10.273681,4.20908 6.720419,0.37992 48.955834,0.39626 55.137234,0.0214 z m -3.58379,-9.1153 c -0.92865,-0.49036 -1.97626,-1.5711 -2.67455,-2.75926 -1.13769,-1.93544 -1.14937,-2.0281 -1.28656,-10.21235 -0.15738,-9.38695 0.10822,-10.97822 2.22235,-13.31832 1.9234,-2.129 3.2886,-2.62001 6.74216,-2.42485 3.23103,0.18256 4.61558,0.93785 5.98689,3.26605 0.6854,1.1636 0.84682,2.30625 0.96578,6.83573 l 0.14303,5.43862 -4.87489,0.11626 -4.87481,0.11627 -0.12181,2.5441 c -0.16701,3.48733 0.32801,5.23702 1.53085,5.41157 1.3836,0.20078 1.85,-0.50119 2.0849,-3.13793 l 0.20922,-2.34891 h 2.88041 2.88024 l 0.1237,2.14166 c 0.23559,4.07662 -1.43261,7.41076 -4.30889,8.61256 -1.9742,0.82491 -5.80054,0.68385 -7.62802,-0.2812 z m 8.27585,-1.12173 c 1.62721,-1.21274 2.48047,-2.99411 2.77255,-5.78795 l 0.26482,-2.53465 h -2.32163 -2.3217 v 1.92208 c 0,2.36869 -0.84279,3.42705 -2.72888,3.42705 -2.16218,0 -2.67662,-1.18093 -2.53359,-5.81578 l 0.11905,-3.85381 4.87876,-0.1163 4.87876,-0.11631 -0.15067,-4.61562 c -0.2387,-7.30861 -1.99226,-9.5502 -7.23649,-9.25022 -4.20161,0.24034 -6.42216,2.53107 -6.91502,7.13364 -0.40467,3.77853 0.008,14.94994 0.60305,16.42867 0.65412,1.61851 1.99887,3.05285 3.53006,3.76528 1.69673,0.78941 5.76177,0.45671 7.16093,-0.58608 z m -6.6808,-16.41488 c -0.15093,-0.15087 -0.27435,-1.27027 -0.27435,-2.48754 0,-1.82378 0.18462,-2.39788 1.04932,-3.26261 0.81381,-0.81375 1.29886,-0.98929 2.16029,-0.78172 1.66408,0.401 2.13958,1.33645 2.13958,4.21026 v 2.59592 h -2.40028 c -1.32017,0 -2.5237,-0.12345 -2.67456,-0.27431 z m 4.25182,-2.22157 c 0,-2.20795 -0.60735,-3.26473 -1.87621,-3.26473 -1.17551,0 -1.82704,1.25679 -1.82704,3.5243 0,1.40079 0.0163,1.41336 1.85163,1.41336 h 1.85162 z m -46.553579,19.40317 -0.971375,-0.78599 -0.205771,-13.10118 c -0.113203,-7.20565 -0.136578,-13.34057 -0.05153,-13.63316 0.110544,-0.38232 0.920825,-0.49808 2.880329,-0.41148 l 2.726638,0.12051 0.205781,11.31015 c 0.226395,12.44644 0.283905,12.67742 2.616874,10.51528 l 1.124368,-1.04206 -0.0387,-9.98021 c -0.02146,-5.48911 -0.03008,-10.22013 -0.01889,-10.51335 0.0155,-0.39444 0.742475,-0.50149 2.79738,-0.41147 l 2.777526,0.12166 0.108213,14.11106 0.108306,14.11103 -2.988542,-0.12099 -2.988625,-0.12101 0.124885,-1.23442 c 0.121888,-1.20517 0.110021,-1.21375 -0.500167,-0.36224 -1.5054,2.10094 -5.873594,2.91035 -7.705708,1.42787 z m 6.22936,-1.4771 c 1.177054,-0.79209 2.306668,-1.44015 2.510201,-1.44015 0.203543,0 0.370128,0.55549 0.370128,1.23442 0,1.20698 0.04558,1.23441 2.057308,1.23441 h 2.0574 V 127.50719 114.1118 l -1.954515,0.12542 -1.954514,0.12541 -0.109846,10.35897 -0.109846,10.35899 -1.259057,1.05936 c -1.374242,1.15637 -2.893223,1.37165 -3.607333,0.51126 -0.300321,-0.36194 -0.492171,-4.24001 -0.56472,-11.41834 l -0.109764,-10.87024 h -1.851619 -1.851629 l -0.115348,11.93267 c -0.06365,6.56298 -0.01725,12.33636 0.103481,12.82973 0.631859,2.59063 3.204723,2.89216 6.389673,0.74885 z m 19.353619,1.56857 c -0.70319,-0.49257 -1.03893,-0.55241 -1.15454,-0.20574 -0.10632,0.31883 -1.22407,0.48879 -3.21459,0.48879 h -3.05181 v -18.9277 -18.92771 h 3.08601 3.08601 v 5.39646 5.39646 l 1.11406,-0.72996 c 1.34269,-0.87976 4.13801,-1.00999 5.54302,-0.25826 0.56188,0.30063 1.37698,1.13385 1.81131,1.85163 0.71428,1.18035 0.80196,2.31619 0.91782,11.88802 0.14174,11.7142 -0.0619,12.90093 -2.42614,14.12345 -1.56557,0.80956 -4.48887,0.76069 -5.71115,-0.0955 z m 5.06426,-0.58527 c 1.87895,-0.85613 2.09797,-1.99126 2.25397,-11.68157 0.16495,-10.24301 -0.17896,-12.86459 -1.86108,-14.1877 -1.47274,-1.15847 -3.75784,-1.07836 -5.63817,0.19767 -0.83376,0.56576 -1.60021,1.02867 -1.70336,1.02867 -0.10306,0 -0.18737,-2.60195 -0.18737,-5.78211 v -5.78211 l -2.16028,0.12437 -2.16021,0.12437 v 17.89903 17.89902 l 2.16021,0.12439 c 1.94463,0.11195 2.16028,0.0401 2.16028,-0.72009 0,-1.04463 0.42702,-1.06554 1.69321,-0.083 1.75278,1.36014 3.65537,1.65343 5.4428,0.83901 z m -6.00451,-3.48174 -1.1315,-0.61388 v -9.01591 c 0,-8.85033 0.0171,-9.02767 0.91438,-9.65645 1.23086,-0.8621 2.2116,-0.8062 3.20024,0.18242 0.77179,0.77176 0.82302,1.37157 0.82302,9.64626 0,8.65129 -0.0172,8.83579 -0.91456,9.46384 -1.11293,0.77956 -1.44437,0.77885 -2.89158,-0.006 z m 2.89416,-8.81703 c 0.0645,-4.41305 0.0189,-8.4199 -0.0994,-8.90413 -0.26947,-1.09835 -1.26998,-1.512 -2.31028,-0.95524 -0.74316,0.39771 -0.79319,0.95005 -0.79319,8.76286 0,8.94334 0.11656,9.46724 2.05449,9.24076 l 1.03153,-0.12054 z m -40.646719,-2.67457 v -15.84167 h -2.880327 -2.880326 v -3.08604 -3.08604 h 9.276182 9.276097 l -0.120851,2.98318 -0.12085,2.98316 -2.983215,0.1209 -2.983217,0.12089 v 15.82365 15.82363 H 74.12453 70.832741 Z m 5.858555,-0.72008 0.107786,-15.7388 2.057396,-0.10751 c 3.802366,-0.19873 3.908947,-0.26892 3.908947,-2.57489 v -2.04953 h -8.435206 -8.43512 v 2.2631 2.26309 h 2.880327 2.880241 v 15.84167 15.84167 h 2.463963 2.463879 z M 94.355924,88.174207 c -1.0422,-0.515854 -2.23842,-1.570732 -2.880329,-2.540013 -1.097462,-1.656979 -1.097975,-1.662102 -1.228455,-11.031157 -0.119907,-8.611738 -0.06447,-9.522965 0.683764,-11.214072 1.08122,-2.444452 3.469369,-4.037038 6.42044,-4.281767 3.749926,-0.310965 6.549966,1.096484 8.056486,4.049691 0.73681,1.444101 0.81064,2.435273 0.80247,10.762236 -0.008,8.016015 -0.10426,9.379025 -0.76482,10.817527 -0.41576,0.905241 -1.11276,1.962861 -1.54907,2.350267 -2.33082,2.069698 -6.577989,2.553718 -9.540486,1.087288 z m 7.876676,-1.071468 c 0.70568,-0.412117 1.65994,-1.390842 2.12058,-2.174904 0.76009,-1.293947 0.84965,-2.253566 0.96922,-10.391163 0.12454,-8.468642 0.0825,-9.066454 -0.74918,-10.785624 -1.25047,-2.582899 -3.21692,-3.708693 -6.415454,-3.672696 -2.93362,0.033 -4.860201,1.01622 -6.134216,3.13048 -0.732157,1.214962 -0.837794,2.238798 -0.957177,9.276137 -0.160652,9.472339 0.198636,11.760169 2.142833,13.644567 0.748152,0.725157 1.898391,1.489744 2.556192,1.699108 1.671985,0.532208 4.941422,0.165241 6.467202,-0.725905 z m -5.348511,-3.30657 c -1.067885,-0.679003 -1.363051,-2.848283 -1.363051,-10.017356 0,-7.200644 0.22391,-8.722 1.3989,-9.506581 0.83685,-0.558763 2.297901,-0.321418 3.127362,0.508032 0.76937,0.769419 0.82293,1.371572 0.82293,9.258123 0,7.886541 -0.0533,8.488694 -0.82293,9.258114 -0.835908,0.835921 -2.276499,1.063472 -3.163211,0.499668 z m 2.522592,-1.414162 c 0.521141,-0.744088 0.639579,-2.258464 0.634939,-8.126577 -0.008,-3.966634 -0.112772,-7.611567 -0.243765,-8.099838 -0.274194,-1.021953 -1.384467,-1.439295 -2.366744,-0.889601 -0.591884,0.331225 -0.675685,1.411438 -0.675685,8.710552 0,8.356075 0.155139,9.319958 1.499209,9.319958 0.281329,0 0.7998,-0.411523 1.152046,-0.914494 z m 11.464659,5.270894 -1.15445,-0.992738 V 73.35426 60.048337 h 2.88023 2.88033 l 0.10959,11.022384 c 0.11931,11.992766 0.1763,12.253791 2.36237,10.82139 l 1.02552,-0.671947 V 70.51336 59.806556 l 2.98321,0.120895 2.98314,0.120886 0.10821,14.092911 c 0.0949,12.344168 0.0309,14.096577 -0.51426,14.122313 -0.34244,0.01612 -1.4559,0.02936 -2.4742,0.02936 -3.00642,0 -3.0861,-0.02279 -3.0861,-0.881743 0,-1.041645 -0.0627,-1.034818 -1.89073,0.20574 -2.0458,1.388286 -4.62288,1.403182 -6.21286,0.03603 z m 5.14178,-0.405289 c 0.61174,-0.316294 1.46449,-0.964363 1.89495,-1.44016 1.12695,-1.245198 1.88979,-1.096106 1.88979,0.369349 0,1.221946 0.0232,1.234419 2.26317,1.234419 h 2.26309 V 74.038387 60.665548 h -2.26309 -2.26317 v 10.420809 c 0,10.285525 -0.012,10.431621 -0.92582,11.254161 -1.27418,1.146947 -2.28199,1.441306 -3.21864,0.940029 -0.75313,-0.403039 -0.79319,-0.984589 -0.79319,-11.519733 V 60.665548 h -2.26309 -2.26308 v 12.158855 c 0,14.368543 0.11509,14.872745 3.41513,14.965806 0.63357,0.01786 1.6523,-0.226303 2.26395,-0.542597 z M 78.239246,81.076448 V 73.918729 L 74.739619,62.457351 C 72.81476,56.153578 71.330674,50.756667 71.441555,50.464199 c 0.146638,-0.386657 1.073568,-0.498939 3.396826,-0.411472 l 3.19509,0.120284 1.601331,6.285241 c 0.880685,3.45689 1.713921,6.177333 1.851619,6.045437 0.137707,-0.131889 0.906997,-2.960256 1.709548,-6.285241 l 1.459162,-6.045437 3.375589,-0.119502 c 3.096335,-0.109626 3.3756,-0.05415 3.3756,0.670839 0,0.434688 -1.481254,5.603271 -3.291706,11.48573 l -3.291871,10.695389 v 7.66435 7.664363 h -3.291706 -3.291791 z m 5.760568,-1.281835 V 72.178002 L 87.143331,61.99845 c 1.728797,-5.598751 3.233601,-10.420448 3.343796,-10.714875 0.154287,-0.412048 -0.403729,-0.506804 -2.423402,-0.411464 l -2.623752,0.123852 -1.693297,7.200757 c -1.186334,5.044972 -1.863825,7.200756 -2.263089,7.200756 -0.395393,0 -1.128752,-2.235146 -2.39632,-7.303626 L 77.260829,50.790223 H 74.63974 c -1.441625,0 -2.539261,0.138877 -2.43921,0.308602 0.100052,0.169734 1.684789,5.238155 3.521804,11.263168 l 3.339833,10.954567 v 7.047328 7.047332 h 2.46887 2.468777 z"
       id="path66-3-3"
       inkscape:connector-curvature="0"
       sodipodi:nodetypes="sccscsccscccccscscscccccccssccscccsccscccccccsccccsccccccccscscsccccscscccccccccccccccccccsscccccscccccsccscscscsscscssccccccccscccccccccscsccccccccccccccccccccccccccccssccccccsscccccsscccccccsccccccscccccccccccccccccccccccsccccccccccccccccccccccccsccccccccsccsccccccssccccccccccccccccsscccsccscccccsccscccscsccccsccccccssccccccccccsccsccscscccccccc" />
    <path
       style="fill:#ff00ff;fill-opacity:1;stroke:url(#radialGradient1174);stroke-width:0.90523821;stroke-miterlimit:3.79999995;stroke-dasharray:none;stroke-opacity:0.20952382"
       d="m 92.792244,196.88433 c -1.840367,-0.42915 -4.745704,-1.36296 -6.456453,-2.07514 -5.197222,-2.16361 -54.069427,-29.92138 -58.713896,-33.3475 -7.55598,-5.57388 -12.93895,-13.77641 -15.049385,-22.93197 -0.840804,-3.64769 -1.491649,-31.9414 -1.294041,-56.261895 C 11.415824,65.359776 11.463528,64.428987 12.353843,61.295052 14.906168,52.310315 20.423227,44.53719 28.039736,39.194747 31.544949,36.736009 77.830104,9.6011836 82.353966,7.3528277 93.561452,1.7826574 105.23378,1.3460618 116.38805,6.0798196 c 4.13999,1.7569729 51.11768,28.3587954 56.64488,32.0759734 3.55232,2.389114 8.10024,6.876364 10.52681,10.386469 2.69871,3.90387 4.3621,7.572809 5.68072,12.530039 l 1.04096,3.913703 0.3965,31.271861 c 0.48204,38.012145 0.34185,40.212975 -3.09698,48.619585 -2.28973,5.5974 -7.64727,12.263 -12.85153,15.98934 -4.23694,3.03369 -48.92447,29.28448 -55.39003,32.53778 -6.01362,3.02588 -9.84701,3.95286 -17.02899,4.11806 -4.979424,0.11452 -6.818754,-0.009 -9.518146,-0.6383 z m 15.139626,-0.60146 c 3.68357,-0.70741 7.55032,-2.00782 10.83737,-3.64473 6.09261,-3.03405 52.08226,-30.1152 55.75448,-32.83118 8.95342,-6.62212 14.08206,-16.08005 15.17596,-27.98672 0.29241,-3.18317 0.3237,-14.60395 0.0969,-35.356645 l -0.33505,-30.654647 -1.08188,-4.114724 C 186.14159,53.182656 181.65263,46.182818 175.05409,40.914897 171.89519,38.392974 158.4577,30.514091 129.02396,13.925576 112.87101,4.8220082 110.71967,4.0774031 100.66439,4.1100581 c -5.461176,0.017709 -7.134455,0.1745212 -9.815368,0.9196837 -6.055383,1.683173 -6.465303,1.9088546 -50.533439,27.8232932 -5.808358,3.415632 -12.065311,7.395778 -13.904319,8.84476 -5.537688,4.363321 -9.999315,10.578826 -12.17688,16.963508 -2.291969,6.720615 -2.356092,8.017535 -2.050954,41.505537 0.153601,16.86006 0.450916,32.03012 0.660473,33.71124 1.514599,12.14657 7.225572,21.44137 17.253096,28.07963 1.92357,1.27346 12.107514,7.21214 22.630892,13.19708 28.348908,16.12278 30.979713,17.56742 34.462232,18.92423 6.657841,2.59391 14.417447,3.41838 20.741697,2.20385 z M 71.449978,151.63413 c -1.910075,-0.16467 -4.106979,-0.65098 -5.233754,-1.15855 -2.648593,-1.19305 -5.414772,-4.14788 -6.565442,-7.01326 -0.935268,-2.32888 -0.945411,-2.5453 -0.950912,-20.25306 l -0.0086,-17.89902 1.1872,-2.57065 c 1.367703,-2.961272 3.920115,-5.526416 6.764169,-6.79806 1.621698,-0.725084 3.21658,-0.9183 10.153345,-1.230056 11.282178,-0.507056 53.646946,-0.121282 56.481206,0.514314 4.23136,0.948882 8.07445,4.541679 9.37614,8.765322 0.82671,2.68266 1.28984,24.80867 0.69082,33.00472 -0.46449,6.35496 -1.31596,8.46867 -4.6013,11.4225 -3.88049,3.48888 -2.16768,3.32168 -34.9954,3.41614 -15.954918,0.0459 -30.490116,-0.0443 -32.300657,-0.20034 z m 56.783092,-0.81285 c 4.54654,-0.27577 5.65776,-0.48306 7.4065,-1.3816 4.81284,-2.47299 6.33311,-5.46979 6.81952,-13.44233 0.45728,-7.49553 0.44859,-18.26137 -0.0206,-25.5323 -0.34158,-5.29245 -0.51305,-6.20668 -1.5415,-8.2177 -1.26275,-2.469114 -4.0493,-4.893378 -6.62595,-5.764506 -2.59436,-0.877154 -30.85035,-1.43785 -49.213105,-0.976559 -17.957211,0.451116 -18.07918,0.471443 -21.529899,3.588967 -3.727319,3.367438 -4.431715,8.307898 -4.082999,28.640198 0.248924,14.51701 0.441118,15.58969 3.377228,18.85542 2.746152,3.05442 4.810773,3.90025 10.273681,4.20908 6.720419,0.37992 48.955834,0.39625 55.137234,0.0214 z m -3.58379,-9.1153 c -0.92865,-0.49036 -1.97626,-1.5711 -2.67455,-2.75926 -1.13769,-1.93544 -1.14937,-2.0281 -1.28656,-10.21235 -0.15738,-9.38695 0.10822,-10.97822 2.22235,-13.31832 1.9234,-2.129 3.2886,-2.62001 6.74216,-2.42485 3.23103,0.18256 4.61558,0.93786 5.98689,3.26605 0.6854,1.1636 0.84682,2.30625 0.96578,6.83574 l 0.14303,5.43861 -4.87489,0.11627 -4.87481,0.11626 -0.12181,2.54411 c -0.16701,3.48732 0.32801,5.23701 1.53085,5.41156 1.3836,0.20079 1.85,-0.50119 2.0849,-3.13793 l 0.20922,-2.3489 h 2.88041 2.88024 l 0.1237,2.14165 c 0.23559,4.07662 -1.43261,7.41076 -4.30889,8.61256 -1.9742,0.82491 -5.80054,0.68385 -7.62802,-0.2812 z m 8.27585,-1.12173 c 1.62721,-1.21274 2.48047,-2.99411 2.77255,-5.78794 l 0.26482,-2.53466 h -2.32163 -2.3217 v 1.92208 c 0,2.3687 -0.84279,3.42704 -2.72888,3.42704 -2.16218,0 -2.67662,-1.18092 -2.53359,-5.81577 l 0.11905,-3.85381 4.87876,-0.1163 4.87876,-0.11631 -0.15067,-4.61562 c -0.2387,-7.30861 -1.99226,-9.55019 -7.23649,-9.25022 -4.20161,0.24034 -6.42216,2.53107 -6.91502,7.13364 -0.40467,3.77854 0.008,14.94994 0.60305,16.42867 0.65412,1.6185 1.99887,3.05285 3.53006,3.76528 1.69673,0.78941 5.76177,0.45671 7.16093,-0.58608 z m -6.6808,-16.41488 c -0.15093,-0.15087 -0.27435,-1.27027 -0.27435,-2.48754 0,-1.82379 0.18462,-2.39787 1.04932,-3.26261 0.81381,-0.81375 1.29886,-0.98929 2.16029,-0.78171 1.66408,0.40099 2.13958,1.33644 2.13958,4.21025 v 2.59592 h -2.40028 c -1.32017,0 -2.5237,-0.12344 -2.67456,-0.27431 z m 4.25182,-2.22157 c 0,-2.20794 -0.60735,-3.26473 -1.87621,-3.26473 -1.17551,0 -1.82704,1.25679 -1.82704,3.52431 0,1.40078 0.0163,1.41335 1.85163,1.41335 h 1.85162 z m -46.553579,19.40317 -0.971375,-0.78599 -0.205771,-13.10118 c -0.113203,-7.20565 -0.136578,-13.34057 -0.05153,-13.63316 0.110544,-0.38231 0.920825,-0.49808 2.880329,-0.41147 l 2.726638,0.1205 0.205781,11.31015 c 0.226395,12.44644 0.283905,12.67743 2.616874,10.51528 l 1.124368,-1.04206 -0.0387,-9.98021 c -0.02146,-5.48911 -0.03008,-10.22013 -0.01889,-10.51335 0.0155,-0.39444 0.742475,-0.50149 2.79738,-0.41147 l 2.777526,0.12166 0.108213,14.11106 0.108306,14.11103 -2.988542,-0.12099 -2.988625,-0.12101 0.124885,-1.23442 c 0.121888,-1.20517 0.110021,-1.21374 -0.500167,-0.36224 -1.5054,2.10094 -5.873594,2.91036 -7.705708,1.42787 z m 6.22936,-1.4771 c 1.177054,-0.79208 2.306668,-1.44015 2.510201,-1.44015 0.203543,0 0.370128,0.55549 0.370128,1.23442 0,1.20698 0.04558,1.23441 2.057308,1.23441 h 2.0574 v -13.39537 -13.39539 l -1.954515,0.12542 -1.954514,0.12541 -0.109846,10.35897 -0.109846,10.35899 -1.259057,1.05936 c -1.374242,1.15637 -2.893223,1.37165 -3.607333,0.51127 -0.300321,-0.36195 -0.492171,-4.24001 -0.56472,-11.41835 l -0.109764,-10.87024 h -1.851619 -1.851629 l -0.115348,11.93268 c -0.06365,6.56298 -0.01725,12.33635 0.103481,12.82972 0.631859,2.59063 3.204723,2.89216 6.389673,0.74885 z m 19.353619,1.56857 c -0.70319,-0.49257 -1.03893,-0.5524 -1.15454,-0.20574 -0.10632,0.31884 -1.22407,0.48879 -3.21459,0.48879 h -3.05181 v -18.9277 -18.92771 h 3.08601 3.08601 v 5.39646 5.39646 l 1.11406,-0.72996 c 1.34269,-0.87976 4.13801,-1.00999 5.54302,-0.25826 0.56188,0.30063 1.37698,1.13386 1.81131,1.85163 0.71428,1.18035 0.80196,2.31619 0.91782,11.88802 0.14174,11.7142 -0.0619,12.90093 -2.42614,14.12346 -1.56557,0.80954 -4.48887,0.76069 -5.71115,-0.0955 z m 5.06426,-0.58526 c 1.87895,-0.85613 2.09797,-1.99127 2.25397,-11.68157 0.16495,-10.24302 -0.17896,-12.8646 -1.86108,-14.18771 -1.47274,-1.15848 -3.75784,-1.07836 -5.63817,0.19767 -0.83376,0.56576 -1.60021,1.02867 -1.70336,1.02867 -0.10306,0 -0.18737,-2.60195 -0.18737,-5.78211 v -5.78211 l -2.16028,0.12437 -2.16021,0.12438 v 17.89902 17.89902 l 2.16021,0.12439 c 1.94463,0.11195 2.16028,0.0401 2.16028,-0.72009 0,-1.04462 0.42702,-1.06554 1.69321,-0.083 1.75278,1.36014 3.65537,1.65343 5.4428,0.83902 z m -6.00451,-3.48175 -1.1315,-0.61388 v -9.01591 c 0,-8.85033 0.0171,-9.02766 0.91438,-9.65645 1.23086,-0.8621 2.2116,-0.8062 3.20024,0.18242 0.77179,0.77176 0.82302,1.37157 0.82302,9.64626 0,8.6513 -0.0172,8.83579 -0.91456,9.46384 -1.11293,0.77956 -1.44437,0.77885 -2.89158,-0.006 z m 2.89416,-8.81703 c 0.0645,-4.41305 0.0189,-8.41989 -0.0994,-8.90413 -0.26947,-1.09835 -1.26998,-1.512 -2.31028,-0.95524 -0.74316,0.39771 -0.79319,0.95005 -0.79319,8.76286 0,8.94334 0.11656,9.46724 2.05449,9.24076 l 1.03153,-0.12054 z m -40.646719,-2.67457 v -15.84166 h -2.880327 -2.880326 v -3.08605 -3.08604 h 9.276182 9.276097 l -0.120851,2.98318 -0.12085,2.98317 -2.983215,0.12089 -2.983217,0.12089 v 15.82365 15.82363 H 74.12453 70.832741 Z m 5.858555,-0.72007 0.107786,-15.73881 2.057396,-0.10751 c 3.802366,-0.19873 3.908947,-0.26892 3.908947,-2.57489 v -2.04953 h -8.435206 -8.43512 v 2.2631 2.26309 h 2.880327 2.880241 v 15.84167 15.84167 h 2.463963 2.463879 z M 94.355924,88.174207 c -1.0422,-0.515854 -2.23842,-1.570732 -2.880329,-2.540013 -1.097462,-1.656979 -1.097975,-1.662102 -1.228455,-11.031157 -0.119907,-8.611738 -0.06447,-9.522965 0.683764,-11.214072 1.08122,-2.444452 3.469369,-4.037038 6.42044,-4.281767 3.749926,-0.310965 6.549966,1.096484 8.056486,4.049691 0.73681,1.444101 0.81064,2.435273 0.80247,10.762236 -0.008,8.016015 -0.10426,9.379025 -0.76482,10.817527 -0.41576,0.905241 -1.11276,1.962861 -1.54907,2.350267 -2.33082,2.069688 -6.577989,2.553718 -9.540486,1.087288 z m 7.876676,-1.071468 c 0.70568,-0.412117 1.65994,-1.390842 2.12058,-2.174904 0.76009,-1.293947 0.84965,-2.253566 0.96922,-10.391163 0.12454,-8.468642 0.0825,-9.066454 -0.74918,-10.785624 -1.25047,-2.582899 -3.21692,-3.708693 -6.415454,-3.672696 -2.93362,0.033 -4.860201,1.01622 -6.134216,3.13048 -0.732157,1.214962 -0.837794,2.238798 -0.957177,9.276137 -0.160652,9.472339 0.198636,11.760169 2.142833,13.644567 0.748152,0.725157 1.898391,1.489744 2.556192,1.699108 1.671985,0.532208 4.941422,0.165241 6.467202,-0.725905 z m -5.348511,-3.30657 c -1.067885,-0.679003 -1.363051,-2.848283 -1.363051,-10.017356 0,-7.200644 0.22391,-8.722 1.3989,-9.506581 0.83685,-0.558763 2.297901,-0.321418 3.127362,0.508032 0.76937,0.769419 0.82293,1.371572 0.82293,9.258123 0,7.886541 -0.0533,8.488694 -0.82293,9.258114 -0.835908,0.835921 -2.276499,1.063472 -3.163211,0.499668 z m 2.522592,-1.414162 c 0.521141,-0.744088 0.639579,-2.258464 0.634939,-8.126577 -0.008,-3.966634 -0.112772,-7.611567 -0.243765,-8.099838 -0.274194,-1.021953 -1.384467,-1.439295 -2.366744,-0.889601 -0.591884,0.331225 -0.675685,1.411438 -0.675685,8.710552 0,8.356075 0.155139,9.319958 1.499209,9.319958 0.281329,0 0.7998,-0.411523 1.152046,-0.914494 z m 11.464659,5.270894 -1.15445,-0.992738 V 73.35426 60.048337 h 2.88023 2.88033 l 0.10959,11.022384 c 0.11931,11.992766 0.1763,12.253791 2.36237,10.82139 l 1.02552,-0.671947 V 70.51336 59.806556 l 2.98321,0.120895 2.98314,0.120886 0.10821,14.092911 c 0.0949,12.344168 0.0309,14.096577 -0.51426,14.122313 -0.34244,0.01612 -1.4559,0.02936 -2.4742,0.02936 -3.00642,0 -3.0861,-0.02279 -3.0861,-0.881743 0,-1.041645 -0.0627,-1.034818 -1.89073,0.20574 -2.0458,1.388276 -4.62288,1.403182 -6.21286,0.03603 z m 5.14178,-0.405289 c 0.61174,-0.316294 1.46449,-0.964363 1.89495,-1.44016 1.12695,-1.245198 1.88979,-1.096106 1.88979,0.369349 0,1.221946 0.0232,1.234419 2.26317,1.234419 h 2.26309 V 74.038387 60.665548 h -2.26309 -2.26317 v 10.420809 c 0,10.285525 -0.012,10.431621 -0.92582,11.254161 -1.27418,1.146947 -2.28199,1.441306 -3.21864,0.940029 -0.75313,-0.403039 -0.79319,-0.984589 -0.79319,-11.519733 V 60.665548 h -2.26309 -2.26308 v 12.158855 c 0,14.368543 0.11509,14.872745 3.41513,14.965806 0.63357,0.01786 1.6523,-0.226303 2.26395,-0.542597 z M 78.239246,81.076448 V 73.918729 L 74.739619,62.457351 C 72.81476,56.153578 71.330674,50.756667 71.441555,50.464199 c 0.146638,-0.386657 1.073568,-0.498939 3.396826,-0.411472 l 3.19509,0.120284 1.601331,6.285241 c 0.880685,3.45689 1.713921,6.177333 1.851619,6.045437 0.137707,-0.131889 0.906997,-2.960256 1.709548,-6.285241 l 1.459162,-6.045437 3.375589,-0.119502 c 3.096335,-0.109626 3.3756,-0.05415 3.3756,0.670839 0,0.434688 -1.481254,5.603271 -3.291706,11.48573 l -3.291871,10.695389 v 7.66435 7.664363 h -3.291706 -3.291791 z m 5.760568,-1.281835 V 72.178002 L 87.143331,61.99845 c 1.728797,-5.598751 3.233601,-10.420448 3.343796,-10.714875 0.154287,-0.412048 -0.403729,-0.506804 -2.423402,-0.411464 l -2.623752,0.123852 -1.693297,7.200757 c -1.186334,5.044972 -1.863825,7.200756 -2.263089,7.200756 -0.395393,0 -1.128752,-2.235146 -2.39632,-7.303626 L 77.260829,50.790223 H 74.63974 c -1.441625,0 -2.539261,0.138877 -2.43921,0.308602 0.100052,0.169734 1.684789,5.238155 3.521804,11.263168 l 3.339833,10.954567 v 7.047328 7.047332 h 2.46887 2.468777 z"
       id="path66-3-3-0"
       inkscape:connector-curvature="0"
       sodipodi:nodetypes="sccscsccscccccscscscccccccssccscccsccscccccccsccccsccccccccscscsccccscscccccccccccccccccccsscccccscccccsccscscscsscscssccccccccscccccccccscsccccccccccccccccccccccccccccssccccccsscccccsscccccccsccccccscccccccccccccccccccccccsccccccccccccccccccccccccsccccccccsccsccccccssccccccccccccccccsscccsccscccccsccscccscsccccsccccccssccccccccccsccsccscscccccccc" />
  </g>
</svg>
